solid OpenSCAD_Model
  facet normal 0 0 -1
    outer loop
      vertex 30 30 0
      vertex 35.8579 50 0
      vertex 50 35.8579 0
    endloop
  endfacet
  facet normal 0 0 -1
    outer loop
      vertex 50 -35.8579 0
      vertex 70.7107 -56.5685 0
      vertex 56.5685 -70.7107 0
    endloop
  endfacet
  facet normal 0 0 -1
    outer loop
      vertex -50 35.8579 0
      vertex -56.5685 70.7107 0
      vertex -35.8579 50 0
    endloop
  endfacet
  facet normal 0 0 -1
    outer loop
      vertex 50 35.8579 0
      vertex 56.5685 70.7107 0
      vertex 70.7107 56.5685 0
    endloop
  endfacet
  facet normal 0 0 -1
    outer loop
      vertex 50 35.8579 0
      vertex 35.8579 50 0
      vertex 56.5685 70.7107 0
    endloop
  endfacet
  facet normal -0 0 -1
    outer loop
      vertex 30 -30 0
      vertex -35.8579 -50 0
      vertex -30 -30 0
    endloop
  endfacet
  facet normal 0 0 -1
    outer loop
      vertex -70.7107 56.5685 0
      vertex -56.5685 70.7107 0
      vertex -50 35.8579 0
    endloop
  endfacet
  facet normal 0 -0 -1
    outer loop
      vertex 30 -30 0
      vertex 35.8579 -50 0
      vertex -35.8579 -50 0
    endloop
  endfacet
  facet normal 0 0 -1
    outer loop
      vertex -35.8579 -50 0
      vertex -50 -35.8579 0
      vertex -30 -30 0
    endloop
  endfacet
  facet normal 0 0 -1
    outer loop
      vertex -56.5685 -70.7107 0
      vertex -50 -35.8579 0
      vertex -35.8579 -50 0
    endloop
  endfacet
  facet normal 0 0 -1
    outer loop
      vertex -56.5685 -70.7107 0
      vertex -70.7107 -56.5685 0
      vertex -50 -35.8579 0
    endloop
  endfacet
  facet normal 0 0 -1
    outer loop
      vertex -35.8579 50 0
      vertex 30 30 0
      vertex -30 30 0
    endloop
  endfacet
  facet normal 0 0 -1
    outer loop
      vertex 56.5685 -70.7107 0
      vertex 35.8579 -50 0
      vertex 50 -35.8579 0
    endloop
  endfacet
  facet normal 0 0 -1
    outer loop
      vertex 30 30 0
      vertex 50 35.8579 0
      vertex 50 -35.8579 0
    endloop
  endfacet
  facet normal -0 -0 -1
    outer loop
      vertex -30 30 0
      vertex -30 -30 0
      vertex -50 35.8579 0
    endloop
  endfacet
  facet normal 0 0 -1
    outer loop
      vertex 30 -30 0
      vertex 50 -35.8579 0
      vertex 35.8579 -50 0
    endloop
  endfacet
  facet normal -0 0 -1
    outer loop
      vertex -30 -30 0
      vertex -50 -35.8579 0
      vertex -50 35.8579 0
    endloop
  endfacet
  facet normal 0 0 -1
    outer loop
      vertex -30 30 0
      vertex -50 35.8579 0
      vertex -35.8579 50 0
    endloop
  endfacet
  facet normal 0 0 -1
    outer loop
      vertex 30 -30 0
      vertex 30 30 0
      vertex 50 -35.8579 0
    endloop
  endfacet
  facet normal 0 0 -1
    outer loop
      vertex 30 30 0
      vertex -35.8579 50 0
      vertex 35.8579 50 0
    endloop
  endfacet
  facet normal 0 0 1
    outer loop
      vertex 50 35.8579 8
      vertex 35.8579 50 8
      vertex 30 30 8
    endloop
  endfacet
  facet normal 0 -0 1
    outer loop
      vertex 56.5685 -70.7107 8
      vertex 70.7107 -56.5685 8
      vertex 50 -35.8579 8
    endloop
  endfacet
  facet normal 0 0 1
    outer loop
      vertex -35.8579 50 8
      vertex -56.5685 70.7107 8
      vertex -50 35.8579 8
    endloop
  endfacet
  facet normal 0 0 1
    outer loop
      vertex 70.7107 56.5685 8
      vertex 56.5685 70.7107 8
      vertex 50 35.8579 8
    endloop
  endfacet
  facet normal 0 0 1
    outer loop
      vertex 56.5685 70.7107 8
      vertex 35.8579 50 8
      vertex 50 35.8579 8
    endloop
  endfacet
  facet normal -0 0 1
    outer loop
      vertex -30 -30 8
      vertex -35.8579 -50 8
      vertex 30 -30 8
    endloop
  endfacet
  facet normal 0 0 1
    outer loop
      vertex -50 35.8579 8
      vertex -56.5685 70.7107 8
      vertex -70.7107 56.5685 8
    endloop
  endfacet
  facet normal 0 0 1
    outer loop
      vertex -35.8579 -50 8
      vertex 35.8579 -50 8
      vertex 30 -30 8
    endloop
  endfacet
  facet normal 0 0 1
    outer loop
      vertex -30 -30 8
      vertex -50 -35.8579 8
      vertex -35.8579 -50 8
    endloop
  endfacet
  facet normal 0 0 1
    outer loop
      vertex -35.8579 -50 8
      vertex -50 -35.8579 8
      vertex -56.5685 -70.7107 8
    endloop
  endfacet
  facet normal 0 0 1
    outer loop
      vertex -50 -35.8579 8
      vertex -70.7107 -56.5685 8
      vertex -56.5685 -70.7107 8
    endloop
  endfacet
  facet normal 0 -0 1
    outer loop
      vertex -30 30 8
      vertex 30 30 8
      vertex -35.8579 50 8
    endloop
  endfacet
  facet normal 0 0 1
    outer loop
      vertex 50 -35.8579 8
      vertex 35.8579 -50 8
      vertex 56.5685 -70.7107 8
    endloop
  endfacet
  facet normal 0 -0 1
    outer loop
      vertex 50 -35.8579 8
      vertex 50 35.8579 8
      vertex 30 30 8
    endloop
  endfacet
  facet normal 0 0 1
    outer loop
      vertex -50 35.8579 8
      vertex -30 -30 8
      vertex -30 30 8
    endloop
  endfacet
  facet normal 0 -0 1
    outer loop
      vertex 35.8579 -50 8
      vertex 50 -35.8579 8
      vertex 30 -30 8
    endloop
  endfacet
  facet normal 0 0 1
    outer loop
      vertex -50 35.8579 8
      vertex -50 -35.8579 8
      vertex -30 -30 8
    endloop
  endfacet
  facet normal 0 0 1
    outer loop
      vertex -35.8579 50 8
      vertex -50 35.8579 8
      vertex -30 30 8
    endloop
  endfacet
  facet normal 0 0 1
    outer loop
      vertex 50 -35.8579 8
      vertex 30 30 8
      vertex 30 -30 8
    endloop
  endfacet
  facet normal 0 0 1
    outer loop
      vertex 35.8579 50 8
      vertex -35.8579 50 8
      vertex 30 30 8
    endloop
  endfacet
  facet normal 0.707107 0.707107 0
    outer loop
      vertex 50 -35.8579 0
      vertex 70.7107 -56.5685 8
      vertex 70.7107 -56.5685 0
    endloop
  endfacet
  facet normal 0.707107 0.707107 -0
    outer loop
      vertex 50 -35.8579 0
      vertex 50 -35.8579 8
      vertex 70.7107 -56.5685 8
    endloop
  endfacet
  facet normal 1 0 0
    outer loop
      vertex 50 35.8579 0
      vertex 50 -35.8579 8
      vertex 50 -35.8579 0
    endloop
  endfacet
  facet normal 1 0 -0
    outer loop
      vertex 50 35.8579 0
      vertex 50 35.8579 8
      vertex 50 -35.8579 8
    endloop
  endfacet
  facet normal 0.707107 -0.707107 0
    outer loop
      vertex 70.7107 56.5685 0
      vertex 50 35.8579 8
      vertex 50 35.8579 0
    endloop
  endfacet
  facet normal 0.707107 -0.707107 0
    outer loop
      vertex 70.7107 56.5685 0
      vertex 70.7107 56.5685 8
      vertex 50 35.8579 8
    endloop
  endfacet
  facet normal 0.707107 0.707107 0
    outer loop
      vertex 56.5685 70.7107 0
      vertex 70.7107 56.5685 8
      vertex 70.7107 56.5685 0
    endloop
  endfacet
  facet normal 0.707107 0.707107 -0
    outer loop
      vertex 56.5685 70.7107 0
      vertex 56.5685 70.7107 8
      vertex 70.7107 56.5685 8
    endloop
  endfacet
  facet normal -0.707107 0.707107 0
    outer loop
      vertex 35.8579 50 0
      vertex 56.5685 70.7107 8
      vertex 56.5685 70.7107 0
    endloop
  endfacet
  facet normal -0.707107 0.707107 0
    outer loop
      vertex 35.8579 50 0
      vertex 35.8579 50 8
      vertex 56.5685 70.7107 8
    endloop
  endfacet
  facet normal 0 1 0
    outer loop
      vertex -35.8579 50 0
      vertex 35.8579 50 8
      vertex 35.8579 50 0
    endloop
  endfacet
  facet normal 0 1 0
    outer loop
      vertex -35.8579 50 0
      vertex -35.8579 50 8
      vertex 35.8579 50 8
    endloop
  endfacet
  facet normal 0.707107 0.707107 0
    outer loop
      vertex -56.5685 70.7107 0
      vertex -35.8579 50 8
      vertex -35.8579 50 0
    endloop
  endfacet
  facet normal 0.707107 0.707107 -0
    outer loop
      vertex -56.5685 70.7107 0
      vertex -56.5685 70.7107 8
      vertex -35.8579 50 8
    endloop
  endfacet
  facet normal -0.707107 0.707107 0
    outer loop
      vertex -70.7107 56.5685 0
      vertex -56.5685 70.7107 8
      vertex -56.5685 70.7107 0
    endloop
  endfacet
  facet normal -0.707107 0.707107 0
    outer loop
      vertex -70.7107 56.5685 0
      vertex -70.7107 56.5685 8
      vertex -56.5685 70.7107 8
    endloop
  endfacet
  facet normal -0.707107 -0.707107 0
    outer loop
      vertex -50 35.8579 0
      vertex -70.7107 56.5685 8
      vertex -70.7107 56.5685 0
    endloop
  endfacet
  facet normal -0.707107 -0.707107 0
    outer loop
      vertex -50 35.8579 0
      vertex -50 35.8579 8
      vertex -70.7107 56.5685 8
    endloop
  endfacet
  facet normal -1 0 0
    outer loop
      vertex -50 -35.8579 0
      vertex -50 35.8579 8
      vertex -50 35.8579 0
    endloop
  endfacet
  facet normal -1 0 0
    outer loop
      vertex -50 -35.8579 0
      vertex -50 -35.8579 8
      vertex -50 35.8579 8
    endloop
  endfacet
  facet normal -0.707107 0.707107 0
    outer loop
      vertex -70.7107 -56.5685 0
      vertex -50 -35.8579 8
      vertex -50 -35.8579 0
    endloop
  endfacet
  facet normal -0.707107 0.707107 0
    outer loop
      vertex -70.7107 -56.5685 0
      vertex -70.7107 -56.5685 8
      vertex -50 -35.8579 8
    endloop
  endfacet
  facet normal -0.707107 -0.707107 0
    outer loop
      vertex -56.5685 -70.7107 0
      vertex -70.7107 -56.5685 8
      vertex -70.7107 -56.5685 0
    endloop
  endfacet
  facet normal -0.707107 -0.707107 0
    outer loop
      vertex -56.5685 -70.7107 0
      vertex -56.5685 -70.7107 8
      vertex -70.7107 -56.5685 8
    endloop
  endfacet
  facet normal 0.707107 -0.707107 0
    outer loop
      vertex -35.8579 -50 0
      vertex -56.5685 -70.7107 8
      vertex -56.5685 -70.7107 0
    endloop
  endfacet
  facet normal 0.707107 -0.707107 0
    outer loop
      vertex -35.8579 -50 0
      vertex -35.8579 -50 8
      vertex -56.5685 -70.7107 8
    endloop
  endfacet
  facet normal 0 -1 0
    outer loop
      vertex 35.8579 -50 0
      vertex -35.8579 -50 8
      vertex -35.8579 -50 0
    endloop
  endfacet
  facet normal 0 -1 0
    outer loop
      vertex 35.8579 -50 0
      vertex 35.8579 -50 8
      vertex -35.8579 -50 8
    endloop
  endfacet
  facet normal -0.707107 -0.707107 0
    outer loop
      vertex 56.5685 -70.7107 0
      vertex 35.8579 -50 8
      vertex 35.8579 -50 0
    endloop
  endfacet
  facet normal -0.707107 -0.707107 0
    outer loop
      vertex 56.5685 -70.7107 0
      vertex 56.5685 -70.7107 8
      vertex 35.8579 -50 8
    endloop
  endfacet
  facet normal 0.707107 -0.707107 0
    outer loop
      vertex 70.7107 -56.5685 0
      vertex 56.5685 -70.7107 8
      vertex 56.5685 -70.7107 0
    endloop
  endfacet
  facet normal 0.707107 -0.707107 0
    outer loop
      vertex 70.7107 -56.5685 0
      vertex 70.7107 -56.5685 8
      vertex 56.5685 -70.7107 8
    endloop
  endfacet
  facet normal 1 0 -0
    outer loop
      vertex -30 30 0
      vertex -30 30 8
      vertex -30 -30 0
    endloop
  endfacet
  facet normal 1 -0 0
    outer loop
      vertex -30 -30 8
      vertex -30 -30 0
      vertex -30 30 8
    endloop
  endfacet
  facet normal 0 -1 0
    outer loop
      vertex 30 30 0
      vertex 30 30 8
      vertex -30 30 0
    endloop
  endfacet
  facet normal 0 -1 0
    outer loop
      vertex -30 30 8
      vertex -30 30 0
      vertex 30 30 8
    endloop
  endfacet
  facet normal -1 0 0
    outer loop
      vertex 30 -30 0
      vertex 30 -30 8
      vertex 30 30 0
    endloop
  endfacet
  facet normal -1 -0 -0
    outer loop
      vertex 30 30 8
      vertex 30 30 0
      vertex 30 -30 8
    endloop
  endfacet
  facet normal 0 1 0
    outer loop
      vertex -30 -30 0
      vertex -30 -30 8
      vertex 30 -30 0
    endloop
  endfacet
  facet normal 0 1 0
    outer loop
      vertex 30 -30 8
      vertex 30 -30 0
      vertex -30 -30 8
    endloop
  endfacet
endsolid OpenSCAD_Model
