solid OpenSCAD_Model
  facet normal 0 0 -1
    outer loop
      vertex -30 30 0
      vertex -1.72472 16.4096 0
      vertex -5.09877 15.6924 0
    endloop
  endfacet
  facet normal 0 0 -1
    outer loop
      vertex 30 30 0
      vertex 16.1394 3.43054 0
      vertex 15.0735 6.71115 0
    endloop
  endfacet
  facet normal 0 0 -1
    outer loop
      vertex 30 -30 0
      vertex 1.72472 -16.4096 0
      vertex 5.09877 -15.6924 0
    endloop
  endfacet
  facet normal 0 -0 -1
    outer loop
      vertex 1.72472 -16.4096 0
      vertex 30 -30 0
      vertex -30 -30 0
    endloop
  endfacet
  facet normal 0 -0 -1
    outer loop
      vertex -1.72472 -16.4096 0
      vertex 1.72472 -16.4096 0
      vertex -30 -30 0
    endloop
  endfacet
  facet normal 0 -0 -1
    outer loop
      vertex -5.09877 -15.6924 0
      vertex -1.72472 -16.4096 0
      vertex -30 -30 0
    endloop
  endfacet
  facet normal 0 -0 -1
    outer loop
      vertex -8.25 -14.2894 0
      vertex -5.09877 -15.6924 0
      vertex -30 -30 0
    endloop
  endfacet
  facet normal 0 -0 -1
    outer loop
      vertex -11.0406 -12.2619 0
      vertex -8.25 -14.2894 0
      vertex -30 -30 0
    endloop
  endfacet
  facet normal 0 -0 -1
    outer loop
      vertex -13.3488 -9.69846 0
      vertex -11.0406 -12.2619 0
      vertex -30 -30 0
    endloop
  endfacet
  facet normal 0 -0 -1
    outer loop
      vertex -16.1394 -3.43054 0
      vertex -15.0735 -6.71115 0
      vertex -30 -30 0
    endloop
  endfacet
  facet normal 0 -0 -1
    outer loop
      vertex -15.0735 -6.71115 0
      vertex -13.3488 -9.69846 0
      vertex -30 -30 0
    endloop
  endfacet
  facet normal 0 -0 -1
    outer loop
      vertex -16.5 0 0
      vertex -16.1394 -3.43054 0
      vertex -30 -30 0
    endloop
  endfacet
  facet normal 0 0 -1
    outer loop
      vertex -30 30 0
      vertex -16.5 0 0
      vertex -30 -30 0
    endloop
  endfacet
  facet normal 0 0 -1
    outer loop
      vertex -30 30 0
      vertex -16.1394 3.43054 0
      vertex -16.5 0 0
    endloop
  endfacet
  facet normal 0 0 -1
    outer loop
      vertex -30 30 0
      vertex -15.0735 6.71115 0
      vertex -16.1394 3.43054 0
    endloop
  endfacet
  facet normal 0 0 -1
    outer loop
      vertex -30 30 0
      vertex -13.3488 9.69846 0
      vertex -15.0735 6.71115 0
    endloop
  endfacet
  facet normal 0 0 -1
    outer loop
      vertex -30 30 0
      vertex -11.0406 12.2619 0
      vertex -13.3488 9.69846 0
    endloop
  endfacet
  facet normal 0 0 -1
    outer loop
      vertex -30 30 0
      vertex -8.24998 14.2894 0
      vertex -11.0406 12.2619 0
    endloop
  endfacet
  facet normal 0 0 -1
    outer loop
      vertex -30 30 0
      vertex -5.09877 15.6924 0
      vertex -8.24998 14.2894 0
    endloop
  endfacet
  facet normal 0 0 -1
    outer loop
      vertex 1.72472 16.4096 0
      vertex -1.72472 16.4096 0
      vertex -30 30 0
    endloop
  endfacet
  facet normal -0 0 -1
    outer loop
      vertex 30 30 0
      vertex 1.72472 16.4096 0
      vertex -30 30 0
    endloop
  endfacet
  facet normal 0 0 -1
    outer loop
      vertex 30 30 0
      vertex 5.09877 15.6924 0
      vertex 1.72472 16.4096 0
    endloop
  endfacet
  facet normal 0 0 -1
    outer loop
      vertex 30 30 0
      vertex 8.25 14.2894 0
      vertex 5.09877 15.6924 0
    endloop
  endfacet
  facet normal 0 0 -1
    outer loop
      vertex 30 30 0
      vertex 11.0406 12.2619 0
      vertex 8.25 14.2894 0
    endloop
  endfacet
  facet normal 0 0 -1
    outer loop
      vertex 30 30 0
      vertex 13.3488 9.69846 0
      vertex 11.0406 12.2619 0
    endloop
  endfacet
  facet normal 0 0 -1
    outer loop
      vertex 30 30 0
      vertex 15.0735 6.71115 0
      vertex 13.3488 9.69846 0
    endloop
  endfacet
  facet normal 0 0 -1
    outer loop
      vertex 16.5 0 0
      vertex 16.1394 3.43054 0
      vertex 30 30 0
    endloop
  endfacet
  facet normal 0 0 -1
    outer loop
      vertex 30 -30 0
      vertex 16.5 0 0
      vertex 30 30 0
    endloop
  endfacet
  facet normal 0 0 -1
    outer loop
      vertex 30 -30 0
      vertex 16.1394 -3.43054 0
      vertex 16.5 0 0
    endloop
  endfacet
  facet normal 0 0 -1
    outer loop
      vertex 30 -30 0
      vertex 15.0735 -6.71115 0
      vertex 16.1394 -3.43054 0
    endloop
  endfacet
  facet normal 0 0 -1
    outer loop
      vertex 30 -30 0
      vertex 13.3488 -9.69846 0
      vertex 15.0735 -6.71115 0
    endloop
  endfacet
  facet normal 0 0 -1
    outer loop
      vertex 30 -30 0
      vertex 11.0406 -12.2619 0
      vertex 13.3488 -9.69846 0
    endloop
  endfacet
  facet normal 0 0 -1
    outer loop
      vertex 30 -30 0
      vertex 8.25 -14.2894 0
      vertex 11.0406 -12.2619 0
    endloop
  endfacet
  facet normal 0 0 -1
    outer loop
      vertex 30 -30 0
      vertex 5.09877 -15.6924 0
      vertex 8.25 -14.2894 0
    endloop
  endfacet
  facet normal 0 -0 1
    outer loop
      vertex -5.09877 15.6924 8
      vertex -1.72472 16.4096 8
      vertex -30 30 8
    endloop
  endfacet
  facet normal -0 0 1
    outer loop
      vertex 15.0735 6.71115 8
      vertex 16.1394 3.43054 8
      vertex 30 30 8
    endloop
  endfacet
  facet normal 0 0 1
    outer loop
      vertex 5.09877 -15.6924 8
      vertex 1.72472 -16.4096 8
      vertex 30 -30 8
    endloop
  endfacet
  facet normal 0 0 1
    outer loop
      vertex -30 -30 8
      vertex 30 -30 8
      vertex 1.72472 -16.4096 8
    endloop
  endfacet
  facet normal 0 0 1
    outer loop
      vertex -30 -30 8
      vertex 1.72472 -16.4096 8
      vertex -1.72472 -16.4096 8
    endloop
  endfacet
  facet normal 0 0 1
    outer loop
      vertex -30 -30 8
      vertex -1.72472 -16.4096 8
      vertex -5.09877 -15.6924 8
    endloop
  endfacet
  facet normal 0 0 1
    outer loop
      vertex -30 -30 8
      vertex -5.09877 -15.6924 8
      vertex -8.25 -14.2894 8
    endloop
  endfacet
  facet normal 0 0 1
    outer loop
      vertex -30 -30 8
      vertex -8.25 -14.2894 8
      vertex -11.0406 -12.2619 8
    endloop
  endfacet
  facet normal 0 0 1
    outer loop
      vertex -30 -30 8
      vertex -11.0406 -12.2619 8
      vertex -13.3488 -9.69846 8
    endloop
  endfacet
  facet normal 0 0 1
    outer loop
      vertex -30 -30 8
      vertex -15.0735 -6.71115 8
      vertex -16.1394 -3.43054 8
    endloop
  endfacet
  facet normal 0 0 1
    outer loop
      vertex -30 -30 8
      vertex -13.3488 -9.69846 8
      vertex -15.0735 -6.71115 8
    endloop
  endfacet
  facet normal 0 0 1
    outer loop
      vertex -30 -30 8
      vertex -16.1394 -3.43054 8
      vertex -16.5 0 8
    endloop
  endfacet
  facet normal 0 0 1
    outer loop
      vertex -30 -30 8
      vertex -16.5 0 8
      vertex -30 30 8
    endloop
  endfacet
  facet normal 0 -0 1
    outer loop
      vertex -16.5 0 8
      vertex -16.1394 3.43054 8
      vertex -30 30 8
    endloop
  endfacet
  facet normal 0 -0 1
    outer loop
      vertex -16.1394 3.43054 8
      vertex -15.0735 6.71115 8
      vertex -30 30 8
    endloop
  endfacet
  facet normal 0 -0 1
    outer loop
      vertex -15.0735 6.71115 8
      vertex -13.3488 9.69846 8
      vertex -30 30 8
    endloop
  endfacet
  facet normal 0 -0 1
    outer loop
      vertex -13.3488 9.69846 8
      vertex -11.0406 12.2619 8
      vertex -30 30 8
    endloop
  endfacet
  facet normal 0 -0 1
    outer loop
      vertex -11.0406 12.2619 8
      vertex -8.24998 14.2894 8
      vertex -30 30 8
    endloop
  endfacet
  facet normal 0 -0 1
    outer loop
      vertex -8.24998 14.2894 8
      vertex -5.09877 15.6924 8
      vertex -30 30 8
    endloop
  endfacet
  facet normal 0 0 1
    outer loop
      vertex -30 30 8
      vertex -1.72472 16.4096 8
      vertex 1.72472 16.4096 8
    endloop
  endfacet
  facet normal -0 0 1
    outer loop
      vertex -30 30 8
      vertex 1.72472 16.4096 8
      vertex 30 30 8
    endloop
  endfacet
  facet normal -0 0 1
    outer loop
      vertex 1.72472 16.4096 8
      vertex 5.09877 15.6924 8
      vertex 30 30 8
    endloop
  endfacet
  facet normal -0 0 1
    outer loop
      vertex 5.09877 15.6924 8
      vertex 8.25 14.2894 8
      vertex 30 30 8
    endloop
  endfacet
  facet normal -0 0 1
    outer loop
      vertex 8.25 14.2894 8
      vertex 11.0406 12.2619 8
      vertex 30 30 8
    endloop
  endfacet
  facet normal -0 0 1
    outer loop
      vertex 11.0406 12.2619 8
      vertex 13.3488 9.69846 8
      vertex 30 30 8
    endloop
  endfacet
  facet normal -0 0 1
    outer loop
      vertex 13.3488 9.69846 8
      vertex 15.0735 6.71115 8
      vertex 30 30 8
    endloop
  endfacet
  facet normal 0 0 1
    outer loop
      vertex 30 30 8
      vertex 16.1394 3.43054 8
      vertex 16.5 0 8
    endloop
  endfacet
  facet normal 0 0 1
    outer loop
      vertex 30 30 8
      vertex 16.5 0 8
      vertex 30 -30 8
    endloop
  endfacet
  facet normal 0 0 1
    outer loop
      vertex 16.5 0 8
      vertex 16.1394 -3.43054 8
      vertex 30 -30 8
    endloop
  endfacet
  facet normal 0 0 1
    outer loop
      vertex 16.1394 -3.43054 8
      vertex 15.0735 -6.71115 8
      vertex 30 -30 8
    endloop
  endfacet
  facet normal 0 0 1
    outer loop
      vertex 15.0735 -6.71115 8
      vertex 13.3488 -9.69846 8
      vertex 30 -30 8
    endloop
  endfacet
  facet normal 0 0 1
    outer loop
      vertex 13.3488 -9.69846 8
      vertex 11.0406 -12.2619 8
      vertex 30 -30 8
    endloop
  endfacet
  facet normal 0 0 1
    outer loop
      vertex 11.0406 -12.2619 8
      vertex 8.25 -14.2894 8
      vertex 30 -30 8
    endloop
  endfacet
  facet normal 0 0 1
    outer loop
      vertex 8.25 -14.2894 8
      vertex 5.09877 -15.6924 8
      vertex 30 -30 8
    endloop
  endfacet
  facet normal 0 1 0
    outer loop
      vertex -30 30 0
      vertex 30 30 8
      vertex 30 30 0
    endloop
  endfacet
  facet normal 0 1 0
    outer loop
      vertex -30 30 0
      vertex -30 30 8
      vertex 30 30 8
    endloop
  endfacet
  facet normal -1 0 0
    outer loop
      vertex -30 -30 0
      vertex -30 30 8
      vertex -30 30 0
    endloop
  endfacet
  facet normal -1 0 0
    outer loop
      vertex -30 -30 0
      vertex -30 -30 8
      vertex -30 30 8
    endloop
  endfacet
  facet normal 0 -1 0
    outer loop
      vertex 30 -30 0
      vertex -30 -30 8
      vertex -30 -30 0
    endloop
  endfacet
  facet normal 0 -1 0
    outer loop
      vertex 30 -30 0
      vertex 30 -30 8
      vertex -30 -30 8
    endloop
  endfacet
  facet normal 1 0 0
    outer loop
      vertex 30 30 0
      vertex 30 -30 8
      vertex 30 -30 0
    endloop
  endfacet
  facet normal 1 0 -0
    outer loop
      vertex 30 30 0
      vertex 30 30 8
      vertex 30 -30 8
    endloop
  endfacet
  facet normal 0.207912 0.978148 -0
    outer loop
      vertex -5.09877 -15.6924 0
      vertex -5.09877 -15.6924 8
      vertex -1.72472 -16.4096 0
    endloop
  endfacet
  facet normal 0.207912 0.978148 0
    outer loop
      vertex -1.72472 -16.4096 8
      vertex -1.72472 -16.4096 0
      vertex -5.09877 -15.6924 8
    endloop
  endfacet
  facet normal 0.406736 0.913546 -0
    outer loop
      vertex -8.25 -14.2894 0
      vertex -8.25 -14.2894 8
      vertex -5.09877 -15.6924 0
    endloop
  endfacet
  facet normal 0.406736 0.913546 0
    outer loop
      vertex -5.09877 -15.6924 8
      vertex -5.09877 -15.6924 0
      vertex -8.25 -14.2894 8
    endloop
  endfacet
  facet normal 0.587786 0.809017 -0
    outer loop
      vertex -11.0406 -12.2619 0
      vertex -11.0406 -12.2619 8
      vertex -8.25 -14.2894 0
    endloop
  endfacet
  facet normal 0.587786 0.809017 0
    outer loop
      vertex -8.25 -14.2894 8
      vertex -8.25 -14.2894 0
      vertex -11.0406 -12.2619 8
    endloop
  endfacet
  facet normal 0.743145 0.66913 -0
    outer loop
      vertex -13.3488 -9.69846 0
      vertex -13.3488 -9.69846 8
      vertex -11.0406 -12.2619 0
    endloop
  endfacet
  facet normal 0.743145 0.66913 0
    outer loop
      vertex -11.0406 -12.2619 8
      vertex -11.0406 -12.2619 0
      vertex -13.3488 -9.69846 8
    endloop
  endfacet
  facet normal 0.866026 0.499999 -0
    outer loop
      vertex -15.0735 -6.71115 0
      vertex -15.0735 -6.71115 8
      vertex -13.3488 -9.69846 0
    endloop
  endfacet
  facet normal 0.866026 0.499999 0
    outer loop
      vertex -13.3488 -9.69846 8
      vertex -13.3488 -9.69846 0
      vertex -15.0735 -6.71115 8
    endloop
  endfacet
  facet normal 0.951055 0.309021 -0
    outer loop
      vertex -16.1394 -3.43054 0
      vertex -16.1394 -3.43054 8
      vertex -15.0735 -6.71115 0
    endloop
  endfacet
  facet normal 0.951055 0.309021 0
    outer loop
      vertex -15.0735 -6.71115 8
      vertex -15.0735 -6.71115 0
      vertex -16.1394 -3.43054 8
    endloop
  endfacet
  facet normal 0.994522 0.104529 -0
    outer loop
      vertex -16.5 0 0
      vertex -16.5 0 8
      vertex -16.1394 -3.43054 0
    endloop
  endfacet
  facet normal 0.994522 0.104529 0
    outer loop
      vertex -16.1394 -3.43054 8
      vertex -16.1394 -3.43054 0
      vertex -16.5 0 8
    endloop
  endfacet
  facet normal 0.994522 -0.104529 0
    outer loop
      vertex -16.1394 3.43054 0
      vertex -16.1394 3.43054 8
      vertex -16.5 0 0
    endloop
  endfacet
  facet normal 0.994522 -0.104529 0
    outer loop
      vertex -16.5 0 8
      vertex -16.5 0 0
      vertex -16.1394 3.43054 8
    endloop
  endfacet
  facet normal 0.951055 -0.309021 0
    outer loop
      vertex -15.0735 6.71115 0
      vertex -15.0735 6.71115 8
      vertex -16.1394 3.43054 0
    endloop
  endfacet
  facet normal 0.951055 -0.309021 0
    outer loop
      vertex -16.1394 3.43054 8
      vertex -16.1394 3.43054 0
      vertex -15.0735 6.71115 8
    endloop
  endfacet
  facet normal 0.866026 -0.499999 0
    outer loop
      vertex -13.3488 9.69846 0
      vertex -13.3488 9.69846 8
      vertex -15.0735 6.71115 0
    endloop
  endfacet
  facet normal 0.866026 -0.499999 0
    outer loop
      vertex -15.0735 6.71115 8
      vertex -15.0735 6.71115 0
      vertex -13.3488 9.69846 8
    endloop
  endfacet
  facet normal 0.743145 -0.66913 0
    outer loop
      vertex -11.0406 12.2619 0
      vertex -11.0406 12.2619 8
      vertex -13.3488 9.69846 0
    endloop
  endfacet
  facet normal 0.743145 -0.66913 0
    outer loop
      vertex -13.3488 9.69846 8
      vertex -13.3488 9.69846 0
      vertex -11.0406 12.2619 8
    endloop
  endfacet
  facet normal 0.587783 -0.809018 0
    outer loop
      vertex -8.24998 14.2894 0
      vertex -8.24998 14.2894 8
      vertex -11.0406 12.2619 0
    endloop
  endfacet
  facet normal 0.587783 -0.809018 0
    outer loop
      vertex -11.0406 12.2619 8
      vertex -11.0406 12.2619 0
      vertex -8.24998 14.2894 8
    endloop
  endfacet
  facet normal 0.406738 -0.913545 0
    outer loop
      vertex -5.09877 15.6924 0
      vertex -5.09877 15.6924 8
      vertex -8.24998 14.2894 0
    endloop
  endfacet
  facet normal 0.406738 -0.913545 0
    outer loop
      vertex -8.24998 14.2894 8
      vertex -8.24998 14.2894 0
      vertex -5.09877 15.6924 8
    endloop
  endfacet
  facet normal 0.207912 -0.978148 0
    outer loop
      vertex -1.72472 16.4096 0
      vertex -1.72472 16.4096 8
      vertex -5.09877 15.6924 0
    endloop
  endfacet
  facet normal 0.207912 -0.978148 0
    outer loop
      vertex -5.09877 15.6924 8
      vertex -5.09877 15.6924 0
      vertex -1.72472 16.4096 8
    endloop
  endfacet
  facet normal 0 -1 0
    outer loop
      vertex 1.72472 16.4096 0
      vertex 1.72472 16.4096 8
      vertex -1.72472 16.4096 0
    endloop
  endfacet
  facet normal 0 -1 0
    outer loop
      vertex -1.72472 16.4096 8
      vertex -1.72472 16.4096 0
      vertex 1.72472 16.4096 8
    endloop
  endfacet
  facet normal -0.207912 -0.978148 0
    outer loop
      vertex 5.09877 15.6924 0
      vertex 5.09877 15.6924 8
      vertex 1.72472 16.4096 0
    endloop
  endfacet
  facet normal -0.207912 -0.978148 -0
    outer loop
      vertex 1.72472 16.4096 8
      vertex 1.72472 16.4096 0
      vertex 5.09877 15.6924 8
    endloop
  endfacet
  facet normal -0.406736 -0.913546 0
    outer loop
      vertex 8.25 14.2894 0
      vertex 8.25 14.2894 8
      vertex 5.09877 15.6924 0
    endloop
  endfacet
  facet normal -0.406736 -0.913546 -0
    outer loop
      vertex 5.09877 15.6924 8
      vertex 5.09877 15.6924 0
      vertex 8.25 14.2894 8
    endloop
  endfacet
  facet normal -0.587786 -0.809017 0
    outer loop
      vertex 11.0406 12.2619 0
      vertex 11.0406 12.2619 8
      vertex 8.25 14.2894 0
    endloop
  endfacet
  facet normal -0.587786 -0.809017 -0
    outer loop
      vertex 8.25 14.2894 8
      vertex 8.25 14.2894 0
      vertex 11.0406 12.2619 8
    endloop
  endfacet
  facet normal -0.743145 -0.66913 0
    outer loop
      vertex 13.3488 9.69846 0
      vertex 13.3488 9.69846 8
      vertex 11.0406 12.2619 0
    endloop
  endfacet
  facet normal -0.743145 -0.66913 -0
    outer loop
      vertex 11.0406 12.2619 8
      vertex 11.0406 12.2619 0
      vertex 13.3488 9.69846 8
    endloop
  endfacet
  facet normal -0.866026 -0.499999 0
    outer loop
      vertex 15.0735 6.71115 0
      vertex 15.0735 6.71115 8
      vertex 13.3488 9.69846 0
    endloop
  endfacet
  facet normal -0.866026 -0.499999 -0
    outer loop
      vertex 13.3488 9.69846 8
      vertex 13.3488 9.69846 0
      vertex 15.0735 6.71115 8
    endloop
  endfacet
  facet normal -0.951055 -0.309021 0
    outer loop
      vertex 16.1394 3.43054 0
      vertex 16.1394 3.43054 8
      vertex 15.0735 6.71115 0
    endloop
  endfacet
  facet normal -0.951055 -0.309021 -0
    outer loop
      vertex 15.0735 6.71115 8
      vertex 15.0735 6.71115 0
      vertex 16.1394 3.43054 8
    endloop
  endfacet
  facet normal -0.994522 -0.104529 0
    outer loop
      vertex 16.5 0 0
      vertex 16.5 0 8
      vertex 16.1394 3.43054 0
    endloop
  endfacet
  facet normal -0.994522 -0.104529 -0
    outer loop
      vertex 16.1394 3.43054 8
      vertex 16.1394 3.43054 0
      vertex 16.5 0 8
    endloop
  endfacet
  facet normal -0.994522 0.104529 0
    outer loop
      vertex 16.1394 -3.43054 0
      vertex 16.1394 -3.43054 8
      vertex 16.5 0 0
    endloop
  endfacet
  facet normal -0.994522 0.104529 0
    outer loop
      vertex 16.5 0 8
      vertex 16.5 0 0
      vertex 16.1394 -3.43054 8
    endloop
  endfacet
  facet normal -0.951055 0.309021 0
    outer loop
      vertex 15.0735 -6.71115 0
      vertex 15.0735 -6.71115 8
      vertex 16.1394 -3.43054 0
    endloop
  endfacet
  facet normal -0.951055 0.309021 0
    outer loop
      vertex 16.1394 -3.43054 8
      vertex 16.1394 -3.43054 0
      vertex 15.0735 -6.71115 8
    endloop
  endfacet
  facet normal -0.866026 0.499999 0
    outer loop
      vertex 13.3488 -9.69846 0
      vertex 13.3488 -9.69846 8
      vertex 15.0735 -6.71115 0
    endloop
  endfacet
  facet normal -0.866026 0.499999 0
    outer loop
      vertex 15.0735 -6.71115 8
      vertex 15.0735 -6.71115 0
      vertex 13.3488 -9.69846 8
    endloop
  endfacet
  facet normal -0.743145 0.66913 0
    outer loop
      vertex 11.0406 -12.2619 0
      vertex 11.0406 -12.2619 8
      vertex 13.3488 -9.69846 0
    endloop
  endfacet
  facet normal -0.743145 0.66913 0
    outer loop
      vertex 13.3488 -9.69846 8
      vertex 13.3488 -9.69846 0
      vertex 11.0406 -12.2619 8
    endloop
  endfacet
  facet normal -0.587786 0.809017 0
    outer loop
      vertex 8.25 -14.2894 0
      vertex 8.25 -14.2894 8
      vertex 11.0406 -12.2619 0
    endloop
  endfacet
  facet normal -0.587786 0.809017 0
    outer loop
      vertex 11.0406 -12.2619 8
      vertex 11.0406 -12.2619 0
      vertex 8.25 -14.2894 8
    endloop
  endfacet
  facet normal -0.406736 0.913546 0
    outer loop
      vertex 5.09877 -15.6924 0
      vertex 5.09877 -15.6924 8
      vertex 8.25 -14.2894 0
    endloop
  endfacet
  facet normal -0.406736 0.913546 0
    outer loop
      vertex 8.25 -14.2894 8
      vertex 8.25 -14.2894 0
      vertex 5.09877 -15.6924 8
    endloop
  endfacet
  facet normal -0.207912 0.978148 0
    outer loop
      vertex 1.72472 -16.4096 0
      vertex 1.72472 -16.4096 8
      vertex 5.09877 -15.6924 0
    endloop
  endfacet
  facet normal -0.207912 0.978148 0
    outer loop
      vertex 5.09877 -15.6924 8
      vertex 5.09877 -15.6924 0
      vertex 1.72472 -16.4096 8
    endloop
  endfacet
  facet normal 0 1 0
    outer loop
      vertex -1.72472 -16.4096 0
      vertex -1.72472 -16.4096 8
      vertex 1.72472 -16.4096 0
    endloop
  endfacet
  facet normal 0 1 0
    outer loop
      vertex 1.72472 -16.4096 8
      vertex 1.72472 -16.4096 0
      vertex -1.72472 -16.4096 8
    endloop
  endfacet
endsolid OpenSCAD_Model
