solid OpenSCAD_Model
  facet normal -1 0 0
    outer loop
      vertex -68.9 58.9 -2.5
      vertex -68.9 30 2.5
      vertex -68.9 58.9 2.5
    endloop
  endfacet
  facet normal -1 0 0
    outer loop
      vertex -68.9 15 52.5
      vertex -68.9 20 12.5
      vertex -68.9 15 2.5
    endloop
  endfacet
  facet normal -1 0 0
    outer loop
      vertex -68.9 30 2.5
      vertex -68.9 15 2.5
      vertex -68.9 20 12.5
    endloop
  endfacet
  facet normal -1 0 0
    outer loop
      vertex -68.9 58.9 -2.5
      vertex -68.9 15 2.5
      vertex -68.9 30 2.5
    endloop
  endfacet
  facet normal -1 0 0
    outer loop
      vertex -68.9 58.9 -2.5
      vertex -68.9 -15 2.5
      vertex -68.9 15 2.5
    endloop
  endfacet
  facet normal -1 0 0
    outer loop
      vertex -68.9 -15 2.5
      vertex -68.9 -20 12.5
      vertex -68.9 -15 52.5
    endloop
  endfacet
  facet normal -1 0 0
    outer loop
      vertex -68.9 -15 2.5
      vertex -68.9 -30 2.5
      vertex -68.9 -20 12.5
    endloop
  endfacet
  facet normal -1 0 0
    outer loop
      vertex -68.9 -58.9 -2.5
      vertex -68.9 -15 2.5
      vertex -68.9 58.9 -2.5
    endloop
  endfacet
  facet normal -1 -0 0
    outer loop
      vertex -68.9 -15 2.5
      vertex -68.9 -58.9 -2.5
      vertex -68.9 -30 2.5
    endloop
  endfacet
  facet normal -1 -0 0
    outer loop
      vertex -68.9 -30 2.5
      vertex -68.9 -58.9 -2.5
      vertex -68.9 -58.9 2.5
    endloop
  endfacet
  facet normal -1 0 0
    outer loop
      vertex -68.9 20 12.5
      vertex -68.9 15 52.5
      vertex -68.9 20 52.5
    endloop
  endfacet
  facet normal -1 -0 0
    outer loop
      vertex -68.9 -15 52.5
      vertex -68.9 -20 12.5
      vertex -68.9 -20 52.5
    endloop
  endfacet
  facet normal -0 0 1
    outer loop
      vertex 30 -30 2.5
      vertex 68.9 -58.9 2.5
      vertex 68.9 -30 2.5
    endloop
  endfacet
  facet normal 0 0 1
    outer loop
      vertex 68.9 -58.9 2.5
      vertex 30 -30 2.5
      vertex 30 -58.9 2.5
    endloop
  endfacet
  facet normal -0 0 1
    outer loop
      vertex -68.9 -30 2.5
      vertex -30 -58.9 2.5
      vertex -30 -30 2.5
    endloop
  endfacet
  facet normal 0 0 1
    outer loop
      vertex -30 -58.9 2.5
      vertex -68.9 -30 2.5
      vertex -68.9 -58.9 2.5
    endloop
  endfacet
  facet normal -0 0 1
    outer loop
      vertex 30 58.9 2.5
      vertex 68.9 30 2.5
      vertex 68.9 58.9 2.5
    endloop
  endfacet
  facet normal 0 0 1
    outer loop
      vertex 68.9 30 2.5
      vertex 30 58.9 2.5
      vertex 30 30 2.5
    endloop
  endfacet
  facet normal -0 0 1
    outer loop
      vertex -68.9 58.9 2.5
      vertex -30 30 2.5
      vertex -30 58.9 2.5
    endloop
  endfacet
  facet normal 0 0 1
    outer loop
      vertex -30 30 2.5
      vertex -68.9 58.9 2.5
      vertex -68.9 30 2.5
    endloop
  endfacet
  facet normal -0 0 1
    outer loop
      vertex -68.9 15 2.5
      vertex -33.95 -15 2.5
      vertex -33.95 15 2.5
    endloop
  endfacet
  facet normal 0 0 1
    outer loop
      vertex -33.95 -15 2.5
      vertex -68.9 15 2.5
      vertex -68.9 -15 2.5
    endloop
  endfacet
  facet normal -0 0 1
    outer loop
      vertex 33.95 15 2.5
      vertex 68.9 -15 2.5
      vertex 68.9 15 2.5
    endloop
  endfacet
  facet normal 0 0 1
    outer loop
      vertex 68.9 -15 2.5
      vertex 33.95 15 2.5
      vertex 33.95 -15 2.5
    endloop
  endfacet
  facet normal 0 0 -1
    outer loop
      vertex -33.95 -23.95 2.5
      vertex -30 -15 2.5
      vertex -30 -23.95 2.5
    endloop
  endfacet
  facet normal -0 0 -1
    outer loop
      vertex -30 -15 2.5
      vertex -33.95 -23.95 2.5
      vertex -33.95 -15 2.5
    endloop
  endfacet
  facet normal 0 0 -1
    outer loop
      vertex 30 -23.95 2.5
      vertex 33.95 -15 2.5
      vertex 33.95 -23.95 2.5
    endloop
  endfacet
  facet normal -0 0 -1
    outer loop
      vertex 33.95 -15 2.5
      vertex 30 -23.95 2.5
      vertex 30 -15 2.5
    endloop
  endfacet
  facet normal 0 0 -1
    outer loop
      vertex 30 15 2.5
      vertex 33.95 23.95 2.5
      vertex 33.95 15 2.5
    endloop
  endfacet
  facet normal -0 0 -1
    outer loop
      vertex 33.95 23.95 2.5
      vertex 30 15 2.5
      vertex 30 23.95 2.5
    endloop
  endfacet
  facet normal 0 0 -1
    outer loop
      vertex -33.95 15 2.5
      vertex -30 23.95 2.5
      vertex -30 15 2.5
    endloop
  endfacet
  facet normal -0 0 -1
    outer loop
      vertex -30 23.95 2.5
      vertex -33.95 15 2.5
      vertex -33.95 23.95 2.5
    endloop
  endfacet
  facet normal 0 0 1
    outer loop
      vertex -30 30 2.5
      vertex 30 30 2.5
      vertex 30 58.9 2.5
    endloop
  endfacet
  facet normal 0 0 1
    outer loop
      vertex -30 30 2.5
      vertex 30 58.9 2.5
      vertex -30 58.9 2.5
    endloop
  endfacet
  facet normal 0 0 1
    outer loop
      vertex 30 30 2.5
      vertex -30 30 2.5
      vertex 30 23.95 2.5
    endloop
  endfacet
  facet normal 0 0 1
    outer loop
      vertex 30 23.95 2.5
      vertex -30 30 2.5
      vertex -30 23.95 2.5
    endloop
  endfacet
  facet normal 0 0 1
    outer loop
      vertex -30 -30 2.5
      vertex 30 -30 2.5
      vertex 30 -23.95 2.5
    endloop
  endfacet
  facet normal 0 0 1
    outer loop
      vertex -30 -30 2.5
      vertex 30 -23.95 2.5
      vertex -30 -23.95 2.5
    endloop
  endfacet
  facet normal 0 0 1
    outer loop
      vertex 30 -30 2.5
      vertex -30 -30 2.5
      vertex 30 -58.9 2.5
    endloop
  endfacet
  facet normal 0 0 1
    outer loop
      vertex 30 -58.9 2.5
      vertex -30 -30 2.5
      vertex -30 -58.9 2.5
    endloop
  endfacet
  facet normal 1 0 0
    outer loop
      vertex 68.9 -20 12.5
      vertex 68.9 -15 52.5
      vertex 68.9 -20 52.5
    endloop
  endfacet
  facet normal 1 0 0
    outer loop
      vertex 68.9 20 52.5
      vertex 68.9 15 52.5
      vertex 68.9 20 12.5
    endloop
  endfacet
  facet normal 1 -0 0
    outer loop
      vertex 68.9 30 2.5
      vertex 68.9 58.9 -2.5
      vertex 68.9 58.9 2.5
    endloop
  endfacet
  facet normal 1 0 0
    outer loop
      vertex 68.9 15 2.5
      vertex 68.9 20 12.5
      vertex 68.9 15 52.5
    endloop
  endfacet
  facet normal 1 0 0
    outer loop
      vertex 68.9 15 2.5
      vertex 68.9 30 2.5
      vertex 68.9 20 12.5
    endloop
  endfacet
  facet normal 1 -0 0
    outer loop
      vertex 68.9 15 2.5
      vertex 68.9 58.9 -2.5
      vertex 68.9 30 2.5
    endloop
  endfacet
  facet normal 1 -0 0
    outer loop
      vertex 68.9 -15 2.5
      vertex 68.9 58.9 -2.5
      vertex 68.9 15 2.5
    endloop
  endfacet
  facet normal 1 0 0
    outer loop
      vertex 68.9 -15 52.5
      vertex 68.9 -20 12.5
      vertex 68.9 -15 2.5
    endloop
  endfacet
  facet normal 1 0 0
    outer loop
      vertex 68.9 -30 2.5
      vertex 68.9 -15 2.5
      vertex 68.9 -20 12.5
    endloop
  endfacet
  facet normal 1 0 0
    outer loop
      vertex 68.9 -58.9 -2.5
      vertex 68.9 -15 2.5
      vertex 68.9 -30 2.5
    endloop
  endfacet
  facet normal 1 0 0
    outer loop
      vertex 68.9 -58.9 -2.5
      vertex 68.9 -30 2.5
      vertex 68.9 -58.9 2.5
    endloop
  endfacet
  facet normal 1 0 0
    outer loop
      vertex 68.9 -15 2.5
      vertex 68.9 -58.9 -2.5
      vertex 68.9 58.9 -2.5
    endloop
  endfacet
  facet normal 0 0 -1
    outer loop
      vertex 68.9 -58.9 -2.5
      vertex 33.95 -23.95 -2.5
      vertex 68.9 58.9 -2.5
    endloop
  endfacet
  facet normal 0 0 -1
    outer loop
      vertex 68.9 -58.9 -2.5
      vertex -33.95 -23.95 -2.5
      vertex 33.95 -23.95 -2.5
    endloop
  endfacet
  facet normal -0 0 -1
    outer loop
      vertex -33.95 -23.95 -2.5
      vertex -68.9 -58.9 -2.5
      vertex -33.95 23.95 -2.5
    endloop
  endfacet
  facet normal 0 0 -1
    outer loop
      vertex -68.9 -58.9 -2.5
      vertex -33.95 -23.95 -2.5
      vertex 68.9 -58.9 -2.5
    endloop
  endfacet
  facet normal 0 0 -1
    outer loop
      vertex 33.95 23.95 -2.5
      vertex 68.9 58.9 -2.5
      vertex 33.95 -23.95 -2.5
    endloop
  endfacet
  facet normal 0 0 -1
    outer loop
      vertex -33.95 23.95 -2.5
      vertex 68.9 58.9 -2.5
      vertex 33.95 23.95 -2.5
    endloop
  endfacet
  facet normal 0 0 -1
    outer loop
      vertex -33.95 23.95 -2.5
      vertex -68.9 58.9 -2.5
      vertex 68.9 58.9 -2.5
    endloop
  endfacet
  facet normal 0 0 -1
    outer loop
      vertex -68.9 58.9 -2.5
      vertex -33.95 23.95 -2.5
      vertex -68.9 -58.9 -2.5
    endloop
  endfacet
  facet normal 0 -1 0
    outer loop
      vertex -68.9 -58.9 -2.5
      vertex -30 -58.9 2.5
      vertex -68.9 -58.9 2.5
    endloop
  endfacet
  facet normal 0 -1 -0
    outer loop
      vertex -30 -58.9 2.5
      vertex -68.9 -58.9 -2.5
      vertex 30 -58.9 2.5
    endloop
  endfacet
  facet normal 0 -1 0
    outer loop
      vertex 68.9 -58.9 -2.5
      vertex 30 -58.9 2.5
      vertex -68.9 -58.9 -2.5
    endloop
  endfacet
  facet normal 0 -1 0
    outer loop
      vertex 30 -58.9 2.5
      vertex 68.9 -58.9 -2.5
      vertex 68.9 -58.9 2.5
    endloop
  endfacet
  facet normal 0 1 -0
    outer loop
      vertex 68.9 58.9 -2.5
      vertex 30 58.9 2.5
      vertex 68.9 58.9 2.5
    endloop
  endfacet
  facet normal 0 1 0
    outer loop
      vertex 30 58.9 2.5
      vertex 68.9 58.9 -2.5
      vertex -30 58.9 2.5
    endloop
  endfacet
  facet normal 0 1 0
    outer loop
      vertex -68.9 58.9 -2.5
      vertex -30 58.9 2.5
      vertex 68.9 58.9 -2.5
    endloop
  endfacet
  facet normal 0 1 0
    outer loop
      vertex -30 58.9 2.5
      vertex -68.9 58.9 -2.5
      vertex -68.9 58.9 2.5
    endloop
  endfacet
  facet normal -0 0 1
    outer loop
      vertex -68.9 20 52.5
      vertex 68.9 15 52.5
      vertex 68.9 20 52.5
    endloop
  endfacet
  facet normal 0 0 1
    outer loop
      vertex 68.9 15 52.5
      vertex -68.9 20 52.5
      vertex -68.9 15 52.5
    endloop
  endfacet
  facet normal 0 1 0
    outer loop
      vertex 68.9 20 52.5
      vertex 30 20 37.5
      vertex -68.9 20 52.5
    endloop
  endfacet
  facet normal 0 1 -0
    outer loop
      vertex 68.9 20 12.5
      vertex 30 20 37.5
      vertex 68.9 20 52.5
    endloop
  endfacet
  facet normal 0 1 0
    outer loop
      vertex 30 20 37.5
      vertex 68.9 20 12.5
      vertex 30 20 12.5
    endloop
  endfacet
  facet normal 0 1 -0
    outer loop
      vertex -30 20 37.5
      vertex -68.9 20 52.5
      vertex 30 20 37.5
    endloop
  endfacet
  facet normal 0 1 0
    outer loop
      vertex -68.9 20 12.5
      vertex -30 20 37.5
      vertex -30 20 12.5
    endloop
  endfacet
  facet normal 0 1 0
    outer loop
      vertex -30 20 37.5
      vertex -68.9 20 12.5
      vertex -68.9 20 52.5
    endloop
  endfacet
  facet normal 0 -1 0
    outer loop
      vertex -68.9 15 52.5
      vertex -30 15 37.5
      vertex 68.9 15 52.5
    endloop
  endfacet
  facet normal 0 -1 0
    outer loop
      vertex -68.9 15 2.5
      vertex -30 15 37.5
      vertex -68.9 15 52.5
    endloop
  endfacet
  facet normal 0 -1 0
    outer loop
      vertex -33.95 15 2.5
      vertex -30 15 37.5
      vertex -68.9 15 2.5
    endloop
  endfacet
  facet normal 0 -1 -0
    outer loop
      vertex -30 15 37.5
      vertex -33.95 15 2.5
      vertex -30 15 2.5
    endloop
  endfacet
  facet normal 0 -1 0
    outer loop
      vertex 30 15 37.5
      vertex 68.9 15 52.5
      vertex -30 15 37.5
    endloop
  endfacet
  facet normal 0 -1 0
    outer loop
      vertex 33.95 15 2.5
      vertex 30 15 37.5
      vertex 30 15 2.5
    endloop
  endfacet
  facet normal 0 -1 0
    outer loop
      vertex 68.9 15 2.5
      vertex 30 15 37.5
      vertex 33.95 15 2.5
    endloop
  endfacet
  facet normal 0 -1 0
    outer loop
      vertex 30 15 37.5
      vertex 68.9 15 2.5
      vertex 68.9 15 52.5
    endloop
  endfacet
  facet normal -0 0 1
    outer loop
      vertex -68.9 -15 52.5
      vertex 68.9 -20 52.5
      vertex 68.9 -15 52.5
    endloop
  endfacet
  facet normal 0 0 1
    outer loop
      vertex 68.9 -20 52.5
      vertex -68.9 -15 52.5
      vertex -68.9 -20 52.5
    endloop
  endfacet
  facet normal 0 1 0
    outer loop
      vertex 68.9 -15 52.5
      vertex 30 -15 37.5
      vertex -68.9 -15 52.5
    endloop
  endfacet
  facet normal 0 1 -0
    outer loop
      vertex 68.9 -15 2.5
      vertex 30 -15 37.5
      vertex 68.9 -15 52.5
    endloop
  endfacet
  facet normal 0 1 -0
    outer loop
      vertex 33.95 -15 2.5
      vertex 30 -15 37.5
      vertex 68.9 -15 2.5
    endloop
  endfacet
  facet normal 0 1 0
    outer loop
      vertex 30 -15 37.5
      vertex 33.95 -15 2.5
      vertex 30 -15 2.5
    endloop
  endfacet
  facet normal 0 1 -0
    outer loop
      vertex -30 -15 37.5
      vertex -68.9 -15 52.5
      vertex 30 -15 37.5
    endloop
  endfacet
  facet normal 0 1 0
    outer loop
      vertex -33.95 -15 2.5
      vertex -30 -15 37.5
      vertex -30 -15 2.5
    endloop
  endfacet
  facet normal 0 1 0
    outer loop
      vertex -68.9 -15 2.5
      vertex -30 -15 37.5
      vertex -33.95 -15 2.5
    endloop
  endfacet
  facet normal 0 1 0
    outer loop
      vertex -30 -15 37.5
      vertex -68.9 -15 2.5
      vertex -68.9 -15 52.5
    endloop
  endfacet
  facet normal 0 -1 0
    outer loop
      vertex -68.9 -20 52.5
      vertex -30 -20 37.5
      vertex 68.9 -20 52.5
    endloop
  endfacet
  facet normal 0 -1 0
    outer loop
      vertex -68.9 -20 12.5
      vertex -30 -20 37.5
      vertex -68.9 -20 52.5
    endloop
  endfacet
  facet normal 0 -1 -0
    outer loop
      vertex -30 -20 37.5
      vertex -68.9 -20 12.5
      vertex -30 -20 12.5
    endloop
  endfacet
  facet normal 0 -1 0
    outer loop
      vertex 30 -20 37.5
      vertex 68.9 -20 52.5
      vertex -30 -20 37.5
    endloop
  endfacet
  facet normal 0 -1 0
    outer loop
      vertex 68.9 -20 12.5
      vertex 30 -20 37.5
      vertex 30 -20 12.5
    endloop
  endfacet
  facet normal 0 -1 0
    outer loop
      vertex 30 -20 37.5
      vertex 68.9 -20 12.5
      vertex 68.9 -20 52.5
    endloop
  endfacet
  facet normal 0 0.707107 0.707107
    outer loop
      vertex 68.9 30 2.5
      vertex 30 20 12.5
      vertex 68.9 20 12.5
    endloop
  endfacet
  facet normal 0 0.707107 0.707107
    outer loop
      vertex 30 20 12.5
      vertex 68.9 30 2.5
      vertex 30 30 2.5
    endloop
  endfacet
  facet normal 0 0.707107 0.707107
    outer loop
      vertex -30 30 2.5
      vertex -68.9 20 12.5
      vertex -30 20 12.5
    endloop
  endfacet
  facet normal 0 0.707107 0.707107
    outer loop
      vertex -68.9 20 12.5
      vertex -30 30 2.5
      vertex -68.9 30 2.5
    endloop
  endfacet
  facet normal 0 -0.707107 0.707107
    outer loop
      vertex 30 -30 2.5
      vertex 68.9 -20 12.5
      vertex 30 -20 12.5
    endloop
  endfacet
  facet normal 0 -0.707107 0.707107
    outer loop
      vertex 68.9 -20 12.5
      vertex 30 -30 2.5
      vertex 68.9 -30 2.5
    endloop
  endfacet
  facet normal 0 -0.707107 0.707107
    outer loop
      vertex -68.9 -30 2.5
      vertex -30 -20 12.5
      vertex -68.9 -20 12.5
    endloop
  endfacet
  facet normal 0 -0.707107 0.707107
    outer loop
      vertex -30 -20 12.5
      vertex -68.9 -30 2.5
      vertex -30 -30 2.5
    endloop
  endfacet
  facet normal 1 -0 0
    outer loop
      vertex -33.95 15 2.5
      vertex -33.95 23.95 -2.5
      vertex -33.95 23.95 2.5
    endloop
  endfacet
  facet normal 1 -0 0
    outer loop
      vertex -33.95 -15 2.5
      vertex -33.95 23.95 -2.5
      vertex -33.95 15 2.5
    endloop
  endfacet
  facet normal 1 0 0
    outer loop
      vertex -33.95 -23.95 -2.5
      vertex -33.95 -15 2.5
      vertex -33.95 -23.95 2.5
    endloop
  endfacet
  facet normal 1 0 0
    outer loop
      vertex -33.95 -15 2.5
      vertex -33.95 -23.95 -2.5
      vertex -33.95 23.95 -2.5
    endloop
  endfacet
  facet normal -1 0 0
    outer loop
      vertex 33.95 23.95 -2.5
      vertex 33.95 15 2.5
      vertex 33.95 23.95 2.5
    endloop
  endfacet
  facet normal -1 0 0
    outer loop
      vertex 33.95 23.95 -2.5
      vertex 33.95 -15 2.5
      vertex 33.95 15 2.5
    endloop
  endfacet
  facet normal -1 0 0
    outer loop
      vertex 33.95 -23.95 -2.5
      vertex 33.95 -15 2.5
      vertex 33.95 23.95 -2.5
    endloop
  endfacet
  facet normal -1 -0 0
    outer loop
      vertex 33.95 -15 2.5
      vertex 33.95 -23.95 -2.5
      vertex 33.95 -23.95 2.5
    endloop
  endfacet
  facet normal 0 1 -0
    outer loop
      vertex 33.95 -23.95 -2.5
      vertex 30 -23.95 2.5
      vertex 33.95 -23.95 2.5
    endloop
  endfacet
  facet normal 0 1 0
    outer loop
      vertex 30 -23.95 2.5
      vertex 33.95 -23.95 -2.5
      vertex -30 -23.95 2.5
    endloop
  endfacet
  facet normal 0 1 0
    outer loop
      vertex -33.95 -23.95 -2.5
      vertex -30 -23.95 2.5
      vertex 33.95 -23.95 -2.5
    endloop
  endfacet
  facet normal 0 1 0
    outer loop
      vertex -30 -23.95 2.5
      vertex -33.95 -23.95 -2.5
      vertex -33.95 -23.95 2.5
    endloop
  endfacet
  facet normal 0 -1 0
    outer loop
      vertex -33.95 23.95 -2.5
      vertex -30 23.95 2.5
      vertex -33.95 23.95 2.5
    endloop
  endfacet
  facet normal 0 -1 -0
    outer loop
      vertex -30 23.95 2.5
      vertex -33.95 23.95 -2.5
      vertex 30 23.95 2.5
    endloop
  endfacet
  facet normal 0 -1 0
    outer loop
      vertex 33.95 23.95 -2.5
      vertex 30 23.95 2.5
      vertex -33.95 23.95 -2.5
    endloop
  endfacet
  facet normal 0 -1 0
    outer loop
      vertex 30 23.95 2.5
      vertex 33.95 23.95 -2.5
      vertex 33.95 23.95 2.5
    endloop
  endfacet
  facet normal 1 0 0
    outer loop
      vertex -30 -20 12.5
      vertex -30 -15 37.5
      vertex -30 -20 37.5
    endloop
  endfacet
  facet normal 1 0 0
    outer loop
      vertex -30 -15 37.5
      vertex -30 -20 12.5
      vertex -30 -15 2.5
    endloop
  endfacet
  facet normal 1 0 0
    outer loop
      vertex -30 -20 12.5
      vertex -30 -23.95 2.5
      vertex -30 -15 2.5
    endloop
  endfacet
  facet normal 1 0 -0
    outer loop
      vertex -30 -23.95 2.5
      vertex -30 -20 12.5
      vertex -30 -30 2.5
    endloop
  endfacet
  facet normal 1 0 0
    outer loop
      vertex -30 20 37.5
      vertex -30 15 37.5
      vertex -30 20 12.5
    endloop
  endfacet
  facet normal 1 0 0
    outer loop
      vertex -30 20 12.5
      vertex -30 23.95 2.5
      vertex -30 30 2.5
    endloop
  endfacet
  facet normal 1 0 0
    outer loop
      vertex -30 20 12.5
      vertex -30 15 2.5
      vertex -30 23.95 2.5
    endloop
  endfacet
  facet normal 1 0 0
    outer loop
      vertex -30 15 2.5
      vertex -30 20 12.5
      vertex -30 15 37.5
    endloop
  endfacet
  facet normal 0 0 -1
    outer loop
      vertex -30 15 37.5
      vertex 30 20 37.5
      vertex 30 15 37.5
    endloop
  endfacet
  facet normal -0 0 -1
    outer loop
      vertex 30 20 37.5
      vertex -30 15 37.5
      vertex -30 20 37.5
    endloop
  endfacet
  facet normal 0 0 -1
    outer loop
      vertex -30 -20 37.5
      vertex 30 -15 37.5
      vertex 30 -20 37.5
    endloop
  endfacet
  facet normal -0 0 -1
    outer loop
      vertex 30 -15 37.5
      vertex -30 -20 37.5
      vertex -30 -15 37.5
    endloop
  endfacet
  facet normal -1 0 0
    outer loop
      vertex 30 -15 2.5
      vertex 30 -20 12.5
      vertex 30 -15 37.5
    endloop
  endfacet
  facet normal -1 0 0
    outer loop
      vertex 30 -23.95 2.5
      vertex 30 -20 12.5
      vertex 30 -15 2.5
    endloop
  endfacet
  facet normal -1 0 0
    outer loop
      vertex 30 -20 12.5
      vertex 30 -23.95 2.5
      vertex 30 -30 2.5
    endloop
  endfacet
  facet normal -1 -0 0
    outer loop
      vertex 30 -15 37.5
      vertex 30 -20 12.5
      vertex 30 -20 37.5
    endloop
  endfacet
  facet normal -1 0 0
    outer loop
      vertex 30 23.95 2.5
      vertex 30 20 12.5
      vertex 30 30 2.5
    endloop
  endfacet
  facet normal -1 0 0
    outer loop
      vertex 30 15 2.5
      vertex 30 20 12.5
      vertex 30 23.95 2.5
    endloop
  endfacet
  facet normal -1 0 0
    outer loop
      vertex 30 15 37.5
      vertex 30 20 12.5
      vertex 30 15 2.5
    endloop
  endfacet
  facet normal -1 0 0
    outer loop
      vertex 30 20 12.5
      vertex 30 15 37.5
      vertex 30 20 37.5
    endloop
  endfacet
endsolid OpenSCAD_Model
