solid OpenSCAD_Model
  facet normal 0 0 -1
    outer loop
      vertex 70 70 0
      vertex 74.3934 85 0
      vertex 85 74.3934 0
    endloop
  endfacet
  facet normal 0 0 -1
    outer loop
      vertex 85 -74.3934 0
      vertex 95.6066 -85 0
      vertex 85 -95.6066 0
    endloop
  endfacet
  facet normal -0 0 -1
    outer loop
      vertex 70 -70 0
      vertex -74.3934 -85 0
      vertex -70 -70 0
    endloop
  endfacet
  facet normal 0 0 -1
    outer loop
      vertex 85 74.3934 0
      vertex 85 95.6066 0
      vertex 95.6066 85 0
    endloop
  endfacet
  facet normal 0 0 -1
    outer loop
      vertex 85 74.3934 0
      vertex 74.3934 85 0
      vertex 85 95.6066 0
    endloop
  endfacet
  facet normal 0 0 -1
    outer loop
      vertex -74.3934 -85 0
      vertex -85 -74.3934 0
      vertex -70 -70 0
    endloop
  endfacet
  facet normal 0 0 -1
    outer loop
      vertex -95.6066 85 0
      vertex -85 95.6066 0
      vertex -85 74.3934 0
    endloop
  endfacet
  facet normal 0 -0 -1
    outer loop
      vertex 70 -70 0
      vertex 74.3934 -85 0
      vertex -74.3934 -85 0
    endloop
  endfacet
  facet normal 0 0 -1
    outer loop
      vertex -85 74.3934 0
      vertex -85 95.6066 0
      vertex -74.3934 85 0
    endloop
  endfacet
  facet normal 0 0 -1
    outer loop
      vertex -74.3934 85 0
      vertex 70 70 0
      vertex -70 70 0
    endloop
  endfacet
  facet normal 0 0 -1
    outer loop
      vertex -85 -95.6066 0
      vertex -95.6066 -85 0
      vertex -85 -74.3934 0
    endloop
  endfacet
  facet normal -0 0 -1
    outer loop
      vertex -74.3934 -85 0
      vertex -85 -95.6066 0
      vertex -85 -74.3934 0
    endloop
  endfacet
  facet normal 0 0 -1
    outer loop
      vertex 85 -95.6066 0
      vertex 74.3934 -85 0
      vertex 85 -74.3934 0
    endloop
  endfacet
  facet normal 0 0 -1
    outer loop
      vertex 70 70 0
      vertex 85 74.3934 0
      vertex 85 -74.3934 0
    endloop
  endfacet
  facet normal -0 -0 -1
    outer loop
      vertex -70 70 0
      vertex -70 -70 0
      vertex -85 74.3934 0
    endloop
  endfacet
  facet normal 0 0 -1
    outer loop
      vertex 70 -70 0
      vertex 85 -74.3934 0
      vertex 74.3934 -85 0
    endloop
  endfacet
  facet normal -0 0 -1
    outer loop
      vertex -70 -70 0
      vertex -85 -74.3934 0
      vertex -85 74.3934 0
    endloop
  endfacet
  facet normal 0 0 -1
    outer loop
      vertex -70 70 0
      vertex -85 74.3934 0
      vertex -74.3934 85 0
    endloop
  endfacet
  facet normal 0 0 -1
    outer loop
      vertex 70 -70 0
      vertex 70 70 0
      vertex 85 -74.3934 0
    endloop
  endfacet
  facet normal 0 0 -1
    outer loop
      vertex 70 70 0
      vertex -74.3934 85 0
      vertex 74.3934 85 0
    endloop
  endfacet
  facet normal 0 0 1
    outer loop
      vertex 85 74.3934 8
      vertex 74.3934 85 8
      vertex 70 70 8
    endloop
  endfacet
  facet normal 0 0 1
    outer loop
      vertex 85 -95.6066 8
      vertex 95.6066 -85 8
      vertex 85 -74.3934 8
    endloop
  endfacet
  facet normal -0 0 1
    outer loop
      vertex -70 -70 8
      vertex -74.3934 -85 8
      vertex 70 -70 8
    endloop
  endfacet
  facet normal 0 0 1
    outer loop
      vertex 95.6066 85 8
      vertex 85 95.6066 8
      vertex 85 74.3934 8
    endloop
  endfacet
  facet normal 0 0 1
    outer loop
      vertex 85 95.6066 8
      vertex 74.3934 85 8
      vertex 85 74.3934 8
    endloop
  endfacet
  facet normal 0 0 1
    outer loop
      vertex -70 -70 8
      vertex -85 -74.3934 8
      vertex -74.3934 -85 8
    endloop
  endfacet
  facet normal 0 -0 1
    outer loop
      vertex -85 74.3934 8
      vertex -85 95.6066 8
      vertex -95.6066 85 8
    endloop
  endfacet
  facet normal 0 0 1
    outer loop
      vertex -74.3934 -85 8
      vertex 74.3934 -85 8
      vertex 70 -70 8
    endloop
  endfacet
  facet normal 0 0 1
    outer loop
      vertex -74.3934 85 8
      vertex -85 95.6066 8
      vertex -85 74.3934 8
    endloop
  endfacet
  facet normal 0 -0 1
    outer loop
      vertex -70 70 8
      vertex 70 70 8
      vertex -74.3934 85 8
    endloop
  endfacet
  facet normal 0 0 1
    outer loop
      vertex -85 -74.3934 8
      vertex -95.6066 -85 8
      vertex -85 -95.6066 8
    endloop
  endfacet
  facet normal 0 0 1
    outer loop
      vertex -85 -74.3934 8
      vertex -85 -95.6066 8
      vertex -74.3934 -85 8
    endloop
  endfacet
  facet normal 0 0 1
    outer loop
      vertex 85 -74.3934 8
      vertex 74.3934 -85 8
      vertex 85 -95.6066 8
    endloop
  endfacet
  facet normal 0 -0 1
    outer loop
      vertex 85 -74.3934 8
      vertex 85 74.3934 8
      vertex 70 70 8
    endloop
  endfacet
  facet normal 0 0 1
    outer loop
      vertex -85 74.3934 8
      vertex -70 -70 8
      vertex -70 70 8
    endloop
  endfacet
  facet normal 0 -0 1
    outer loop
      vertex 74.3934 -85 8
      vertex 85 -74.3934 8
      vertex 70 -70 8
    endloop
  endfacet
  facet normal 0 0 1
    outer loop
      vertex -85 74.3934 8
      vertex -85 -74.3934 8
      vertex -70 -70 8
    endloop
  endfacet
  facet normal 0 0 1
    outer loop
      vertex -74.3934 85 8
      vertex -85 74.3934 8
      vertex -70 70 8
    endloop
  endfacet
  facet normal 0 0 1
    outer loop
      vertex 85 -74.3934 8
      vertex 70 70 8
      vertex 70 -70 8
    endloop
  endfacet
  facet normal 0 0 1
    outer loop
      vertex 74.3934 85 8
      vertex -74.3934 85 8
      vertex 70 70 8
    endloop
  endfacet
  facet normal 0.707107 0.707107 0
    outer loop
      vertex 85 -74.3934 0
      vertex 95.6066 -85 8
      vertex 95.6066 -85 0
    endloop
  endfacet
  facet normal 0.707107 0.707107 -0
    outer loop
      vertex 85 -74.3934 0
      vertex 85 -74.3934 8
      vertex 95.6066 -85 8
    endloop
  endfacet
  facet normal 1 0 0
    outer loop
      vertex 85 74.3934 0
      vertex 85 -74.3934 8
      vertex 85 -74.3934 0
    endloop
  endfacet
  facet normal 1 0 -0
    outer loop
      vertex 85 74.3934 0
      vertex 85 74.3934 8
      vertex 85 -74.3934 8
    endloop
  endfacet
  facet normal 0.707107 -0.707107 0
    outer loop
      vertex 95.6066 85 0
      vertex 85 74.3934 8
      vertex 85 74.3934 0
    endloop
  endfacet
  facet normal 0.707107 -0.707107 0
    outer loop
      vertex 95.6066 85 0
      vertex 95.6066 85 8
      vertex 85 74.3934 8
    endloop
  endfacet
  facet normal 0.707107 0.707107 0
    outer loop
      vertex 85 95.6066 0
      vertex 95.6066 85 8
      vertex 95.6066 85 0
    endloop
  endfacet
  facet normal 0.707107 0.707107 -0
    outer loop
      vertex 85 95.6066 0
      vertex 85 95.6066 8
      vertex 95.6066 85 8
    endloop
  endfacet
  facet normal -0.707107 0.707107 0
    outer loop
      vertex 74.3934 85 0
      vertex 85 95.6066 8
      vertex 85 95.6066 0
    endloop
  endfacet
  facet normal -0.707107 0.707107 0
    outer loop
      vertex 74.3934 85 0
      vertex 74.3934 85 8
      vertex 85 95.6066 8
    endloop
  endfacet
  facet normal 0 1 0
    outer loop
      vertex -74.3934 85 0
      vertex 74.3934 85 8
      vertex 74.3934 85 0
    endloop
  endfacet
  facet normal 0 1 0
    outer loop
      vertex -74.3934 85 0
      vertex -74.3934 85 8
      vertex 74.3934 85 8
    endloop
  endfacet
  facet normal 0.707107 0.707107 0
    outer loop
      vertex -85 95.6066 0
      vertex -74.3934 85 8
      vertex -74.3934 85 0
    endloop
  endfacet
  facet normal 0.707107 0.707107 -0
    outer loop
      vertex -85 95.6066 0
      vertex -85 95.6066 8
      vertex -74.3934 85 8
    endloop
  endfacet
  facet normal -0.707107 0.707107 0
    outer loop
      vertex -95.6066 85 0
      vertex -85 95.6066 8
      vertex -85 95.6066 0
    endloop
  endfacet
  facet normal -0.707107 0.707107 0
    outer loop
      vertex -95.6066 85 0
      vertex -95.6066 85 8
      vertex -85 95.6066 8
    endloop
  endfacet
  facet normal -0.707107 -0.707107 0
    outer loop
      vertex -85 74.3934 0
      vertex -95.6066 85 8
      vertex -95.6066 85 0
    endloop
  endfacet
  facet normal -0.707107 -0.707107 0
    outer loop
      vertex -85 74.3934 0
      vertex -85 74.3934 8
      vertex -95.6066 85 8
    endloop
  endfacet
  facet normal -1 0 0
    outer loop
      vertex -85 -74.3934 0
      vertex -85 74.3934 8
      vertex -85 74.3934 0
    endloop
  endfacet
  facet normal -1 0 0
    outer loop
      vertex -85 -74.3934 0
      vertex -85 -74.3934 8
      vertex -85 74.3934 8
    endloop
  endfacet
  facet normal -0.707107 0.707107 0
    outer loop
      vertex -95.6066 -85 0
      vertex -85 -74.3934 8
      vertex -85 -74.3934 0
    endloop
  endfacet
  facet normal -0.707107 0.707107 0
    outer loop
      vertex -95.6066 -85 0
      vertex -95.6066 -85 8
      vertex -85 -74.3934 8
    endloop
  endfacet
  facet normal -0.707107 -0.707107 0
    outer loop
      vertex -85 -95.6066 0
      vertex -95.6066 -85 8
      vertex -95.6066 -85 0
    endloop
  endfacet
  facet normal -0.707107 -0.707107 0
    outer loop
      vertex -85 -95.6066 0
      vertex -85 -95.6066 8
      vertex -95.6066 -85 8
    endloop
  endfacet
  facet normal 0.707107 -0.707107 0
    outer loop
      vertex -74.3934 -85 0
      vertex -85 -95.6066 8
      vertex -85 -95.6066 0
    endloop
  endfacet
  facet normal 0.707107 -0.707107 0
    outer loop
      vertex -74.3934 -85 0
      vertex -74.3934 -85 8
      vertex -85 -95.6066 8
    endloop
  endfacet
  facet normal 0 -1 0
    outer loop
      vertex 74.3934 -85 0
      vertex -74.3934 -85 8
      vertex -74.3934 -85 0
    endloop
  endfacet
  facet normal 0 -1 0
    outer loop
      vertex 74.3934 -85 0
      vertex 74.3934 -85 8
      vertex -74.3934 -85 8
    endloop
  endfacet
  facet normal -0.707107 -0.707107 0
    outer loop
      vertex 85 -95.6066 0
      vertex 74.3934 -85 8
      vertex 74.3934 -85 0
    endloop
  endfacet
  facet normal -0.707107 -0.707107 0
    outer loop
      vertex 85 -95.6066 0
      vertex 85 -95.6066 8
      vertex 74.3934 -85 8
    endloop
  endfacet
  facet normal 0.707107 -0.707107 0
    outer loop
      vertex 95.6066 -85 0
      vertex 85 -95.6066 8
      vertex 85 -95.6066 0
    endloop
  endfacet
  facet normal 0.707107 -0.707107 0
    outer loop
      vertex 95.6066 -85 0
      vertex 95.6066 -85 8
      vertex 85 -95.6066 8
    endloop
  endfacet
  facet normal 1 0 -0
    outer loop
      vertex -70 70 0
      vertex -70 70 8
      vertex -70 -70 0
    endloop
  endfacet
  facet normal 1 -0 0
    outer loop
      vertex -70 -70 8
      vertex -70 -70 0
      vertex -70 70 8
    endloop
  endfacet
  facet normal 0 -1 0
    outer loop
      vertex 70 70 0
      vertex 70 70 8
      vertex -70 70 0
    endloop
  endfacet
  facet normal 0 -1 0
    outer loop
      vertex -70 70 8
      vertex -70 70 0
      vertex 70 70 8
    endloop
  endfacet
  facet normal -1 0 0
    outer loop
      vertex 70 -70 0
      vertex 70 -70 8
      vertex 70 70 0
    endloop
  endfacet
  facet normal -1 -0 -0
    outer loop
      vertex 70 70 8
      vertex 70 70 0
      vertex 70 -70 8
    endloop
  endfacet
  facet normal 0 1 0
    outer loop
      vertex -70 -70 0
      vertex -70 -70 8
      vertex 70 -70 0
    endloop
  endfacet
  facet normal 0 1 0
    outer loop
      vertex 70 -70 8
      vertex 70 -70 0
      vertex -70 -70 8
    endloop
  endfacet
endsolid OpenSCAD_Model
