solid OpenSCAD_Model
  facet normal 0 0 -1
    outer loop
      vertex 15.2 15.2 0
      vertex 16.4645 20 0
      vertex 20 16.4645 0
    endloop
  endfacet
  facet normal 0 0 -1
    outer loop
      vertex 20 -16.4645 0
      vertex 23.5355 -20 0
      vertex 20 -23.5355 0
    endloop
  endfacet
  facet normal -0 0 -1
    outer loop
      vertex 15.2 -15.2 0
      vertex -16.4645 -20 0
      vertex -15.2 -15.2 0
    endloop
  endfacet
  facet normal 0 0 -1
    outer loop
      vertex 20 16.4645 0
      vertex 20 23.5355 0
      vertex 23.5355 20 0
    endloop
  endfacet
  facet normal 0 0 -1
    outer loop
      vertex 20 16.4645 0
      vertex 16.4645 20 0
      vertex 20 23.5355 0
    endloop
  endfacet
  facet normal 0 0 -1
    outer loop
      vertex -16.4645 -20 0
      vertex -20 -16.4645 0
      vertex -15.2 -15.2 0
    endloop
  endfacet
  facet normal 0 0 -1
    outer loop
      vertex -23.5355 20 0
      vertex -20 23.5355 0
      vertex -20 16.4645 0
    endloop
  endfacet
  facet normal 0 -0 -1
    outer loop
      vertex 15.2 -15.2 0
      vertex 16.4645 -20 0
      vertex -16.4645 -20 0
    endloop
  endfacet
  facet normal 0 0 -1
    outer loop
      vertex -20 16.4645 0
      vertex -20 23.5355 0
      vertex -16.4645 20 0
    endloop
  endfacet
  facet normal 0 0 -1
    outer loop
      vertex -16.4645 20 0
      vertex 15.2 15.2 0
      vertex -15.2 15.2 0
    endloop
  endfacet
  facet normal 0 0 -1
    outer loop
      vertex -20 -23.5355 0
      vertex -23.5355 -20 0
      vertex -20 -16.4645 0
    endloop
  endfacet
  facet normal -0 0 -1
    outer loop
      vertex -16.4645 -20 0
      vertex -20 -23.5355 0
      vertex -20 -16.4645 0
    endloop
  endfacet
  facet normal 0 0 -1
    outer loop
      vertex 20 -23.5355 0
      vertex 16.4645 -20 0
      vertex 20 -16.4645 0
    endloop
  endfacet
  facet normal 0 0 -1
    outer loop
      vertex 15.2 15.2 0
      vertex 20 16.4645 0
      vertex 20 -16.4645 0
    endloop
  endfacet
  facet normal -0 -0 -1
    outer loop
      vertex -15.2 15.2 0
      vertex -15.2 -15.2 0
      vertex -20 16.4645 0
    endloop
  endfacet
  facet normal 0 0 -1
    outer loop
      vertex 15.2 -15.2 0
      vertex 20 -16.4645 0
      vertex 16.4645 -20 0
    endloop
  endfacet
  facet normal -0 0 -1
    outer loop
      vertex -15.2 -15.2 0
      vertex -20 -16.4645 0
      vertex -20 16.4645 0
    endloop
  endfacet
  facet normal 0 0 -1
    outer loop
      vertex -15.2 15.2 0
      vertex -20 16.4645 0
      vertex -16.4645 20 0
    endloop
  endfacet
  facet normal 0 0 -1
    outer loop
      vertex 15.2 -15.2 0
      vertex 15.2 15.2 0
      vertex 20 -16.4645 0
    endloop
  endfacet
  facet normal 0 0 -1
    outer loop
      vertex 15.2 15.2 0
      vertex -16.4645 20 0
      vertex 16.4645 20 0
    endloop
  endfacet
  facet normal 0 0 1
    outer loop
      vertex 20 16.4645 8
      vertex 16.4645 20 8
      vertex 15.2 15.2 8
    endloop
  endfacet
  facet normal 0 0 1
    outer loop
      vertex 20 -23.5355 8
      vertex 23.5355 -20 8
      vertex 20 -16.4645 8
    endloop
  endfacet
  facet normal -0 0 1
    outer loop
      vertex -15.2 -15.2 8
      vertex -16.4645 -20 8
      vertex 15.2 -15.2 8
    endloop
  endfacet
  facet normal 0 0 1
    outer loop
      vertex 23.5355 20 8
      vertex 20 23.5355 8
      vertex 20 16.4645 8
    endloop
  endfacet
  facet normal 0 0 1
    outer loop
      vertex 20 23.5355 8
      vertex 16.4645 20 8
      vertex 20 16.4645 8
    endloop
  endfacet
  facet normal 0 0 1
    outer loop
      vertex -15.2 -15.2 8
      vertex -20 -16.4645 8
      vertex -16.4645 -20 8
    endloop
  endfacet
  facet normal 0 -0 1
    outer loop
      vertex -20 16.4645 8
      vertex -20 23.5355 8
      vertex -23.5355 20 8
    endloop
  endfacet
  facet normal 0 0 1
    outer loop
      vertex -16.4645 -20 8
      vertex 16.4645 -20 8
      vertex 15.2 -15.2 8
    endloop
  endfacet
  facet normal 0 0 1
    outer loop
      vertex -16.4645 20 8
      vertex -20 23.5355 8
      vertex -20 16.4645 8
    endloop
  endfacet
  facet normal 0 -0 1
    outer loop
      vertex -15.2 15.2 8
      vertex 15.2 15.2 8
      vertex -16.4645 20 8
    endloop
  endfacet
  facet normal 0 0 1
    outer loop
      vertex -20 -16.4645 8
      vertex -23.5355 -20 8
      vertex -20 -23.5355 8
    endloop
  endfacet
  facet normal 0 0 1
    outer loop
      vertex -20 -16.4645 8
      vertex -20 -23.5355 8
      vertex -16.4645 -20 8
    endloop
  endfacet
  facet normal 0 0 1
    outer loop
      vertex 20 -16.4645 8
      vertex 16.4645 -20 8
      vertex 20 -23.5355 8
    endloop
  endfacet
  facet normal 0 -0 1
    outer loop
      vertex 20 -16.4645 8
      vertex 20 16.4645 8
      vertex 15.2 15.2 8
    endloop
  endfacet
  facet normal 0 0 1
    outer loop
      vertex -20 16.4645 8
      vertex -15.2 -15.2 8
      vertex -15.2 15.2 8
    endloop
  endfacet
  facet normal 0 -0 1
    outer loop
      vertex 16.4645 -20 8
      vertex 20 -16.4645 8
      vertex 15.2 -15.2 8
    endloop
  endfacet
  facet normal 0 0 1
    outer loop
      vertex -20 16.4645 8
      vertex -20 -16.4645 8
      vertex -15.2 -15.2 8
    endloop
  endfacet
  facet normal 0 0 1
    outer loop
      vertex -16.4645 20 8
      vertex -20 16.4645 8
      vertex -15.2 15.2 8
    endloop
  endfacet
  facet normal 0 0 1
    outer loop
      vertex 20 -16.4645 8
      vertex 15.2 15.2 8
      vertex 15.2 -15.2 8
    endloop
  endfacet
  facet normal 0 0 1
    outer loop
      vertex 16.4645 20 8
      vertex -16.4645 20 8
      vertex 15.2 15.2 8
    endloop
  endfacet
  facet normal 0.707107 0.707107 0
    outer loop
      vertex 20 -16.4645 0
      vertex 23.5355 -20 8
      vertex 23.5355 -20 0
    endloop
  endfacet
  facet normal 0.707107 0.707107 -0
    outer loop
      vertex 20 -16.4645 0
      vertex 20 -16.4645 8
      vertex 23.5355 -20 8
    endloop
  endfacet
  facet normal 1 0 0
    outer loop
      vertex 20 16.4645 0
      vertex 20 -16.4645 8
      vertex 20 -16.4645 0
    endloop
  endfacet
  facet normal 1 0 -0
    outer loop
      vertex 20 16.4645 0
      vertex 20 16.4645 8
      vertex 20 -16.4645 8
    endloop
  endfacet
  facet normal 0.707107 -0.707107 0
    outer loop
      vertex 23.5355 20 0
      vertex 20 16.4645 8
      vertex 20 16.4645 0
    endloop
  endfacet
  facet normal 0.707107 -0.707107 0
    outer loop
      vertex 23.5355 20 0
      vertex 23.5355 20 8
      vertex 20 16.4645 8
    endloop
  endfacet
  facet normal 0.707107 0.707107 0
    outer loop
      vertex 20 23.5355 0
      vertex 23.5355 20 8
      vertex 23.5355 20 0
    endloop
  endfacet
  facet normal 0.707107 0.707107 -0
    outer loop
      vertex 20 23.5355 0
      vertex 20 23.5355 8
      vertex 23.5355 20 8
    endloop
  endfacet
  facet normal -0.707107 0.707107 0
    outer loop
      vertex 16.4645 20 0
      vertex 20 23.5355 8
      vertex 20 23.5355 0
    endloop
  endfacet
  facet normal -0.707107 0.707107 0
    outer loop
      vertex 16.4645 20 0
      vertex 16.4645 20 8
      vertex 20 23.5355 8
    endloop
  endfacet
  facet normal 0 1 0
    outer loop
      vertex -16.4645 20 0
      vertex 16.4645 20 8
      vertex 16.4645 20 0
    endloop
  endfacet
  facet normal 0 1 0
    outer loop
      vertex -16.4645 20 0
      vertex -16.4645 20 8
      vertex 16.4645 20 8
    endloop
  endfacet
  facet normal 0.707107 0.707107 0
    outer loop
      vertex -20 23.5355 0
      vertex -16.4645 20 8
      vertex -16.4645 20 0
    endloop
  endfacet
  facet normal 0.707107 0.707107 -0
    outer loop
      vertex -20 23.5355 0
      vertex -20 23.5355 8
      vertex -16.4645 20 8
    endloop
  endfacet
  facet normal -0.707107 0.707107 0
    outer loop
      vertex -23.5355 20 0
      vertex -20 23.5355 8
      vertex -20 23.5355 0
    endloop
  endfacet
  facet normal -0.707107 0.707107 0
    outer loop
      vertex -23.5355 20 0
      vertex -23.5355 20 8
      vertex -20 23.5355 8
    endloop
  endfacet
  facet normal -0.707107 -0.707107 0
    outer loop
      vertex -20 16.4645 0
      vertex -23.5355 20 8
      vertex -23.5355 20 0
    endloop
  endfacet
  facet normal -0.707107 -0.707107 0
    outer loop
      vertex -20 16.4645 0
      vertex -20 16.4645 8
      vertex -23.5355 20 8
    endloop
  endfacet
  facet normal -1 0 0
    outer loop
      vertex -20 -16.4645 0
      vertex -20 16.4645 8
      vertex -20 16.4645 0
    endloop
  endfacet
  facet normal -1 0 0
    outer loop
      vertex -20 -16.4645 0
      vertex -20 -16.4645 8
      vertex -20 16.4645 8
    endloop
  endfacet
  facet normal -0.707107 0.707107 0
    outer loop
      vertex -23.5355 -20 0
      vertex -20 -16.4645 8
      vertex -20 -16.4645 0
    endloop
  endfacet
  facet normal -0.707107 0.707107 0
    outer loop
      vertex -23.5355 -20 0
      vertex -23.5355 -20 8
      vertex -20 -16.4645 8
    endloop
  endfacet
  facet normal -0.707107 -0.707107 0
    outer loop
      vertex -20 -23.5355 0
      vertex -23.5355 -20 8
      vertex -23.5355 -20 0
    endloop
  endfacet
  facet normal -0.707107 -0.707107 0
    outer loop
      vertex -20 -23.5355 0
      vertex -20 -23.5355 8
      vertex -23.5355 -20 8
    endloop
  endfacet
  facet normal 0.707107 -0.707107 0
    outer loop
      vertex -16.4645 -20 0
      vertex -20 -23.5355 8
      vertex -20 -23.5355 0
    endloop
  endfacet
  facet normal 0.707107 -0.707107 0
    outer loop
      vertex -16.4645 -20 0
      vertex -16.4645 -20 8
      vertex -20 -23.5355 8
    endloop
  endfacet
  facet normal 0 -1 0
    outer loop
      vertex 16.4645 -20 0
      vertex -16.4645 -20 8
      vertex -16.4645 -20 0
    endloop
  endfacet
  facet normal 0 -1 0
    outer loop
      vertex 16.4645 -20 0
      vertex 16.4645 -20 8
      vertex -16.4645 -20 8
    endloop
  endfacet
  facet normal -0.707107 -0.707107 0
    outer loop
      vertex 20 -23.5355 0
      vertex 16.4645 -20 8
      vertex 16.4645 -20 0
    endloop
  endfacet
  facet normal -0.707107 -0.707107 0
    outer loop
      vertex 20 -23.5355 0
      vertex 20 -23.5355 8
      vertex 16.4645 -20 8
    endloop
  endfacet
  facet normal 0.707107 -0.707107 0
    outer loop
      vertex 23.5355 -20 0
      vertex 20 -23.5355 8
      vertex 20 -23.5355 0
    endloop
  endfacet
  facet normal 0.707107 -0.707107 0
    outer loop
      vertex 23.5355 -20 0
      vertex 23.5355 -20 8
      vertex 20 -23.5355 8
    endloop
  endfacet
  facet normal 1 0 -0
    outer loop
      vertex -15.2 15.2 0
      vertex -15.2 15.2 8
      vertex -15.2 -15.2 0
    endloop
  endfacet
  facet normal 1 -0 0
    outer loop
      vertex -15.2 -15.2 8
      vertex -15.2 -15.2 0
      vertex -15.2 15.2 8
    endloop
  endfacet
  facet normal 0 -1 0
    outer loop
      vertex 15.2 15.2 0
      vertex 15.2 15.2 8
      vertex -15.2 15.2 0
    endloop
  endfacet
  facet normal 0 -1 0
    outer loop
      vertex -15.2 15.2 8
      vertex -15.2 15.2 0
      vertex 15.2 15.2 8
    endloop
  endfacet
  facet normal -1 0 0
    outer loop
      vertex 15.2 -15.2 0
      vertex 15.2 -15.2 8
      vertex 15.2 15.2 0
    endloop
  endfacet
  facet normal -1 -0 -0
    outer loop
      vertex 15.2 15.2 8
      vertex 15.2 15.2 0
      vertex 15.2 -15.2 8
    endloop
  endfacet
  facet normal 0 1 0
    outer loop
      vertex -15.2 -15.2 0
      vertex -15.2 -15.2 8
      vertex 15.2 -15.2 0
    endloop
  endfacet
  facet normal 0 1 0
    outer loop
      vertex 15.2 -15.2 8
      vertex 15.2 -15.2 0
      vertex -15.2 -15.2 8
    endloop
  endfacet
endsolid OpenSCAD_Model
