solid OpenSCAD_Model
  facet normal 0 0 -1
    outer loop
      vertex -15.13 15.13 0
      vertex 10.13 10.13 0
      vertex -10.13 10.13 0
    endloop
  endfacet
  facet normal 0 -0 -1
    outer loop
      vertex 15.13 15.13 0
      vertex 15.13 -15.13 0
      vertex 10.13 10.13 0
    endloop
  endfacet
  facet normal 0 0 -1
    outer loop
      vertex 15.13 -15.13 0
      vertex 10.13 -10.13 0
      vertex 10.13 10.13 0
    endloop
  endfacet
  facet normal 0 -0 -1
    outer loop
      vertex 10.13 -10.13 0
      vertex 15.13 -15.13 0
      vertex -15.13 -15.13 0
    endloop
  endfacet
  facet normal 0 0 -1
    outer loop
      vertex -15.13 15.13 0
      vertex -10.13 -10.13 0
      vertex -15.13 -15.13 0
    endloop
  endfacet
  facet normal 0 -0 -1
    outer loop
      vertex -10.13 -10.13 0
      vertex 10.13 -10.13 0
      vertex -15.13 -15.13 0
    endloop
  endfacet
  facet normal 0 0 -1
    outer loop
      vertex -15.13 15.13 0
      vertex -10.13 10.13 0
      vertex -10.13 -10.13 0
    endloop
  endfacet
  facet normal -0 0 -1
    outer loop
      vertex 15.13 15.13 0
      vertex 10.13 10.13 0
      vertex -15.13 15.13 0
    endloop
  endfacet
  facet normal 0 -0 1
    outer loop
      vertex -10.13 10.13 5
      vertex 10.13 10.13 5
      vertex -15.13 15.13 5
    endloop
  endfacet
  facet normal -0 0 1
    outer loop
      vertex 10.13 10.13 5
      vertex 15.13 -15.13 5
      vertex 15.13 15.13 5
    endloop
  endfacet
  facet normal 0 0 1
    outer loop
      vertex 10.13 10.13 5
      vertex 10.13 -10.13 5
      vertex 15.13 -15.13 5
    endloop
  endfacet
  facet normal 0 0 1
    outer loop
      vertex -15.13 -15.13 5
      vertex 15.13 -15.13 5
      vertex 10.13 -10.13 5
    endloop
  endfacet
  facet normal 0 0 1
    outer loop
      vertex -15.13 -15.13 5
      vertex -10.13 -10.13 5
      vertex -15.13 15.13 5
    endloop
  endfacet
  facet normal 0 0 1
    outer loop
      vertex -15.13 -15.13 5
      vertex 10.13 -10.13 5
      vertex -10.13 -10.13 5
    endloop
  endfacet
  facet normal 0 -0 1
    outer loop
      vertex -10.13 -10.13 5
      vertex -10.13 10.13 5
      vertex -15.13 15.13 5
    endloop
  endfacet
  facet normal -0 0 1
    outer loop
      vertex -15.13 15.13 5
      vertex 10.13 10.13 5
      vertex 15.13 15.13 5
    endloop
  endfacet
  facet normal 0 1 0
    outer loop
      vertex -15.13 15.13 0
      vertex 15.13 15.13 5
      vertex 15.13 15.13 0
    endloop
  endfacet
  facet normal 0 1 0
    outer loop
      vertex -15.13 15.13 0
      vertex -15.13 15.13 5
      vertex 15.13 15.13 5
    endloop
  endfacet
  facet normal -1 0 0
    outer loop
      vertex -15.13 -15.13 0
      vertex -15.13 15.13 5
      vertex -15.13 15.13 0
    endloop
  endfacet
  facet normal -1 0 0
    outer loop
      vertex -15.13 -15.13 0
      vertex -15.13 -15.13 5
      vertex -15.13 15.13 5
    endloop
  endfacet
  facet normal 0 -1 0
    outer loop
      vertex 15.13 -15.13 0
      vertex -15.13 -15.13 5
      vertex -15.13 -15.13 0
    endloop
  endfacet
  facet normal 0 -1 0
    outer loop
      vertex 15.13 -15.13 0
      vertex 15.13 -15.13 5
      vertex -15.13 -15.13 5
    endloop
  endfacet
  facet normal 1 0 0
    outer loop
      vertex 15.13 15.13 0
      vertex 15.13 -15.13 5
      vertex 15.13 -15.13 0
    endloop
  endfacet
  facet normal 1 0 -0
    outer loop
      vertex 15.13 15.13 0
      vertex 15.13 15.13 5
      vertex 15.13 -15.13 5
    endloop
  endfacet
  facet normal 1 0 -0
    outer loop
      vertex -10.13 10.13 0
      vertex -10.13 10.13 5
      vertex -10.13 -10.13 0
    endloop
  endfacet
  facet normal 1 -0 0
    outer loop
      vertex -10.13 -10.13 5
      vertex -10.13 -10.13 0
      vertex -10.13 10.13 5
    endloop
  endfacet
  facet normal 0 -1 0
    outer loop
      vertex 10.13 10.13 0
      vertex 10.13 10.13 5
      vertex -10.13 10.13 0
    endloop
  endfacet
  facet normal 0 -1 0
    outer loop
      vertex -10.13 10.13 5
      vertex -10.13 10.13 0
      vertex 10.13 10.13 5
    endloop
  endfacet
  facet normal -1 0 0
    outer loop
      vertex 10.13 -10.13 0
      vertex 10.13 -10.13 5
      vertex 10.13 10.13 0
    endloop
  endfacet
  facet normal -1 -0 -0
    outer loop
      vertex 10.13 10.13 5
      vertex 10.13 10.13 0
      vertex 10.13 -10.13 5
    endloop
  endfacet
  facet normal 0 1 0
    outer loop
      vertex -10.13 -10.13 0
      vertex -10.13 -10.13 5
      vertex 10.13 -10.13 0
    endloop
  endfacet
  facet normal 0 1 0
    outer loop
      vertex 10.13 -10.13 5
      vertex 10.13 -10.13 0
      vertex -10.13 -10.13 5
    endloop
  endfacet
endsolid OpenSCAD_Model
