solid UM2CableChain_Lid
facet normal -0.611785933502115 0.530462861351995 0.5867939368255266
  outer loop
    vertex 19.81999969482422 4.2585787773132315 5.129179954528808
    vertex 18.815416336059567 2.5468907356262207 5.629179954528809
    vertex 20.119997787475583 4.051472186750811 5.629179953478021
  endloop
endfacet
facet normal 0.8574934308055155 -2.362969816166782e-18 0.5144949136049709
  outer loop
    vertex 2.619998455047607 4.2585787773132315 5.129179954528808
    vertex 2.3199994087219236 5.693210095367431 5.6291794776916495
    vertex 2.3199994087219236 4.051472187042235 5.6291794776916495
  endloop
endfacet
facet normal 0.8574934308055155 -2.362969816166782e-18 0.5144949136049709
  outer loop
    vertex 2.3199994087219236 5.693210095367431 5.6291794776916495
    vertex 2.619998455047607 4.2585787773132315 5.129179954528808
    vertex 2.619998455047607 5.400000095367432 5.129179954528808
  endloop
endfacet
facet normal 0.5000000505506011 0.5000001297814864 0.7071066536724804
  outer loop
    vertex 4.124579906463622 2.7539975643157955 5.129179954528808
    vertex 2.619998455047607 4.2585787773132315 5.129179954528808
    vertex 3.624580860137939 2.5468907356262207 5.6291794776916495
  endloop
endfacet
facet normal -0.5000006261442461 0.5000007053752225 0.7071058396588463
  outer loop
    vertex 19.81999969482422 4.2585787773132315 5.129179954528808
    vertex 18.315418243408203 2.7539975643157955 5.129179954528808
    vertex 18.815416336059567 2.5468907356262207 5.629179954528809
  endloop
endfacet
facet normal -0.8574943683563111 2.362967902670242e-18 0.5144933510136074
  outer loop
    vertex 20.119997787475583 5.693210095076006 5.629179953478021
    vertex 19.81999969482422 4.2585787773132315 5.129179954528808
    vertex 20.119997787475583 4.051472186750811 5.629179953478021
  endloop
endfacet
facet normal -0.8574943683563111 2.362967902670242e-18 0.5144933510136074
  outer loop
    vertex 19.81999969482422 4.2585787773132315 5.129179954528808
    vertex 20.119997787475583 5.693210095076006 5.629179953478021
    vertex 19.81999969482422 5.400000095367432 5.129179954528808
  endloop
endfacet
facet normal -6.9996926490563195e-09 -0.8626176533218193 0.5058564857521921
  outer loop
    vertex 20.119997787475583 5.693210095076006 5.629179953478021
    vertex 2.619998455047607 5.400000095367432 5.129179954528808
    vertex 19.81999969482422 5.400000095367432 5.129179954528808
  endloop
endfacet
facet normal -6.9996926490563195e-09 -0.8626176533218193 0.5058564857521921
  outer loop
    vertex 2.619998455047607 5.400000095367432 5.129179954528808
    vertex 20.119997787475583 5.693210095076006 5.629179953478021
    vertex 2.3199994087219236 5.693210095367431 5.6291794776916495
  endloop
endfacet
facet normal 0.6117853144978713 0.5304623241177762 0.5867950678527455
  outer loop
    vertex 2.619998455047607 4.2585787773132315 5.129179954528808
    vertex 2.3199994087219236 4.051472187042235 5.6291794776916495
    vertex 3.624580860137939 2.5468907356262207 5.6291794776916495
  endloop
endfacet
facet normal -2.6352417209847943e-08 6.006904406293249e-11 0.9999999999999998
  outer loop
    vertex 2.91747236251831 1.2999999523162842 5.6291794776916495
    vertex 0.7199980020523071 6.499999999999999 5.6291794776916495
    vertex 0.7199980020523071 1.2999999523162842 5.6291794776916495
  endloop
endfacet
facet normal -2.6352417209847943e-08 6.006904406293249e-11 0.9999999999999998
  outer loop
    vertex 0.7199980020523071 6.499999999999999 5.6291794776916495
    vertex 2.91747236251831 1.2999999523162842 5.6291794776916495
    vertex 2.3199994087219236 4.051472187042235 5.6291794776916495
  endloop
endfacet
facet normal -2.6352417209847943e-08 6.006904406293249e-11 0.9999999999999998
  outer loop
    vertex 2.3199994087219236 4.051472187042235 5.6291794776916495
    vertex 2.91747236251831 1.2999999523162842 5.6291794776916495
    vertex 3.624580860137939 2.5468907356262207 5.6291794776916495
  endloop
endfacet
facet normal -2.6352417209847943e-08 6.006904406293249e-11 0.9999999999999998
  outer loop
    vertex 3.624580860137939 2.5468907356262207 5.6291794776916495
    vertex 2.91747236251831 1.2999999523162842 5.6291794776916495
    vertex 3.624580860137939 2.0071067810058594 5.6291794776916495
  endloop
endfacet
facet normal -2.6352417209847943e-08 6.006904406293249e-11 0.9999999999999998
  outer loop
    vertex 19.522525787353516 1.2999999523162842 5.629179954528809
    vertex 18.815416336059567 2.5468907356262207 5.629179954528809
    vertex 18.815416336059567 2.0071067810058594 5.629179954528809
  endloop
endfacet
facet normal -2.6352417209847943e-08 6.006904406293249e-11 0.9999999999999998
  outer loop
    vertex 18.815416336059567 2.5468907356262207 5.629179954528809
    vertex 19.522525787353516 1.2999999523162842 5.629179954528809
    vertex 20.119997787475583 4.051472186750811 5.629179953478021
  endloop
endfacet
facet normal -2.6352417209847943e-08 6.006904406293249e-11 0.9999999999999998
  outer loop
    vertex 20.119997787475583 4.051472186750811 5.629179953478021
    vertex 19.522525787353516 1.2999999523162842 5.629179954528809
    vertex 21.71999931335449 1.2999999523162842 5.629179954528809
  endloop
endfacet
facet normal -2.6352417209847943e-08 6.006904406293249e-11 0.9999999999999998
  outer loop
    vertex 20.119997787475583 4.051472186750811 5.629179953478021
    vertex 21.71999931335449 1.2999999523162842 5.629179954528809
    vertex 20.119997787475583 5.693210095076006 5.629179953478021
  endloop
endfacet
facet normal -2.6352417209847943e-08 6.006904406293249e-11 0.9999999999999998
  outer loop
    vertex 0.7199980020523071 6.499999999999999 5.6291794776916495
    vertex 2.3199994087219236 5.693210095367431 5.6291794776916495
    vertex 21.71999931335449 6.499999999999999 5.629179954528809
  endloop
endfacet
facet normal -2.6352417209847943e-08 6.006904406293249e-11 0.9999999999999998
  outer loop
    vertex 2.3199994087219236 5.693210095367431 5.6291794776916495
    vertex 0.7199980020523071 6.499999999999999 5.6291794776916495
    vertex 2.3199994087219236 4.051472187042235 5.6291794776916495
  endloop
endfacet
facet normal -2.6352417209847943e-08 6.006904406293249e-11 0.9999999999999998
  outer loop
    vertex 21.71999931335449 6.499999999999999 5.629179954528809
    vertex 2.3199994087219236 5.693210095367431 5.6291794776916495
    vertex 20.119997787475583 5.693210095076006 5.629179953478021
  endloop
endfacet
facet normal -2.6352417209847943e-08 6.006904406293249e-11 0.9999999999999998
  outer loop
    vertex 21.71999931335449 6.499999999999999 5.629179954528809
    vertex 20.119997787475583 5.693210095076006 5.629179953478021
    vertex 21.71999931335449 1.2999999523162842 5.629179954528809
  endloop
endfacet
facet normal 0.08715419094114824 0.9961948338560053 -0.0
  outer loop
    vertex 21.80682373046875 6.992403984069823 5.129179954528808
    vertex 21.71999931335449 7.0 0.5291798114776611
    vertex 21.71999931335449 7.0 5.129179954528808
  endloop
endfacet
facet normal 0.08715419094114821 0.9961948338560053 2.0158180599456285e-19
  outer loop
    vertex 21.80682373046875 6.992403984069823 5.129179954528808
    vertex 21.80682373046875 6.992403984069823 0.5291798114776611
    vertex 21.71999931335449 7.0 0.5291798114776611
  endloop
endfacet
facet normal 0.25882469073616216 0.9659243135284101 -0.0
  outer loop
    vertex 21.89100837707519 6.969846248626708 5.129179954528808
    vertex 21.80682373046875 6.992403984069823 0.5291798114776611
    vertex 21.80682373046875 6.992403984069823 5.129179954528808
  endloop
endfacet
facet normal 0.25882469073616216 0.9659243135284101 -4.158130418446561e-19
  outer loop
    vertex 21.89100837707519 6.969846248626708 5.129179954528808
    vertex 21.89100837707519 6.969846248626708 0.5291798114776611
    vertex 21.80682373046875 6.992403984069823 0.5291798114776611
  endloop
endfacet
facet normal 0.4226236716135266 0.906305264351864 -0.0
  outer loop
    vertex 21.969997406005856 6.9330124855041495 5.129179954528808
    vertex 21.89100837707519 6.969846248626708 0.5291798114776611
    vertex 21.89100837707519 6.969846248626708 5.129179954528808
  endloop
endfacet
facet normal 0.42262367161352676 0.906305264351864 -8.86322437699766e-19
  outer loop
    vertex 21.969997406005856 6.9330124855041495 5.129179954528808
    vertex 21.969997406005856 6.9330124855041495 0.5291798114776611
    vertex 21.89100837707519 6.969846248626708 0.5291798114776611
  endloop
endfacet
facet normal 0.5735629476409605 0.8191614890199691 -0.0
  outer loop
    vertex 22.041393280029297 6.8830223083496085 5.129179954528808
    vertex 21.969997406005856 6.9330124855041495 0.5291798114776611
    vertex 21.969997406005856 6.9330124855041495 5.129179954528808
  endloop
endfacet
facet normal 0.5735629476409605 0.8191614890199691 -1.961119617300468e-18
  outer loop
    vertex 22.041393280029297 6.8830223083496085 5.129179954528808
    vertex 22.041393280029297 6.8830223083496085 0.5291798114776611
    vertex 21.969997406005856 6.9330124855041495 0.5291798114776611
  endloop
endfacet
facet normal 0.7071067811865557 0.7071067811865395 -0.0
  outer loop
    vertex 22.041393280029297 6.8830223083496085 5.129179954528808
    vertex 22.103021621704098 6.821393966674804 5.129179954528808
    vertex 22.041393280029297 6.8830223083496085 0.5291798114776611
  endloop
endfacet
facet normal 0.7071067811865557 0.7071067811865395 -1.1359908401014846e-18
  outer loop
    vertex 22.041393280029297 6.8830223083496085 0.5291798114776611
    vertex 22.103021621704098 6.821393966674804 5.129179954528808
    vertex 22.103021621704098 6.821393966674804 0.5291798114776611
  endloop
endfacet
facet normal 0.8191568601194125 0.5735695585709768 -9.806066610533443e-19
  outer loop
    vertex 22.103021621704098 6.821393966674804 5.129179954528808
    vertex 22.153011322021484 6.749999999999999 5.129179954528808
    vertex 22.103021621704098 6.821393966674804 0.5291798114776611
  endloop
endfacet
facet normal 0.8191568601194125 0.5735695585709769 -9.806066610533443e-19
  outer loop
    vertex 22.103021621704098 6.821393966674804 0.5291798114776611
    vertex 22.153011322021484 6.749999999999999 5.129179954528808
    vertex 22.153011322021484 6.749999999999999 0.5291798114776611
  endloop
endfacet
facet normal 0.9063114098107947 0.4226104925895355 8.863070458678924e-19
  outer loop
    vertex 22.153011322021484 6.749999999999999 5.129179954528808
    vertex 22.189844131469727 6.671010017395019 5.129179954528808
    vertex 22.153011322021484 6.749999999999999 0.5291798114776611
  endloop
endfacet
facet normal 0.9063114098107947 0.4226104925895356 8.863070458678926e-19
  outer loop
    vertex 22.153011322021484 6.749999999999999 0.5291798114776611
    vertex 22.189844131469727 6.671010017395019 5.129179954528808
    vertex 22.189844131469727 6.671010017395019 0.5291798114776611
  endloop
endfacet
facet normal 0.9659240452569332 0.25882569191346155 -0.0
  outer loop
    vertex 22.189844131469727 6.671010017395019 5.129179954528808
    vertex 22.21240234375 6.586823940277099 5.129179954528808
    vertex 22.189844131469727 6.671010017395019 0.5291798114776611
  endloop
endfacet
facet normal 0.9659240452569332 0.25882569191346155 8.315975905565784e-19
  outer loop
    vertex 22.189844131469727 6.671010017395019 0.5291798114776611
    vertex 22.21240234375 6.586823940277099 5.129179954528808
    vertex 22.21240234375 6.586823940277099 0.5291798114776611
  endloop
endfacet
facet normal 0.9961938422045566 0.08716552502981348 -0.0
  outer loop
    vertex 22.21240234375 6.586823940277099 5.129179954528808
    vertex 22.219999313354492 6.499999999999999 5.129179954528808
    vertex 22.21240234375 6.586823940277099 0.5291798114776611
  endloop
endfacet
facet normal 0.9961938422045566 0.08716552502981348 -0.0
  outer loop
    vertex 22.21240234375 6.586823940277099 0.5291798114776611
    vertex 22.219999313354492 6.499999999999999 5.129179954528808
    vertex 22.219999313354492 6.499999999999999 0.5291798114776611
  endloop
endfacet
facet normal 1.0 -0.0 -0.0
  outer loop
    vertex 22.219999313354492 6.499999999999999 5.129179954528808
    vertex 22.219999313354492 0.7999999523162842 5.129179954528808
    vertex 22.219999313354492 0.7999999523162842 0.5291798114776611
  endloop
endfacet
facet normal 1.0 -0.0 -0.0
  outer loop
    vertex 22.219999313354492 6.499999999999999 5.129179954528808
    vertex 22.219999313354492 0.7999999523162842 0.5291798114776611
    vertex 22.219999313354492 6.499999999999999 0.5291798114776611
  endloop
endfacet
facet normal 0.0 -1.0 0.0
  outer loop
    vertex 22.219999313354492 0.7999999523162842 5.129179954528808
    vertex 19.3154182434082 0.7999999523162842 0.5291798114776611
    vertex 22.219999313354492 0.7999999523162842 0.5291798114776611
  endloop
endfacet
facet normal 0.0 -1.0 0.0
  outer loop
    vertex 19.3154182434082 0.7999999523162842 0.5291798114776611
    vertex 22.219999313354492 0.7999999523162842 5.129179954528808
    vertex 19.3154182434082 0.7999999523162842 5.129179954528808
  endloop
endfacet
facet normal -0.7071067811865481 -0.7071067811865469 0.0
  outer loop
    vertex 18.315418243408203 1.799999952316284 0.5291798114776611
    vertex 19.3154182434082 0.7999999523162842 5.129179954528808
    vertex 18.315418243408203 1.799999952316284 5.129179954528808
  endloop
endfacet
facet normal -0.707106781186548 -0.707106781186547 -3.5344816926578536e-17
  outer loop
    vertex 18.315418243408203 1.799999952316284 0.5291798114776611
    vertex 19.3154182434082 0.7999999523162842 0.5291798114776611
    vertex 19.3154182434082 0.7999999523162842 5.129179954528808
  endloop
endfacet
facet normal -1.0 0.0 0.0
  outer loop
    vertex 18.315418243408203 2.7539975643157955 0.5291798114776611
    vertex 18.315418243408203 1.799999952316284 5.129179954528808
    vertex 18.315418243408203 2.7539975643157955 5.129179954528808
  endloop
endfacet
facet normal -1.0 0.0 0.0
  outer loop
    vertex 18.315418243408203 2.7539975643157955 0.5291798114776611
    vertex 18.315418243408203 1.799999952316284 0.5291798114776611
    vertex 18.315418243408203 1.799999952316284 5.129179954528808
  endloop
endfacet
facet normal -0.7071067251618592 0.7071068372112315 -0.0
  outer loop
    vertex 19.81999969482422 4.2585787773132315 5.129179954528808
    vertex 19.81999969482422 4.2585787773132315 0.5291798114776611
    vertex 18.315418243408203 2.7539975643157955 5.129179954528808
  endloop
endfacet
facet normal -0.7071067251618592 0.7071068372112315 6.245315102382951e-17
  outer loop
    vertex 18.315418243408203 2.7539975643157955 5.129179954528808
    vertex 19.81999969482422 4.2585787773132315 0.5291798114776611
    vertex 18.315418243408203 2.7539975643157955 0.5291798114776611
  endloop
endfacet
facet normal -1.0 0.0 0.0
  outer loop
    vertex 19.81999969482422 5.400000095367432 0.5291798114776611
    vertex 19.81999969482422 4.2585787773132315 5.129179954528808
    vertex 19.81999969482422 5.400000095367432 5.129179954528808
  endloop
endfacet
facet normal -1.0 0.0 0.0
  outer loop
    vertex 19.81999969482422 5.400000095367432 0.5291798114776611
    vertex 19.81999969482422 4.2585787773132315 0.5291798114776611
    vertex 19.81999969482422 4.2585787773132315 5.129179954528808
  endloop
endfacet
facet normal 0.0 -1.0 0.0
  outer loop
    vertex 19.81999969482422 5.400000095367432 5.129179954528808
    vertex 2.619998455047607 5.400000095367432 0.5291798114776611
    vertex 19.81999969482422 5.400000095367432 0.5291798114776611
  endloop
endfacet
facet normal 0.0 -1.0 0.0
  outer loop
    vertex 2.619998455047607 5.400000095367432 0.5291798114776611
    vertex 19.81999969482422 5.400000095367432 5.129179954528808
    vertex 2.619998455047607 5.400000095367432 5.129179954528808
  endloop
endfacet
facet normal -0.0 1.0 -0.0
  outer loop
    vertex 0.7199980020523071 7.0 5.129179954528808
    vertex 21.71999931335449 7.0 0.5291798114776611
    vertex 0.7199980020523071 7.0 0.5291798114776611
  endloop
endfacet
facet normal -0.0 1.0 -0.0
  outer loop
    vertex 21.71999931335449 7.0 0.5291798114776611
    vertex 0.7199980020523071 7.0 5.129179954528808
    vertex 21.71999931335449 7.0 5.129179954528808
  endloop
endfacet
facet normal 0.0 0.0 -1.0
  outer loop
    vertex 19.522525787353516 1.2999999523162842 0.029179966077208516
    vertex 18.815416336059567 2.0071067810058594 0.029179966077208516
    vertex 18.815416336059567 2.5468907356262207 0.029179966077208516
  endloop
endfacet
facet normal 0.0 0.0 -1.0
  outer loop
    vertex 20.319997787475586 4.051472187042235 0.029179966077208516
    vertex 19.522525787353516 1.2999999523162842 0.029179966077208516
    vertex 18.815416336059567 2.5468907356262207 0.029179966077208516
  endloop
endfacet
facet normal 0.0 0.0 -1.0
  outer loop
    vertex 3.624580860137939 2.0071067810058594 0.029179966077208516
    vertex 2.119999408721924 4.051472187042235 0.029179966077208516
    vertex 3.624580860137939 2.5468907356262207 0.029179966077208516
  endloop
endfacet
facet normal 0.0 0.0 -1.0
  outer loop
    vertex 3.624580860137939 2.0071067810058594 0.029179966077208516
    vertex 2.91747236251831 1.2999999523162842 0.029179966077208516
    vertex 2.119999408721924 4.051472187042235 0.029179966077208516
  endloop
endfacet
facet normal 0.0 0.0 -1.0
  outer loop
    vertex 2.91747236251831 1.2999999523162842 0.029179966077208516
    vertex 0.7199980020523071 1.2999999523162842 0.029179966077208516
    vertex 2.119999408721924 4.051472187042235 0.029179966077208516
  endloop
endfacet
facet normal 0.0 0.0 -1.0
  outer loop
    vertex 2.119999408721924 4.051472187042235 0.029179966077208516
    vertex 0.7199980020523071 1.2999999523162842 0.029179966077208516
    vertex 2.119999408721924 5.900000095367431 0.029179966077208516
  endloop
endfacet
facet normal 0.0 0.0 -1.0
  outer loop
    vertex 2.119999408721924 5.900000095367431 0.029179966077208516
    vertex 0.7199980020523071 1.2999999523162842 0.029179966077208516
    vertex 0.7199980020523071 6.499999999999999 0.029179966077208516
  endloop
endfacet
facet normal 0.0 0.0 -1.0
  outer loop
    vertex 20.319997787475586 5.900000095367431 0.029179966077208516
    vertex 2.119999408721924 5.900000095367431 0.029179966077208516
    vertex 0.7199980020523071 6.499999999999999 0.029179966077208516
  endloop
endfacet
facet normal 0.0 0.0 -1.0
  outer loop
    vertex 21.71999931335449 6.499999999999999 0.029179966077208516
    vertex 20.319997787475586 5.900000095367431 0.029179966077208516
    vertex 0.7199980020523071 6.499999999999999 0.029179966077208516
  endloop
endfacet
facet normal 0.0 0.0 -1.0
  outer loop
    vertex 21.71999931335449 6.499999999999999 0.029179966077208516
    vertex 20.319997787475586 4.051472187042235 0.029179966077208516
    vertex 20.319997787475586 5.900000095367431 0.029179966077208516
  endloop
endfacet
facet normal 0.0 0.0 -1.0
  outer loop
    vertex 21.71999931335449 1.2999999523162842 0.029179966077208516
    vertex 20.319997787475586 4.051472187042235 0.029179966077208516
    vertex 21.71999931335449 6.499999999999999 0.029179966077208516
  endloop
endfacet
facet normal 0.0 0.0 -1.0
  outer loop
    vertex 21.71999931335449 1.2999999523162842 0.029179966077208516
    vertex 19.522525787353516 1.2999999523162842 0.029179966077208516
    vertex 20.319997787475586 4.051472187042235 0.029179966077208516
  endloop
endfacet
facet normal -0.9961949407398041 0.08715296922318998 -2.015840418039334e-19
  outer loop
    vertex 0.22759474813938138 6.586823940277099 5.129179954528808
    vertex 0.21999888122081754 6.499999999999999 0.5291798114776611
    vertex 0.21999888122081754 6.499999999999999 5.129179954528808
  endloop
endfacet
facet normal -0.9961949407398041 0.08715296922318998 -2.015840418039334e-19
  outer loop
    vertex 0.22759474813938138 6.586823940277099 0.5291798114776611
    vertex 0.21999888122081754 6.499999999999999 0.5291798114776611
    vertex 0.22759474813938138 6.586823940277099 5.129179954528808
  endloop
endfacet
facet normal -0.9659232331205666 0.25882872274519986 -4.157984456800734e-19
  outer loop
    vertex 0.25015324354171753 6.671010017395019 5.129179954528808
    vertex 0.22759474813938138 6.586823940277099 0.5291798114776611
    vertex 0.22759474813938138 6.586823940277099 5.129179954528808
  endloop
endfacet
facet normal -0.9659232331205666 0.2588287227451998 -4.157984456800734e-19
  outer loop
    vertex 0.25015324354171753 6.671010017395019 0.5291798114776611
    vertex 0.22759474813938138 6.586823940277099 0.5291798114776611
    vertex 0.25015324354171753 6.671010017395019 5.129179954528808
  endloop
endfacet
facet normal -0.9063152079326475 0.4226023472130767 -8.863107601565164e-19
  outer loop
    vertex 0.2869851887226105 6.749999999999999 5.129179954528808
    vertex 0.25015324354171753 6.671010017395019 0.5291798114776611
    vertex 0.25015324354171753 6.671010017395019 5.129179954528808
  endloop
endfacet
facet normal -0.9063152079326475 0.4226023472130768 -8.863107601565166e-19
  outer loop
    vertex 0.2869851887226105 6.749999999999999 0.5291798114776611
    vertex 0.25015324354171753 6.671010017395019 0.5291798114776611
    vertex 0.2869851887226105 6.749999999999999 5.129179954528808
  endloop
endfacet
facet normal -0.8191470598328944 0.5735835548262559 9.805949292023304e-19
  outer loop
    vertex 0.33697670698165894 6.821393966674804 5.129179954528808
    vertex 0.2869851887226105 6.749999999999999 0.5291798114776611
    vertex 0.2869851887226105 6.749999999999999 5.129179954528808
  endloop
endfacet
facet normal -0.8191470598328945 0.573583554826256 0.0
  outer loop
    vertex 0.33697670698165894 6.821393966674804 0.5291798114776611
    vertex 0.2869851887226105 6.749999999999999 0.5291798114776611
    vertex 0.33697670698165894 6.821393966674804 5.129179954528808
  endloop
endfacet
facet normal -0.7071115684147965 0.7071019939258881 -1.1359985309447574e-18
  outer loop
    vertex 0.39860421419143677 6.8830223083496085 5.129179954528808
    vertex 0.33697670698165894 6.821393966674804 0.5291798114776611
    vertex 0.33697670698165894 6.821393966674804 5.129179954528808
  endloop
endfacet
facet normal -0.7071115684147965 0.7071019939258881 -1.1359985309447574e-18
  outer loop
    vertex 0.39860421419143677 6.8830223083496085 0.5291798114776611
    vertex 0.33697670698165894 6.821393966674804 0.5291798114776611
    vertex 0.39860421419143677 6.8830223083496085 5.129179954528808
  endloop
endfacet
facet normal -0.5735668034061774 0.8191587892651946 -0.0
  outer loop
    vertex 0.4699993729591369 6.9330124855041495 5.129179954528808
    vertex 0.39860421419143677 6.8830223083496085 0.5291798114776611
    vertex 0.39860421419143677 6.8830223083496085 5.129179954528808
  endloop
endfacet
facet normal -0.5735668034061774 0.8191587892651946 -9.805762240192122e-19
  outer loop
    vertex 0.4699993729591369 6.9330124855041495 5.129179954528808
    vertex 0.4699993729591369 6.9330124855041495 0.5291798114776611
    vertex 0.39860421419143677 6.8830223083496085 0.5291798114776611
  endloop
endfacet
facet normal -0.4226228857689028 0.9063056308025262 -8.863187832013071e-19
  outer loop
    vertex 0.5489885807037354 6.969846248626708 5.129179954528808
    vertex 0.4699993729591369 6.9330124855041495 0.5291798114776611
    vertex 0.4699993729591369 6.9330124855041495 5.129179954528808
  endloop
endfacet
facet normal -0.4226228857689028 0.9063056308025262 -0.0
  outer loop
    vertex 0.5489885807037354 6.969846248626708 5.129179954528808
    vertex 0.5489885807037354 6.969846248626708 0.5291798114776611
    vertex 0.4699993729591369 6.9330124855041495 0.5291798114776611
  endloop
endfacet
facet normal -0.2588209292825809 0.9659253214225731 -4.158005221900342e-19
  outer loop
    vertex 0.6331745386123656 6.992403984069823 5.129179954528808
    vertex 0.5489885807037354 6.969846248626708 0.5291798114776611
    vertex 0.5489885807037354 6.969846248626708 5.129179954528808
  endloop
endfacet
facet normal -0.2588209292825809 0.9659253214225731 -0.0
  outer loop
    vertex 0.6331745386123656 6.992403984069823 5.129179954528808
    vertex 0.6331745386123656 6.992403984069823 0.5291798114776611
    vertex 0.5489885807037354 6.969846248626708 0.5291798114776611
  endloop
endfacet
facet normal -0.08715514097651468 0.9961947507397155 2.015862175739505e-19
  outer loop
    vertex 0.7199980020523071 7.0 5.129179954528808
    vertex 0.6331745386123656 6.992403984069823 0.5291798114776611
    vertex 0.6331745386123656 6.992403984069823 5.129179954528808
  endloop
endfacet
facet normal -0.08715514097651467 0.9961947507397155 -0.0
  outer loop
    vertex 0.7199980020523071 7.0 5.129179954528808
    vertex 0.7199980020523071 7.0 0.5291798114776611
    vertex 0.6331745386123656 6.992403984069823 0.5291798114776611
  endloop
endfacet
facet normal -1.0 0.0 0.0
  outer loop
    vertex 0.21999888122081754 6.499999999999999 5.129179954528808
    vertex 0.21999888122081754 0.7999999523162842 0.5291798114776611
    vertex 0.21999888122081754 0.7999999523162842 5.129179954528808
  endloop
endfacet
facet normal -1.0 0.0 0.0
  outer loop
    vertex 0.21999888122081754 0.7999999523162842 0.5291798114776611
    vertex 0.21999888122081754 6.499999999999999 5.129179954528808
    vertex 0.21999888122081754 6.499999999999999 0.5291798114776611
  endloop
endfacet
facet normal 0.0 -1.0 0.0
  outer loop
    vertex 0.21999888122081754 0.7999999523162842 5.129179954528808
    vertex 0.21999888122081754 0.7999999523162842 0.5291798114776611
    vertex 3.124579906463623 0.7999999523162842 5.129179954528808
  endloop
endfacet
facet normal 0.0 -1.0 0.0
  outer loop
    vertex 3.124579906463623 0.7999999523162842 5.129179954528808
    vertex 0.21999888122081754 0.7999999523162842 0.5291798114776611
    vertex 3.124579906463623 0.7999999523162842 0.5291798114776611
  endloop
endfacet
facet normal 0.7071067811865476 -0.7071067811865476 1.767240846328926e-17
  outer loop
    vertex 4.124579906463622 1.799999952316284 5.129179954528808
    vertex 3.124579906463623 0.7999999523162842 5.129179954528808
    vertex 3.124579906463623 0.7999999523162842 0.5291798114776611
  endloop
endfacet
facet normal 0.7071067811865476 -0.7071067811865475 1.767240846328926e-17
  outer loop
    vertex 4.124579906463622 1.799999952316284 5.129179954528808
    vertex 3.124579906463623 0.7999999523162842 0.5291798114776611
    vertex 4.124579906463622 1.799999952316284 0.5291798114776611
  endloop
endfacet
facet normal 1.0 -0.0 -0.0
  outer loop
    vertex 4.124579906463622 2.7539975643157955 5.129179954528808
    vertex 4.124579906463622 1.799999952316284 5.129179954528808
    vertex 4.124579906463622 1.799999952316284 0.5291798114776611
  endloop
endfacet
facet normal 1.0 -0.0 -0.0
  outer loop
    vertex 4.124579906463622 2.7539975643157955 5.129179954528808
    vertex 4.124579906463622 1.799999952316284 0.5291798114776611
    vertex 4.124579906463622 2.7539975643157955 0.5291798114776611
  endloop
endfacet
facet normal 0.7071067251618592 0.7071068372112315 -0.0
  outer loop
    vertex 4.124579906463622 2.7539975643157955 5.129179954528808
    vertex 4.124579906463622 2.7539975643157955 0.5291798114776611
    vertex 2.619998455047607 4.2585787773132315 5.129179954528808
  endloop
endfacet
facet normal 0.7071067251618592 0.7071068372112315 3.1226575511914754e-17
  outer loop
    vertex 2.619998455047607 4.2585787773132315 5.129179954528808
    vertex 4.124579906463622 2.7539975643157955 0.5291798114776611
    vertex 2.619998455047607 4.2585787773132315 0.5291798114776611
  endloop
endfacet
facet normal 1.0 -0.0 -0.0
  outer loop
    vertex 2.619998455047607 5.400000095367432 5.129179954528808
    vertex 2.619998455047607 4.2585787773132315 5.129179954528808
    vertex 2.619998455047607 4.2585787773132315 0.5291798114776611
  endloop
endfacet
facet normal 1.0 -0.0 -0.0
  outer loop
    vertex 2.619998455047607 5.400000095367432 5.129179954528808
    vertex 2.619998455047607 4.2585787773132315 0.5291798114776611
    vertex 2.619998455047607 5.400000095367432 0.5291798114776611
  endloop
endfacet
facet normal 0.7071071183617378 9.814937589161531e-23 0.7071064440111965
  outer loop
    vertex 4.124579906463622 2.7539975643157955 5.129179954528808
    vertex 3.624580860137939 2.0071067810058594 5.6291794776916495
    vertex 4.124579906463622 1.799999952316284 5.129179954528808
  endloop
endfacet
facet normal 0.7071071183617378 9.814937589161531e-23 0.7071064440111965
  outer loop
    vertex 3.624580860137939 2.0071067810058594 5.6291794776916495
    vertex 4.124579906463622 2.7539975643157955 5.129179954528808
    vertex 3.624580860137939 2.5468907356262207 5.6291794776916495
  endloop
endfacet
facet normal 0.49999959024746404 -0.49999998361804593 0.707107082508952
  outer loop
    vertex 3.124579906463623 0.7999999523162842 5.129179954528808
    vertex 3.624580860137939 2.0071067810058594 5.6291794776916495
    vertex 2.91747236251831 1.2999999523162842 5.6291794776916495
  endloop
endfacet
facet normal 0.49999959024746404 -0.49999998361804593 0.707107082508952
  outer loop
    vertex 3.624580860137939 2.0071067810058594 5.6291794776916495
    vertex 3.124579906463623 0.7999999523162842 5.129179954528808
    vertex 4.124579906463622 1.799999952316284 5.129179954528808
  endloop
endfacet
facet normal 3.523696823279903e-18 -0.7071064440115185 0.7071071183614159
  outer loop
    vertex 3.124579906463623 0.7999999523162842 5.129179954528808
    vertex 0.7199980020523071 1.2999999523162842 5.6291794776916495
    vertex 0.21999888122081754 0.7999999523162842 5.129179954528808
  endloop
endfacet
facet normal 3.523696823279903e-18 -0.7071064440115185 0.7071071183614159
  outer loop
    vertex 0.7199980020523071 1.2999999523162842 5.6291794776916495
    vertex 3.124579906463623 0.7999999523162842 5.129179954528808
    vertex 2.91747236251831 1.2999999523162842 5.6291794776916495
  endloop
endfacet
facet normal -0.7071070656781037 3.664319537201516e-18 0.707106496694877
  outer loop
    vertex 0.7199980020523071 1.2999999523162842 5.6291794776916495
    vertex 0.21999888122081754 6.499999999999999 5.129179954528808
    vertex 0.21999888122081754 0.7999999523162842 5.129179954528808
  endloop
endfacet
facet normal -0.7071070656781037 3.664319537201516e-18 0.707106496694877
  outer loop
    vertex 0.21999888122081754 6.499999999999999 5.129179954528808
    vertex 0.7199980020523071 1.2999999523162842 5.6291794776916495
    vertex 0.7199980020523071 6.499999999999999 5.6291794776916495
  endloop
endfacet
facet normal -0.7057579259543157 0.06174383776135292 0.7057573580566925
  outer loop
    vertex 0.22759474813938138 6.586823940277099 5.129179954528808
    vertex 0.21999888122081754 6.499999999999999 5.129179954528808
    vertex 0.7199980020523071 6.499999999999999 5.6291794776916495
  endloop
endfacet
facet normal -0.6843120450049476 0.1833682082535424 0.7057571290911854
  outer loop
    vertex 0.7199980020523071 6.499999999999999 5.6291794776916495
    vertex 0.25015324354171753 6.671010017395019 5.129179954528808
    vertex 0.22759474813938138 6.586823940277099 5.129179954528808
  endloop
endfacet
facet normal -0.6420822447028559 0.29939414161903155 0.7057574222079036
  outer loop
    vertex 0.7199980020523071 6.499999999999999 5.6291794776916495
    vertex 0.2869851887226105 6.749999999999999 5.129179954528808
    vertex 0.25015324354171753 6.671010017395019 5.129179954528808
  endloop
endfacet
facet normal -0.5803274402799528 0.4063571640321836 0.705757690215161
  outer loop
    vertex 0.7199980020523071 6.499999999999999 5.6291794776916495
    vertex 0.33697670698165894 6.821393966674804 5.129179954528808
    vertex 0.2869851887226105 6.749999999999999 5.129179954528808
  endloop
endfacet
facet normal -0.5009555054035169 0.5009487223255048 0.7057577199056
  outer loop
    vertex 0.7199980020523071 6.499999999999999 5.6291794776916495
    vertex 0.39860421419143677 6.8830223083496085 5.129179954528808
    vertex 0.33697670698165894 6.821393966674804 5.129179954528808
  endloop
endfacet
facet normal -0.40634536295500784 0.5803358450402343 0.7057575737931546
  outer loop
    vertex 0.7199980020523071 6.499999999999999 5.6291794776916495
    vertex 0.4699993729591369 6.9330124855041495 5.129179954528808
    vertex 0.39860421419143677 6.8830223083496085 5.129179954528808
  endloop
endfacet
facet normal -0.29940865895850827 0.6420753883960525 0.7057575012401399
  outer loop
    vertex 0.7199980020523071 6.499999999999999 5.6291794776916495
    vertex 0.5489885807037354 6.969846248626708 5.129179954528808
    vertex 0.4699993729591369 6.9330124855041495 5.129179954528808
  endloop
endfacet
facet normal -0.1833625157789294 0.6843128856756373 0.7057577929470593
  outer loop
    vertex 0.7199980020523071 6.499999999999999 5.6291794776916495
    vertex 0.6331745386123656 6.992403984069823 5.129179954528808
    vertex 0.5489885807037354 6.969846248626708 5.129179954528808
  endloop
endfacet
facet normal -0.06174532813599052 0.7057572402797149 0.7057579133429109
  outer loop
    vertex 0.7199980020523071 7.0 5.129179954528808
    vertex 0.6331745386123656 6.992403984069823 5.129179954528808
    vertex 0.7199980020523071 6.499999999999999 5.6291794776916495
  endloop
endfacet
facet normal -0.7071081298869881 3.925976910255391e-22 0.7071054324835345
  outer loop
    vertex 18.815416336059567 2.0071067810058594 5.629179954528809
    vertex 18.315418243408203 2.7539975643157955 5.129179954528808
    vertex 18.315418243408203 1.799999952316284 5.129179954528808
  endloop
endfacet
facet normal -0.7071081298869881 3.925976910255391e-22 0.7071054324835345
  outer loop
    vertex 18.315418243408203 2.7539975643157955 5.129179954528808
    vertex 18.815416336059567 2.0071067810058594 5.629179954528809
    vertex 18.815416336059567 2.5468907356262207 5.629179954528809
  endloop
endfacet
facet normal -8.027972563661906e-09 0.707106612599093 0.7071069497739617
  outer loop
    vertex 21.71999931335449 6.499999999999999 5.629179954528809
    vertex 0.7199980020523071 7.0 5.129179954528808
    vertex 0.7199980020523071 6.499999999999999 5.6291794776916495
  endloop
endfacet
facet normal -8.027972563661906e-09 0.707106612599093 0.7071069497739617
  outer loop
    vertex 0.7199980020523071 7.0 5.129179954528808
    vertex 21.71999931335449 6.499999999999999 5.629179954528809
    vertex 21.71999931335449 7.0 5.129179954528808
  endloop
endfacet
facet normal -0.49999988486089286 -0.5000005030153065 0.7071065069164154
  outer loop
    vertex 19.3154182434082 0.7999999523162842 5.129179954528808
    vertex 18.815416336059567 2.0071067810058594 5.629179954528809
    vertex 18.315418243408203 1.799999952316284 5.129179954528808
  endloop
endfacet
facet normal -0.49999988486089286 -0.5000005030153065 0.7071065069164154
  outer loop
    vertex 18.815416336059567 2.0071067810058594 5.629179954528809
    vertex 19.3154182434082 0.7999999523162842 5.129179954528808
    vertex 19.522525787353516 1.2999999523162842 5.629179954528809
  endloop
endfacet
facet normal 0.061744681844465986 0.7057576050826251 0.7057576050826254
  outer loop
    vertex 21.80682373046875 6.992403984069823 5.129179954528808
    vertex 21.71999931335449 7.0 5.129179954528808
    vertex 21.71999931335449 6.499999999999999 5.629179954528809
  endloop
endfacet
facet normal 0.1833652535527286 0.6843124439137509 0.7057575099808243
  outer loop
    vertex 21.89100837707519 6.969846248626708 5.129179954528808
    vertex 21.80682373046875 6.992403984069823 5.129179954528808
    vertex 21.71999931335449 6.499999999999999 5.629179954528809
  endloop
endfacet
facet normal 0.299409414485206 0.6420755550876882 0.7057570290662809
  outer loop
    vertex 21.969997406005856 6.9330124855041495 5.129179954528808
    vertex 21.89100837707519 6.969846248626708 5.129179954528808
    vertex 21.71999931335449 6.499999999999999 5.629179954528809
  endloop
endfacet
facet normal 0.406342866032635 0.5803380928997858 0.7057571630198475
  outer loop
    vertex 22.041393280029297 6.8830223083496085 5.129179954528808
    vertex 21.969997406005856 6.9330124855041495 5.129179954528808
    vertex 21.71999931335449 6.499999999999999 5.629179954528809
  endloop
endfacet
facet normal 0.5009521406968355 0.5009521406968231 0.705757681830335
  outer loop
    vertex 22.103021621704098 6.821393966674804 5.129179954528808
    vertex 22.041393280029297 6.8830223083496085 5.129179954528808
    vertex 21.71999931335449 6.499999999999999 5.629179954528809
  endloop
endfacet
facet normal 0.5803346094115297 0.4063474066433463 0.7057574131621959
  outer loop
    vertex 22.153011322021484 6.749999999999999 5.129179954528808
    vertex 22.103021621704098 6.821393966674804 5.129179954528808
    vertex 21.71999931335449 6.499999999999999 5.629179954528809
  endloop
endfacet
facet normal 0.6420800756529234 0.29940015552740085 0.7057568443307541
  outer loop
    vertex 22.189844131469727 6.671010017395019 5.129179954528808
    vertex 22.153011322021484 6.749999999999999 5.129179954528808
    vertex 21.71999931335449 6.499999999999999 5.629179954528809
  endloop
endfacet
facet normal 0.684312999591077 0.1833661626649153 0.705756734987493
  outer loop
    vertex 22.21240234375 6.586823940277099 5.129179954528808
    vertex 22.189844131469727 6.671010017395019 5.129179954528808
    vertex 21.71999931335449 6.499999999999999 5.629179954528809
  endloop
endfacet
facet normal 0.7057572524737663 0.0617527421363472 0.7057572524737683
  outer loop
    vertex 22.219999313354492 6.499999999999999 5.129179954528808
    vertex 22.21240234375 6.586823940277099 5.129179954528808
    vertex 21.71999931335449 6.499999999999999 5.629179954528809
  endloop
endfacet
facet normal -1.1745653494150286e-18 -0.7071067811865479 0.7071067811865471
  outer loop
    vertex 21.71999931335449 1.2999999523162842 5.629179954528809
    vertex 19.3154182434082 0.7999999523162842 5.129179954528808
    vertex 22.219999313354492 0.7999999523162842 5.129179954528808
  endloop
endfacet
facet normal -1.1745653494150286e-18 -0.7071067811865479 0.7071067811865471
  outer loop
    vertex 19.3154182434082 0.7999999523162842 5.129179954528808
    vertex 21.71999931335449 1.2999999523162842 5.629179954528809
    vertex 19.522525787353516 1.2999999523162842 5.629179954528809
  endloop
endfacet
facet normal 0.7071067811865466 -1.5704190316290154e-18 0.7071067811865486
  outer loop
    vertex 22.219999313354492 0.7999999523162842 5.129179954528808
    vertex 21.71999931335449 6.499999999999999 5.629179954528809
    vertex 21.71999931335449 1.2999999523162842 5.629179954528809
  endloop
endfacet
facet normal 0.7071067811865466 -1.5704190316290154e-18 0.7071067811865486
  outer loop
    vertex 21.71999931335449 6.499999999999999 5.629179954528809
    vertex 22.219999313354492 0.7999999523162842 5.129179954528808
    vertex 22.219999313354492 6.499999999999999 5.129179954528808
  endloop
endfacet
facet normal -0.7071080205687805 -2.7359014283195124e-17 -0.7071055418021424
  outer loop
    vertex 20.319997787475586 5.900000095367431 0.029179966077208516
    vertex 20.319997787475586 4.051472187042235 0.029179966077208516
    vertex 19.81999969482422 4.2585787773132315 0.5291798114776611
  endloop
endfacet
facet normal -0.7071080205687805 -7.175637827713034e-17 -0.7071055418021424
  outer loop
    vertex 20.319997787475586 5.900000095367431 0.029179966077208516
    vertex 19.81999969482422 4.2585787773132315 0.5291798114776611
    vertex 19.81999969482422 5.400000095367432 0.5291798114776611
  endloop
endfacet
facet normal -0.5000005802554626 0.5000005802554635 -0.7071059605804499
  outer loop
    vertex 20.319997787475586 4.051472187042235 0.029179966077208516
    vertex 18.815416336059567 2.5468907356262207 0.029179966077208516
    vertex 18.315418243408203 2.7539975643157955 0.5291798114776611
  endloop
endfacet
facet normal -0.5000006331383907 0.5000007123693682 -0.7071058297676049
  outer loop
    vertex 20.319997787475586 4.051472187042235 0.029179966077208516
    vertex 18.315418243408203 2.7539975643157955 0.5291798114776611
    vertex 19.81999969482422 4.2585787773132315 0.5291798114776611
  endloop
endfacet
facet normal -2.5280434711003433e-18 -0.707106671868134 -0.7071068905049442
  outer loop
    vertex 19.81999969482422 5.400000095367432 0.5291798114776611
    vertex 2.619998455047607 5.400000095367432 0.5291798114776611
    vertex 2.119999408721924 5.900000095367431 0.029179966077208516
  endloop
endfacet
facet normal 2.2578692837567526e-18 -0.707106671868134 -0.7071068905049442
  outer loop
    vertex 20.319997787475586 5.900000095367431 0.029179966077208516
    vertex 19.81999969482422 5.400000095367432 0.5291798114776611
    vertex 2.119999408721924 5.900000095367431 0.029179966077208516
  endloop
endfacet
facet normal -0.7071080205687824 0.0 -0.7071055418021402
  outer loop
    vertex 18.815416336059567 2.5468907356262207 0.029179966077208516
    vertex 18.815416336059567 2.0071067810058594 0.029179966077208516
    vertex 18.315418243408203 1.799999952316284 0.5291798114776611
  endloop
endfacet
facet normal -0.7071080205687825 -7.70405115529591e-17 -0.7071055418021402
  outer loop
    vertex 18.315418243408203 2.7539975643157955 0.5291798114776611
    vertex 18.815416336059567 2.5468907356262207 0.029179966077208516
    vertex 18.315418243408203 1.799999952316284 0.5291798114776611
  endloop
endfacet
facet normal 0.7071073462181359 3.587815492246342e-17 -0.7071062161545077
  outer loop
    vertex 2.619998455047607 5.400000095367432 0.5291798114776611
    vertex 2.619998455047607 4.2585787773132315 0.5291798114776611
    vertex 2.119999408721924 4.051472187042235 0.029179966077208516
  endloop
endfacet
facet normal 0.707107346218136 -6.839747047902571e-18 -0.7071062161545076
  outer loop
    vertex 2.119999408721924 5.900000095367431 0.029179966077208516
    vertex 2.619998455047607 5.400000095367432 0.5291798114776611
    vertex 2.119999408721924 4.051472187042235 0.029179966077208516
  endloop
endfacet
facet normal -0.49999853376119563 -0.5000003882169688 -0.7071075434610602
  outer loop
    vertex 19.522525787353516 1.2999999523162842 0.029179966077208516
    vertex 19.3154182434082 0.7999999523162842 0.5291798114776611
    vertex 18.815416336059567 2.0071067810058594 0.029179966077208516
  endloop
endfacet
facet normal -0.500000580255463 -0.5000005802554622 -0.7071059605804505
  outer loop
    vertex 19.3154182434082 0.7999999523162842 0.5291798114776611
    vertex 18.315418243408203 1.799999952316284 0.5291798114776611
    vertex 18.815416336059567 2.0071067810058594 0.029179966077208516
  endloop
endfacet
facet normal 0.5000002116694405 0.5000002909003513 -0.707106425815859
  outer loop
    vertex 4.124579906463622 2.7539975643157955 0.5291798114776611
    vertex 3.624580860137939 2.5468907356262207 0.029179966077208516
    vertex 2.619998455047607 4.2585787773132315 0.5291798114776611
  endloop
endfacet
facet normal 0.5000003273740637 0.5000003273740636 -0.7071063182094036
  outer loop
    vertex 3.624580860137939 2.5468907356262207 0.029179966077208516
    vertex 2.119999408721924 4.051472187042235 0.029179966077208516
    vertex 2.619998455047607 4.2585787773132315 0.5291798114776611
  endloop
endfacet
facet normal -1.9359948771511943e-17 -0.707106671868134 -0.7071068905049442
  outer loop
    vertex 22.219999313354492 0.7999999523162842 0.5291798114776611
    vertex 19.522525787353516 1.2999999523162842 0.029179966077208516
    vertex 21.71999931335449 1.2999999523162842 0.029179966077208516
  endloop
endfacet
facet normal 0.0 -0.7071066718681339 -0.7071068905049442
  outer loop
    vertex 22.219999313354492 0.7999999523162842 0.5291798114776611
    vertex 19.3154182434082 0.7999999523162842 0.5291798114776611
    vertex 19.522525787353516 1.2999999523162842 0.029179966077208516
  endloop
endfacet
facet normal 0.707107346218136 -5.136029205427603e-17 -0.7071062161545076
  outer loop
    vertex 4.124579906463622 2.7539975643157955 0.5291798114776611
    vertex 4.124579906463622 1.799999952316284 0.5291798114776611
    vertex 3.624580860137939 2.0071067810058594 0.029179966077208516
  endloop
endfacet
facet normal 0.7071073462181359 1.6042871994754872e-16 -0.7071062161545077
  outer loop
    vertex 4.124579906463622 2.7539975643157955 0.5291798114776611
    vertex 3.624580860137939 2.0071067810058594 0.029179966077208516
    vertex 3.624580860137939 2.5468907356262207 0.029179966077208516
  endloop
endfacet
facet normal 0.7071066718681327 -6.9147233227697905e-18 -0.7071068905049456
  outer loop
    vertex 22.219999313354492 6.499999999999999 0.5291798114776611
    vertex 21.71999931335449 1.2999999523162842 0.029179966077208516
    vertex 21.71999931335449 6.499999999999999 0.029179966077208516
  endloop
endfacet
facet normal 0.7071066718681327 -5.754820527808309e-18 -0.7071068905049456
  outer loop
    vertex 22.219999313354492 0.7999999523162842 0.5291798114776611
    vertex 21.71999931335449 1.2999999523162842 0.029179966077208516
    vertex 22.219999313354492 6.499999999999999 0.5291798114776611
  endloop
endfacet
facet normal 0.4999996530242919 -0.4999996530242917 -0.7071072718839593
  outer loop
    vertex 4.124579906463622 1.799999952316284 0.5291798114776611
    vertex 3.124579906463623 0.7999999523162842 0.5291798114776611
    vertex 2.91747236251831 1.2999999523162842 0.029179966077208516
  endloop
endfacet
facet normal 0.4999997752286597 -0.5000009553398079 -0.7071062645957602
  outer loop
    vertex 4.124579906463622 1.799999952316284 0.5291798114776611
    vertex 2.91747236251831 1.2999999523162842 0.029179966077208516
    vertex 3.624580860137939 2.0071067810058594 0.029179966077208516
  endloop
endfacet
facet normal 0.7057571437800683 0.061752732625805 -0.7057573619996083
  outer loop
    vertex 22.219999313354492 6.499999999999999 0.5291798114776611
    vertex 21.71999931335449 6.499999999999999 0.029179966077208516
    vertex 22.21240234375 6.586823940277099 0.5291798114776611
  endloop
endfacet
facet normal 0.6843128942001633 0.1833661344247287 -0.705756844513412
  outer loop
    vertex 22.21240234375 6.586823940277099 0.5291798114776611
    vertex 21.71999931335449 6.499999999999999 0.029179966077208516
    vertex 22.189844131469727 6.671010017395019 0.5291798114776611
  endloop
endfacet
facet normal 0.642079976766264 0.2994001094168256 -0.7057569538566565
  outer loop
    vertex 22.189844131469727 6.671010017395019 0.5291798114776611
    vertex 21.71999931335449 6.499999999999999 0.029179966077208516
    vertex 22.153011322021484 6.749999999999999 0.5291798114776611
  endloop
endfacet
facet normal 0.5803345200341344 0.4063473440617419 -0.7057575226880116
  outer loop
    vertex 22.153011322021484 6.749999999999999 0.5291798114776611
    vertex 21.71999931335449 6.499999999999999 0.029179966077208516
    vertex 22.103021621704098 6.821393966674804 0.5291798114776611
  endloop
endfacet
facet normal 0.5009520635450859 0.5009520635450735 -0.7057577913561089
  outer loop
    vertex 22.103021621704098 6.821393966674804 0.5291798114776611
    vertex 21.71999931335449 6.499999999999999 0.029179966077208516
    vertex 22.041393280029297 6.8830223083496085 0.5291798114776611
  endloop
endfacet
facet normal 0.4063428034517693 0.5803380035219212 -0.7057572725457013
  outer loop
    vertex 22.041393280029297 6.8830223083496085 0.5291798114776611
    vertex 21.71999931335449 6.499999999999999 0.029179966077208516
    vertex 21.969997406005856 6.9330124855041495 0.5291798114776611
  endloop
endfacet
facet normal 0.2994093683731819 0.6420754562016723 -0.7057571385921553
  outer loop
    vertex 21.969997406005856 6.9330124855041495 0.5291798114776611
    vertex 21.71999931335449 6.499999999999999 0.029179966077208516
    vertex 21.89100837707519 6.969846248626708 0.5291798114776611
  endloop
endfacet
facet normal 0.1833652253126209 0.6843123385226909 -0.705757619506625
  outer loop
    vertex 21.89100837707519 6.969846248626708 0.5291798114776611
    vertex 21.71999931335449 6.499999999999999 0.029179966077208516
    vertex 21.80682373046875 6.992403984069823 0.5291798114776611
  endloop
endfacet
facet normal 0.0617446723351558 0.7057574963887641 -0.7057577146084116
  outer loop
    vertex 21.80682373046875 6.992403984069823 0.5291798114776611
    vertex 21.71999931335449 6.499999999999999 0.029179966077208516
    vertex 21.71999931335449 7.0 0.5291798114776611
  endloop
endfacet
facet normal 0.0 -0.707106671868134 -0.7071068905049442
  outer loop
    vertex 3.124579906463623 0.7999999523162842 0.5291798114776611
    vertex 0.21999888122081754 0.7999999523162842 0.5291798114776611
    vertex 0.7199980020523071 1.2999999523162842 0.029179966077208516
  endloop
endfacet
facet normal -1.935993406808929e-17 -0.707106671868134 -0.7071068905049442
  outer loop
    vertex 3.124579906463623 0.7999999523162842 0.5291798114776611
    vertex 0.7199980020523071 1.2999999523162842 0.029179966077208516
    vertex 2.91747236251831 1.2999999523162842 0.029179966077208516
  endloop
endfacet
facet normal -1.6959101925292264e-18 0.7071066718681335 -0.7071068905049447
  outer loop
    vertex 21.71999931335449 6.499999999999999 0.029179966077208516
    vertex 0.7199980020523071 6.499999999999999 0.029179966077208516
    vertex 0.7199980020523071 7.0 0.5291798114776611
  endloop
endfacet
facet normal 0.0 0.7071066718681336 -0.7071068905049447
  outer loop
    vertex 21.71999931335449 6.499999999999999 0.029179966077208516
    vertex 0.7199980020523071 7.0 0.5291798114776611
    vertex 21.71999931335449 7.0 0.5291798114776611
  endloop
endfacet
facet normal -0.7071072935345188 0.0 -0.7071062688382052
  outer loop
    vertex 0.7199980020523071 6.499999999999999 0.029179966077208516
    vertex 0.21999888122081754 0.7999999523162842 0.5291798114776611
    vertex 0.21999888122081754 6.499999999999999 0.5291798114776611
  endloop
endfacet
facet normal -0.7071072935345188 0.0 -0.7071062688382052
  outer loop
    vertex 0.7199980020523071 6.499999999999999 0.029179966077208516
    vertex 0.7199980020523071 1.2999999523162842 0.029179966077208516
    vertex 0.21999888122081754 0.7999999523162842 0.5291798114776611
  endloop
endfacet
facet normal -0.061745347956830156 0.7057574668345225 -0.7057576850541607
  outer loop
    vertex 0.7199980020523071 6.499999999999999 0.029179966077208516
    vertex 0.6331745386123656 6.992403984069823 0.5291798114776611
    vertex 0.7199980020523071 7.0 0.5291798114776611
  endloop
endfacet
facet normal -0.18336257464002576 0.684313105346528 -0.7057575646582704
  outer loop
    vertex 0.7199980020523071 6.499999999999999 0.029179966077208516
    vertex 0.5489885807037354 6.969846248626708 0.5291798114776611
    vertex 0.6331745386123656 6.992403984069823 0.5291798114776611
  endloop
endfacet
facet normal -0.29940875507142917 0.6420755945081383 -0.7057572729512588
  outer loop
    vertex 0.7199980020523071 6.499999999999999 0.029179966077208516
    vertex 0.4699993729591369 6.9330124855041495 0.5291798114776611
    vertex 0.5489885807037354 6.969846248626708 0.5291798114776611
  endloop
endfacet
facet normal -0.40634549339562215 0.580336031333397 -0.7057573455042965
  outer loop
    vertex 0.7199980020523071 6.499999999999999 0.029179966077208516
    vertex 0.39860421419143677 6.8830223083496085 0.5291798114776611
    vertex 0.4699993729591369 6.9330124855041495 0.5291798114776611
  endloop
endfacet
facet normal -0.5009556662149257 0.5009488831347353 -0.7057574916167886
  outer loop
    vertex 0.7199980020523071 6.499999999999999 0.029179966077208516
    vertex 0.33697670698165894 6.821393966674804 0.5291798114776611
    vertex 0.39860421419143677 6.8830223083496085 0.5291798114776611
  endloop
endfacet
facet normal -0.5803276265704786 0.4063572944766294 -0.7057574619263399
  outer loop
    vertex 0.7199980020523071 6.499999999999999 0.029179966077208516
    vertex 0.2869851887226105 6.749999999999999 0.5291798114776611
    vertex 0.33697670698165894 6.821393966674804 0.5291798114776611
  endloop
endfacet
facet normal -0.6420824508170955 0.2993942377272732 -0.7057571939189974
  outer loop
    vertex 0.7199980020523071 6.499999999999999 0.029179966077208516
    vertex 0.25015324354171753 6.671010017395019 0.5291798114776611
    vertex 0.2869851887226105 6.749999999999999 0.5291798114776611
  endloop
endfacet
facet normal -0.6843122646751554 0.18336826711635346 -0.7057569008021854
  outer loop
    vertex 0.7199980020523071 6.499999999999999 0.029179966077208516
    vertex 0.22759474813938138 6.586823940277099 0.5291798114776611
    vertex 0.25015324354171753 6.671010017395019 0.5291798114776611
  endloop
endfacet
facet normal -0.7057581525089869 0.0617438575816832 -0.7057571297677654
  outer loop
    vertex 0.22759474813938138 6.586823940277099 0.5291798114776611
    vertex 0.7199980020523071 6.499999999999999 0.029179966077208516
    vertex 0.21999888122081754 6.499999999999999 0.5291798114776611
  endloop
endfacet
endsolid UM2CableChain_Lid
