solid penguin-default
facet normal -1.0 0.0 0.0
  outer loop
    vertex 39.8176217359628 76.208468493598 2.2500000000000036
    vertex 39.8176217359628 74.56846849359799 5.639932965095795e-15
    vertex 39.8176217359628 74.56846849359799 2.2500000000000036
  endloop
endfacet
facet normal -1.0 0.0 0.0
  outer loop
    vertex 39.8176217359628 74.56846849359799 5.639932965095795e-15
    vertex 39.8176217359628 76.208468493598 2.2500000000000036
    vertex 39.8176217359628 76.208468493598 5.639932965095795e-15
  endloop
endfacet
facet normal 1.0 0.0 0.0
  outer loop
    vertex 52.51762173596276 76.208468493598 2.2500000000000036
    vertex 52.51762173596276 72.10846536554622 2.2500000000000036
    vertex 52.51762173596276 76.208468493598 5.639932965095795e-15
  endloop
endfacet
facet normal 0.0 0.0 1.0
  outer loop
    vertex 52.51762173596276 72.10846536554622 2.2500000000000036
    vertex 50.56762173596272 73.74846536554618 2.2500000000000036
    vertex 50.56762173596272 72.10846536554622 2.2500000000000036
  endloop
endfacet
facet normal 0.0 0.0 1.0
  outer loop
    vertex 41.76761925640956 72.10846536554622 2.2500000000000036
    vertex 39.8176217359628 76.208468493598 2.2500000000000036
    vertex 39.8176217359628 74.56846849359799 2.2500000000000036
  endloop
endfacet
facet normal 0.0 0.0 1.0
  outer loop
    vertex 39.8176217359628 76.208468493598 2.2500000000000036
    vertex 41.76761925640956 72.10846536554622 2.2500000000000036
    vertex 52.51762173596276 76.208468493598 2.2500000000000036
  endloop
endfacet
facet normal 0.0 0.0 1.0
  outer loop
    vertex 52.51762173596276 76.208468493598 2.2500000000000036
    vertex 41.76761925640956 72.10846536554622 2.2500000000000036
    vertex 49.00762074414148 73.74846536554618 2.2500000000000036
  endloop
endfacet
facet normal 0.0 0.0 1.0
  outer loop
    vertex 49.00762074414148 73.74846536554618 2.2500000000000036
    vertex 41.76761925640956 72.10846536554622 2.2500000000000036
    vertex 49.00762074414148 72.10846536554622 2.2500000000000036
  endloop
endfacet
facet normal 0.0 0.0 1.0
  outer loop
    vertex 52.51762173596276 76.208468493598 2.2500000000000036
    vertex 49.00762074414148 73.74846536554618 2.2500000000000036
    vertex 50.56762173596272 73.74846536554618 2.2500000000000036
  endloop
endfacet
facet normal 0.0 0.0 1.0
  outer loop
    vertex 52.51762173596276 76.208468493598 2.2500000000000036
    vertex 50.56762173596272 73.74846536554618 2.2500000000000036
    vertex 52.51762173596276 72.10846536554622 2.2500000000000036
  endloop
endfacet
facet normal -0.7836588647394017 -0.6211914227638305 0.0
  outer loop
    vertex 39.8176217359628 74.56846849359799 2.2500000000000036
    vertex 41.76761925640956 72.10846536554622 5.639932965095795e-15
    vertex 41.76761925640956 72.10846536554622 2.2500000000000036
  endloop
endfacet
facet normal -0.7836588647394017 -0.6211914227638305 0.0
  outer loop
    vertex 41.76761925640956 72.10846536554622 5.639932965095795e-15
    vertex 39.8176217359628 74.56846849359799 2.2500000000000036
    vertex 39.8176217359628 74.56846849359799 5.639932965095795e-15
  endloop
endfacet
facet normal 0.0 0.0 -1.0
  outer loop
    vertex 49.00762074414148 72.10846536554622 5.639932965095795e-15
    vertex 41.76761925640956 72.10846536554622 5.639932965095795e-15
    vertex 49.00762074414148 73.74846536554618 5.639932965095795e-15
  endloop
endfacet
facet normal 0.0 0.0 -1.0
  outer loop
    vertex 52.51762173596276 76.208468493598 5.639932965095795e-15
    vertex 50.56762173596272 73.74846536554618 5.639932965095795e-15
    vertex 49.00762074414148 73.74846536554618 5.639932965095795e-15
  endloop
endfacet
facet normal -1.0 0.0 0.0
  outer loop
    vertex 50.56762173596272 73.74846536554618 2.2500000000000036
    vertex 50.56762173596272 72.10846536554622 5.639932965095795e-15
    vertex 50.56762173596272 72.10846536554622 2.2500000000000036
  endloop
endfacet
facet normal 0.0 0.0 -1.0
  outer loop
    vertex 49.00762074414148 73.74846536554618 5.639932965095795e-15
    vertex 41.76761925640956 72.10846536554622 5.639932965095795e-15
    vertex 39.8176217359628 74.56846849359799 5.639932965095795e-15
  endloop
endfacet
facet normal 0.0 1.0 0.0
  outer loop
    vertex 52.51762173596276 76.208468493598 2.2500000000000036
    vertex 39.8176217359628 76.208468493598 5.639932965095795e-15
    vertex 39.8176217359628 76.208468493598 2.2500000000000036
  endloop
endfacet
facet normal 0.0 0.0 -1.0
  outer loop
    vertex 52.51762173596276 72.10846536554622 5.639932965095795e-15
    vertex 50.56762173596272 72.10846536554622 5.639932965095795e-15
    vertex 52.51762173596276 76.208468493598 5.639932965095795e-15
  endloop
endfacet
facet normal 1.0 0.0 0.0
  outer loop
    vertex 49.00762074414148 73.74846536554618 5.639932965095795e-15
    vertex 49.00762074414148 72.10846536554622 2.2500000000000036
    vertex 49.00762074414148 72.10846536554622 5.639932965095795e-15
  endloop
endfacet
facet normal 0.0 -1.0 0.0
  outer loop
    vertex 41.76761925640956 72.10846536554622 2.2500000000000036
    vertex 49.00762074414148 72.10846536554622 5.639932965095795e-15
    vertex 49.00762074414148 72.10846536554622 2.2500000000000036
  endloop
endfacet
facet normal 0.0 -1.0 0.0
  outer loop
    vertex 41.76761925640956 72.10846536554622 2.2500000000000036
    vertex 41.76761925640956 72.10846536554622 5.639932965095795e-15
    vertex 49.00762074414148 72.10846536554622 5.639932965095795e-15
  endloop
endfacet
facet normal 0.0 -1.0 0.0
  outer loop
    vertex 50.56762173596272 72.10846536554622 2.2500000000000036
    vertex 50.56762173596272 72.10846536554622 5.639932965095795e-15
    vertex 52.51762173596276 72.10846536554622 5.639932965095795e-15
  endloop
endfacet
facet normal 0.0 -1.0 0.0
  outer loop
    vertex 49.00762074414148 73.74846536554618 2.2500000000000036
    vertex 50.56762173596272 73.74846536554618 5.639932965095795e-15
    vertex 50.56762173596272 73.74846536554618 2.2500000000000036
  endloop
endfacet
facet normal 0.0 -1.0 0.0
  outer loop
    vertex 50.56762173596272 72.10846536554622 2.2500000000000036
    vertex 52.51762173596276 72.10846536554622 5.639932965095795e-15
    vertex 52.51762173596276 72.10846536554622 2.2500000000000036
  endloop
endfacet
facet normal 0.0 -1.0 0.0
  outer loop
    vertex 49.00762074414148 73.74846536554618 2.2500000000000036
    vertex 49.00762074414148 73.74846536554618 5.639932965095795e-15
    vertex 50.56762173596272 73.74846536554618 5.639932965095795e-15
  endloop
endfacet
facet normal -1.0 0.0 0.0
  outer loop
    vertex 50.56762173596272 73.74846536554618 5.639932965095795e-15
    vertex 50.56762173596272 72.10846536554622 5.639932965095795e-15
    vertex 50.56762173596272 73.74846536554618 2.2500000000000036
  endloop
endfacet
facet normal 1.0 0.0 0.0
  outer loop
    vertex 52.51762173596276 76.208468493598 5.639932965095795e-15
    vertex 52.51762173596276 72.10846536554622 2.2500000000000036
    vertex 52.51762173596276 72.10846536554622 5.639932965095795e-15
  endloop
endfacet
facet normal 0.0 1.0 0.0
  outer loop
    vertex 52.51762173596276 76.208468493598 2.2500000000000036
    vertex 52.51762173596276 76.208468493598 5.639932965095795e-15
    vertex 39.8176217359628 76.208468493598 5.639932965095795e-15
  endloop
endfacet
facet normal 0.0 0.0 -1.0
  outer loop
    vertex 52.51762173596276 76.208468493598 5.639932965095795e-15
    vertex 50.56762173596272 72.10846536554622 5.639932965095795e-15
    vertex 50.56762173596272 73.74846536554618 5.639932965095795e-15
  endloop
endfacet
facet normal 1.0 0.0 0.0
  outer loop
    vertex 49.00762074414148 73.74846536554618 2.2500000000000036
    vertex 49.00762074414148 72.10846536554622 2.2500000000000036
    vertex 49.00762074414148 73.74846536554618 5.639932965095795e-15
  endloop
endfacet
facet normal 0.0 0.0 -1.0
  outer loop
    vertex 49.00762074414148 73.74846536554618 5.639932965095795e-15
    vertex 39.8176217359628 74.56846849359799 5.639932965095795e-15
    vertex 39.8176217359628 76.208468493598 5.639932965095795e-15
  endloop
endfacet
facet normal 0.0 0.0 -1.0
  outer loop
    vertex 52.51762173596276 76.208468493598 5.639932965095795e-15
    vertex 49.00762074414148 73.74846536554618 5.639932965095795e-15
    vertex 39.8176217359628 76.208468493598 5.639932965095795e-15
  endloop
endfacet
endsolid penguin-default
