solid penguin-default
facet normal -1.0 0.0 0.0
  outer loop
    vertex 34.361281585693675 57.89685432434066 1.999999999999999
    vertex 34.361281585693675 56.256854324340644 7.049916206369744e-16
    vertex 34.361281585693675 56.256854324340644 1.999999999999999
  endloop
endfacet
facet normal 1.0 0.0 0.0
  outer loop
    vertex 46.061281585693635 57.89685432434066 1.999999999999999
    vertex 46.061281585693635 53.79685119628887 1.999999999999999
    vertex 46.061281585693635 57.89685432434066 7.049916206369744e-16
  endloop
endfacet
facet normal 0.0 0.0 1.0
  outer loop
    vertex 46.061281585693635 53.79685119628887 1.999999999999999
    vertex 44.11128158569359 55.436851196288835 1.999999999999999
    vertex 44.11128158569359 53.79685119628887 1.999999999999999
  endloop
endfacet
facet normal 0.0 0.0 1.0
  outer loop
    vertex 36.31127910614043 53.79685119628887 1.999999999999999
    vertex 34.361281585693675 57.89685432434066 1.999999999999999
    vertex 34.361281585693675 56.256854324340644 1.999999999999999
  endloop
endfacet
facet normal 0.0 0.0 1.0
  outer loop
    vertex 34.361281585693675 57.89685432434066 1.999999999999999
    vertex 36.31127910614043 53.79685119628887 1.999999999999999
    vertex 46.061281585693635 57.89685432434066 1.999999999999999
  endloop
endfacet
facet normal 0.0 0.0 1.0
  outer loop
    vertex 46.061281585693635 57.89685432434066 1.999999999999999
    vertex 36.31127910614043 53.79685119628887 1.999999999999999
    vertex 42.551280593872356 55.436851196288835 1.999999999999999
  endloop
endfacet
facet normal 0.0 0.0 1.0
  outer loop
    vertex 42.551280593872356 55.436851196288835 1.999999999999999
    vertex 36.31127910614043 53.79685119628887 1.999999999999999
    vertex 42.551280593872356 53.79685119628887 1.999999999999999
  endloop
endfacet
facet normal 0.0 0.0 1.0
  outer loop
    vertex 46.061281585693635 57.89685432434066 1.999999999999999
    vertex 42.551280593872356 55.436851196288835 1.999999999999999
    vertex 44.11128158569359 55.436851196288835 1.999999999999999
  endloop
endfacet
facet normal 0.0 0.0 1.0
  outer loop
    vertex 46.061281585693635 57.89685432434066 1.999999999999999
    vertex 44.11128158569359 55.436851196288835 1.999999999999999
    vertex 46.061281585693635 53.79685119628887 1.999999999999999
  endloop
endfacet
facet normal -0.7836588647393964 -0.6211914227638374 5.986227506139177e-17
  outer loop
    vertex 34.361281585693675 56.256854324340644 7.049916206369744e-16
    vertex 36.31127910614043 53.79685119628887 7.049916206369744e-16
    vertex 34.361281585693675 56.256854324340644 1.999999999999999
  endloop
endfacet
facet normal 0.0 0.0 -1.0
  outer loop
    vertex 42.551280593872356 53.79685119628887 7.049916206369744e-16
    vertex 36.31127910614043 53.79685119628887 7.049916206369744e-16
    vertex 42.551280593872356 55.436851196288835 7.049916206369744e-16
  endloop
endfacet
facet normal 0.0 0.0 -1.0
  outer loop
    vertex 46.061281585693635 57.89685432434066 7.049916206369744e-16
    vertex 44.11128158569359 55.436851196288835 7.049916206369744e-16
    vertex 42.551280593872356 55.436851196288835 7.049916206369744e-16
  endloop
endfacet
facet normal -1.0 0.0 0.0
  outer loop
    vertex 44.11128158569359 55.436851196288835 1.999999999999999
    vertex 44.11128158569359 53.79685119628887 7.049916206369744e-16
    vertex 44.11128158569359 53.79685119628887 1.999999999999999
  endloop
endfacet
facet normal -0.7836588647393964 -0.6211914227638374 1.1972455012278366e-16
  outer loop
    vertex 34.361281585693675 56.256854324340644 1.999999999999999
    vertex 36.31127910614043 53.79685119628887 7.049916206369744e-16
    vertex 36.31127910614043 53.79685119628887 1.999999999999999
  endloop
endfacet
facet normal 0.0 0.0 -1.0
  outer loop
    vertex 42.551280593872356 55.436851196288835 7.049916206369744e-16
    vertex 36.31127910614043 53.79685119628887 7.049916206369744e-16
    vertex 34.361281585693675 56.256854324340644 7.049916206369744e-16
  endloop
endfacet
facet normal 0.0 1.0 0.0
  outer loop
    vertex 46.061281585693635 57.89685432434066 1.999999999999999
    vertex 34.361281585693675 57.89685432434066 7.049916206369744e-16
    vertex 34.361281585693675 57.89685432434066 1.999999999999999
  endloop
endfacet
facet normal 0.0 0.0 -1.0
  outer loop
    vertex 46.061281585693635 53.79685119628887 7.049916206369744e-16
    vertex 44.11128158569359 53.79685119628887 7.049916206369744e-16
    vertex 46.061281585693635 57.89685432434066 7.049916206369744e-16
  endloop
endfacet
facet normal -1.0 0.0 0.0
  outer loop
    vertex 34.361281585693675 57.89685432434066 7.049916206369744e-16
    vertex 34.361281585693675 56.256854324340644 7.049916206369744e-16
    vertex 34.361281585693675 57.89685432434066 1.999999999999999
  endloop
endfacet
facet normal 1.0 0.0 0.0
  outer loop
    vertex 42.551280593872356 55.436851196288835 7.049916206369744e-16
    vertex 42.551280593872356 53.79685119628887 1.999999999999999
    vertex 42.551280593872356 53.79685119628887 7.049916206369744e-16
  endloop
endfacet
facet normal 0.0 -1.0 0.0
  outer loop
    vertex 36.31127910614043 53.79685119628887 1.999999999999999
    vertex 42.551280593872356 53.79685119628887 7.049916206369744e-16
    vertex 42.551280593872356 53.79685119628887 1.999999999999999
  endloop
endfacet
facet normal 0.0 -1.0 0.0
  outer loop
    vertex 36.31127910614043 53.79685119628887 1.999999999999999
    vertex 36.31127910614043 53.79685119628887 7.049916206369744e-16
    vertex 42.551280593872356 53.79685119628887 7.049916206369744e-16
  endloop
endfacet
facet normal 0.0 -1.0 0.0
  outer loop
    vertex 44.11128158569359 53.79685119628887 1.999999999999999
    vertex 44.11128158569359 53.79685119628887 7.049916206369744e-16
    vertex 46.061281585693635 53.79685119628887 7.049916206369744e-16
  endloop
endfacet
facet normal 0.0 -1.0 0.0
  outer loop
    vertex 42.551280593872356 55.436851196288835 1.999999999999999
    vertex 44.11128158569359 55.436851196288835 7.049916206369744e-16
    vertex 44.11128158569359 55.436851196288835 1.999999999999999
  endloop
endfacet
facet normal 0.0 -1.0 0.0
  outer loop
    vertex 44.11128158569359 53.79685119628887 1.999999999999999
    vertex 46.061281585693635 53.79685119628887 7.049916206369744e-16
    vertex 46.061281585693635 53.79685119628887 1.999999999999999
  endloop
endfacet
facet normal 0.0 -1.0 0.0
  outer loop
    vertex 42.551280593872356 55.436851196288835 1.999999999999999
    vertex 42.551280593872356 55.436851196288835 7.049916206369744e-16
    vertex 44.11128158569359 55.436851196288835 7.049916206369744e-16
  endloop
endfacet
facet normal -1.0 0.0 0.0
  outer loop
    vertex 44.11128158569359 55.436851196288835 7.049916206369744e-16
    vertex 44.11128158569359 53.79685119628887 7.049916206369744e-16
    vertex 44.11128158569359 55.436851196288835 1.999999999999999
  endloop
endfacet
facet normal 1.0 0.0 0.0
  outer loop
    vertex 46.061281585693635 57.89685432434066 7.049916206369744e-16
    vertex 46.061281585693635 53.79685119628887 1.999999999999999
    vertex 46.061281585693635 53.79685119628887 7.049916206369744e-16
  endloop
endfacet
facet normal 0.0 1.0 0.0
  outer loop
    vertex 46.061281585693635 57.89685432434066 1.999999999999999
    vertex 46.061281585693635 57.89685432434066 7.049916206369744e-16
    vertex 34.361281585693675 57.89685432434066 7.049916206369744e-16
  endloop
endfacet
facet normal 0.0 0.0 -1.0
  outer loop
    vertex 46.061281585693635 57.89685432434066 7.049916206369744e-16
    vertex 44.11128158569359 53.79685119628887 7.049916206369744e-16
    vertex 44.11128158569359 55.436851196288835 7.049916206369744e-16
  endloop
endfacet
facet normal 1.0 0.0 0.0
  outer loop
    vertex 42.551280593872356 55.436851196288835 1.999999999999999
    vertex 42.551280593872356 53.79685119628887 1.999999999999999
    vertex 42.551280593872356 55.436851196288835 7.049916206369744e-16
  endloop
endfacet
facet normal 0.0 0.0 -1.0
  outer loop
    vertex 42.551280593872356 55.436851196288835 7.049916206369744e-16
    vertex 34.361281585693675 56.256854324340644 7.049916206369744e-16
    vertex 34.361281585693675 57.89685432434066 7.049916206369744e-16
  endloop
endfacet
facet normal 0.0 0.0 -1.0
  outer loop
    vertex 46.061281585693635 57.89685432434066 7.049916206369744e-16
    vertex 42.551280593872356 55.436851196288835 7.049916206369744e-16
    vertex 34.361281585693675 57.89685432434066 7.049916206369744e-16
  endloop
endfacet
facet normal 0.3326468892351599 0.9430514551614728 -2.2635700097652553e-16
  outer loop
    vertex 20.043757343289762 82.52054188728385 1.999999999999999
    vertex 20.043757343289762 82.52054188728385 7.049916206369744e-16
    vertex 15.10145606994366 84.26386260986322 -3.524958103184872e-16
  endloop
endfacet
facet normal 0.9541158514616505 -0.29943770969871136 1.5895171917966245e-16
  outer loop
    vertex 5.104053688049744 48.193199844358894 -3.524958103184872e-16
    vertex 0.9217838287369082 34.86698928832819 1.999999999999999
    vertex 0.9217838287369082 34.86698928832819 -3.524958103184872e-16
  endloop
endfacet
facet normal -0.9738257876827044 0.22729570001247393 6.629021005418073e-17
  outer loop
    vertex 6.824414825438087 69.3404860305774 1.999999999999999
    vertex 5.104053688048574 61.96977008819415 -3.524958103184872e-16
    vertex 5.104053688048574 61.96977008819415 1.999999999999999
  endloop
endfacet
facet normal 0.2410794512148811 0.9705053828814819 5.823666532146285e-17
  outer loop
    vertex 15.10145606994908 20.167517089843706 1.999999999999999
    vertex 15.10145606994908 20.167517089843706 7.049916206369744e-16
    vertex 10.159154796603035 21.39521484374928 7.049916206369744e-16
  endloop
endfacet
facet normal 2.3787535549554633e-16 -2.5768222895888074e-17 -1.0
  outer loop
    vertex 10.159154796599687 61.19845195770187 7.049916206369744e-16
    vertex 2.619913291933523 25.261242828367415 -3.524958103184872e-16
    vertex 5.104053688049744 48.193199844358894 -3.524958103184872e-16
  endloop
endfacet
facet normal 0.8488282025641323 -0.5286687833906449 -5.898931560334361e-17
  outer loop
    vertex 17.772441959379105 77.1621896171573 7.049916206369744e-16
    vertex 16.969274997709274 75.87262838363668 1.999999999999999
    vertex 16.969274997709274 75.87262838363668 7.049916206369744e-16
  endloop
endfacet
facet normal 0.899263644966862 0.4374070150796783 1.1582758089159181e-16
  outer loop
    vertex 20.043757343289762 82.52054188728385 1.999999999999999
    vertex 22.650090742109168 77.16218961715796 1.999999999999999
    vertex 20.043757343289762 82.52054188728385 7.049916206369744e-16
  endloop
endfacet
facet normal 0.0 0.0 -1.0
  outer loop
    vertex 18.351456069949318 17.627495269775817 7.049916206369744e-16
    vertex 10.159154796603035 21.39521484374928 7.049916206369744e-16
    vertex 15.10145606994908 20.167517089843706 7.049916206369744e-16
  endloop
endfacet
facet normal -0.9957222889574416 -0.09239655444524626 0.0
  outer loop
    vertex 22.36344739373062 36.20004048486256 1.999999999999998
    vertex 23.378496694567158 25.261242828370253 7.049916206369744e-16
    vertex 23.378496694567158 25.261242828370253 1.999999999999999
  endloop
endfacet
facet normal -0.9957222889574416 -0.09239655444524626 0.0
  outer loop
    vertex 23.378496694567158 25.261242828370253 7.049916206369744e-16
    vertex 22.36344739373062 36.20004048486256 1.999999999999998
    vertex 20.043757343291556 61.19845195770313 1.999999999999999
  endloop
endfacet
facet normal -0.9957222889574416 -0.09239655444524626 0.0
  outer loop
    vertex 20.043757343291556 61.19845195770313 1.999999999999999
    vertex 22.36344739373062 36.20004048486256 1.999999999999998
    vertex 22.206521943422086 37.891165976663096 1.999999999999999
  endloop
endfacet
facet normal 0.2410794512148811 0.9705053828814819 -5.823666532146281e-17
  outer loop
    vertex 15.10145606994908 20.167517089843706 1.999999999999999
    vertex 10.159154796603035 21.39521484374928 7.049916206369744e-16
    vertex 10.159154796603035 21.39521484374928 1.999999999999999
  endloop
endfacet
facet normal 0.0 0.0 -1.0
  outer loop
    vertex 22.650090742109168 77.16218961715796 7.049916206369744e-16
    vertex 18.79465761184501 76.14896282196094 7.049916206369744e-16
    vertex 20.043757343289762 82.52054188728385 7.049916206369744e-16
  endloop
endfacet
facet normal 3.4915975263065206e-16 2.951795973950929e-29 -1.0
  outer loop
    vertex 27.582997918128953 53.01902984619298 7.049916206369744e-16
    vertex 25.09885783195538 48.19319984436151 -3.524958103184872e-16
    vertex 25.098857831954177 61.96977008819692 -3.524958103184872e-16
  endloop
endfacet
facet normal 5.100570666428766e-30 -3.7823275936875567e-17 -1.0
  outer loop
    vertex 27.58299791813131 25.261242828370772 7.049916206369744e-16
    vertex 23.378496694567158 25.261242828370253 7.049916206369744e-16
    vertex 25.09885783195538 48.19319984436151 -3.524958103184872e-16
  endloop
endfacet
facet normal -0.5365957291364484 -0.8438394536121924 0.0
  outer loop
    vertex 15.10145606994534 64.34125091552718 1.999999999999999
    vertex 15.10145606994534 64.34125091552718 7.049916206369744e-16
    vertex 20.043757343291556 61.19845195770313 7.049916206369744e-16
  endloop
endfacet
facet normal -0.7836580957023297 -0.621192392934909 -3.3486901330483016e-17
  outer loop
    vertex 1.4587686614220256e-12 36.02985504150181 1.999999999999999
    vertex 0.9217838287369082 34.86698928832819 -3.524958103184872e-16
    vertex 0.9217838287369082 34.86698928832819 1.999999999999999
  endloop
endfacet
facet normal 0.5365957291366502 -0.8438394536120642 -2.0254352716375109e-16
  outer loop
    vertex 10.159154796599687 61.19845195770187 1.999999999999999
    vertex 15.10145606994534 64.34125091552718 7.049916206369744e-16
    vertex 15.10145606994534 64.34125091552718 1.999999999999999
  endloop
endfacet
facet normal 0.0 0.0 -1.0
  outer loop
    vertex 16.791455078128212 15.167495269775614 7.049916206369744e-16
    vertex 11.851454830172901 15.167495269774937 7.049916206369744e-16
    vertex 16.791455078128006 17.627495269775586 7.049916206369744e-16
  endloop
endfacet
facet normal -0.479173821152113 -0.8777200288944551 -5.6176431378629e-17
  outer loop
    vertex 29.00653135180618 35.7419522857685 1.999999999999999
    vertex 29.00653135180618 35.7419522857685 -3.524958103184872e-16
    vertex 30.2029121398941 35.08881195068561 7.049916206369744e-16
  endloop
endfacet
facet normal 1.3455376577608117e-13 -1.0 0.0
  outer loop
    vertex 11.85145483017269 17.627495269774958 1.999999999999999
    vertex 10.29145507812803 17.627495269774712 7.049916206369744e-16
    vertex 11.85145483017269 17.627495269774958 7.049916206369744e-16
  endloop
endfacet
facet normal -0.3326468892354033 0.9430514551613869 0.0
  outer loop
    vertex 15.10145606994366 84.26386260986322 1.999999999999999
    vertex 10.159154796597884 82.52054188728273 -3.524958103184872e-16
    vertex 10.159154796597884 82.52054188728273 1.999999999999999
  endloop
endfacet
facet normal 0.3326468892351599 0.9430514551614728 1.1317850048826272e-16
  outer loop
    vertex 20.043757343289762 82.52054188728385 1.999999999999999
    vertex 15.10145606994366 84.26386260986322 -3.524958103184872e-16
    vertex 15.10145606994366 84.26386260986322 1.999999999999999
  endloop
endfacet
facet normal 0.9673774102751636 0.25333958650261934 -2.859653992868293e-16
  outer loop
    vertex 27.582997918128953 53.01902984619298 7.049916206369744e-16
    vertex 30.20291213989341 43.0148853302022 1.999999999999999
    vertex 30.20291213989341 43.0148853302022 7.049916206369744e-16
  endloop
endfacet
facet normal 1.0 8.454635044674942e-14 0.0
  outer loop
    vertex 10.29145507812803 17.627495269774712 1.999999999999999
    vertex 10.291455078128232 15.167495269774728 7.049916206369744e-16
    vertex 10.29145507812803 17.627495269774712 7.049916206369744e-16
  endloop
endfacet
facet normal 0.7572203454259225 0.6531595122732629 -1.043379234691569e-15
  outer loop
    vertex 6.824414825441822 25.261242828367987 7.049916206369744e-16
    vertex 8.656220586647354 23.137595288694808 1.999999999999999
    vertex 10.159154796603035 21.39521484374928 1.999999999999999
  endloop
endfacet
facet normal 0.7572203454259225 0.6531595122732629 -1.043379234691569e-15
  outer loop
    vertex 8.656220586647354 23.137595288694808 1.999999999999999
    vertex 6.824414825441822 25.261242828367987 7.049916206369744e-16
    vertex 7.699020369713222 24.247295852322814 1.999999999999999
  endloop
endfacet
facet normal 0.7572203454259225 0.6531595122732629 -1.043379234691569e-15
  outer loop
    vertex 7.699020369713222 24.247295852322814 1.999999999999999
    vertex 6.824414825441822 25.261242828367987 7.049916206369744e-16
    vertex 6.824414825441822 25.261242828367987 1.999999999999999
  endloop
endfacet
facet normal 1.0 8.454635044674942e-14 0.0
  outer loop
    vertex 30.20291213989341 43.0148853302022 7.049916206369744e-16
    vertex 30.2029121398941 35.08881195068561 1.999999999999999
    vertex 30.2029121398941 35.08881195068561 7.049916206369744e-16
  endloop
endfacet
facet normal 0.9956917527256044 0.09272504275660484 -3.009398358787092e-17
  outer loop
    vertex 22.650090742109168 77.16218961715796 1.999999999999999
    vertex 23.378496694563434 69.34048603057963 1.999999999999999
    vertex 22.650090742109168 77.16218961715796 7.049916206369744e-16
  endloop
endfacet
facet normal -1.0 -8.454635044674942e-14 0.0
  outer loop
    vertex 11.85145483017269 17.627495269774958 7.049916206369744e-16
    vertex 11.851454830172901 15.167495269774937 1.999999999999999
    vertex 11.85145483017269 17.627495269774958 1.999999999999999
  endloop
endfacet
facet normal -0.9957222889574416 -0.09239655444524612 -2.8652992328056367e-16
  outer loop
    vertex 20.043757343291556 61.19845195770313 1.999999999999999
    vertex 22.36344739373062 36.20004048486256 7.049916206369744e-16
    vertex 23.378496694567158 25.261242828370253 7.049916206369744e-16
  endloop
endfacet
facet normal -0.9957222889574416 -0.09239655444524612 -2.8652992328056367e-16
  outer loop
    vertex 22.36344739373062 36.20004048486256 7.049916206369744e-16
    vertex 20.043757343291556 61.19845195770313 1.999999999999999
    vertex 22.206521943422086 37.891165976663125 7.049916206369744e-16
  endloop
endfacet
facet normal -0.9957222889574416 -0.09239655444524612 -2.8652992328056367e-16
  outer loop
    vertex 22.206521943422086 37.891165976663125 7.049916206369744e-16
    vertex 20.043757343291556 61.19845195770313 1.999999999999999
    vertex 20.043757343291556 61.19845195770313 7.049916206369744e-16
  endloop
endfacet
facet normal -0.7039772136969128 -0.7102225584952446 3.1132673170009586e-17
  outer loop
    vertex 17.772441959379105 77.1621896171573 1.999999999999999
    vertex 17.772441959379105 77.1621896171573 7.049916206369744e-16
    vertex 18.79465761184501 76.14896282196094 7.049916206369744e-16
  endloop
endfacet
facet normal -0.3326468892354033 0.9430514551613869 -1.1317850048825914e-16
  outer loop
    vertex 15.10145606994366 84.26386260986322 1.999999999999999
    vertex 15.10145606994366 84.26386260986322 -3.524958103184872e-16
    vertex 10.159154796597884 82.52054188728273 -3.524958103184872e-16
  endloop
endfacet
facet normal 0.703977213697069 -0.71022255849509 0.0
  outer loop
    vertex 11.40825452804372 76.14896282195987 1.999999999999999
    vertex 12.430470180509454 77.16218961715657 7.049916206369744e-16
    vertex 12.430470180509454 77.16218961715657 1.999999999999999
  endloop
endfacet
facet normal 0.0 0.0 -1.0
  outer loop
    vertex 17.991489410398586 74.85939924240142 7.049916206369744e-16
    vertex 13.233637142179482 75.87262838363614 7.049916206369744e-16
    vertex 16.969274997709274 75.87262838363668 7.049916206369744e-16
  endloop
endfacet
facet normal -0.2410794512151371 0.9705053828814183 5.823666532146143e-17
  outer loop
    vertex 20.043757343294924 21.395214843750598 1.999999999999999
    vertex 20.043757343294924 21.395214843750598 7.049916206369744e-16
    vertex 15.10145606994908 20.167517089843706 7.049916206369744e-16
  endloop
endfacet
facet normal 0.8169088140475035 -0.5767668415672849 0.0
  outer loop
    vertex 25.999559569361715 18.87986083984518 1.999999999999999
    vertex 23.378496694568025 15.167495269776511 1.999999999999999
    vertex 25.999559569361715 18.87986083984518 7.049916206369744e-16
  endloop
endfacet
facet normal -0.8488282679575467 0.5286686783952607 0.0
  outer loop
    vertex 18.79465761184501 76.14896282196094 1.999999999999999
    vertex 17.991489410398586 74.85939924240142 7.049916206369744e-16
    vertex 17.991489410398586 74.85939924240142 1.999999999999999
  endloop
endfacet
facet normal -1.0 -8.454635044674942e-14 0.0
  outer loop
    vertex 8.685496766247517e-13 43.01488533019822 1.999999999999999
    vertex 1.4587686614220256e-12 36.02985504150181 7.049916206369744e-16
    vertex 1.4587686614220256e-12 36.02985504150181 1.999999999999999
  endloop
endfacet
facet normal 0.0 0.0 1.0
  outer loop
    vertex 4.2033535003691185 18.87986083984225 1.999999999999999
    vertex 5.104053688049744 48.193199844358894 1.999999999999999
    vertex 2.619913291933523 25.261242828367415 1.999999999999999
  endloop
endfacet
facet normal 0.0 0.0 1.0
  outer loop
    vertex 5.104053688049744 48.193199844358894 1.999999999999999
    vertex 4.2033535003691185 18.87986083984225 1.999999999999999
    vertex 6.824414825442671 15.167495269774271 1.999999999999999
  endloop
endfacet
facet normal 0.0 0.0 1.0
  outer loop
    vertex 5.104053688049744 48.193199844358894 1.999999999999999
    vertex 6.824414825442671 15.167495269774271 1.999999999999999
    vertex 6.824414825438087 69.3404860305774 1.999999999999999
  endloop
endfacet
facet normal 0.0 0.0 1.0
  outer loop
    vertex 6.824414825438087 69.3404860305774 1.999999999999999
    vertex 6.824414825442671 15.167495269774271 1.999999999999999
    vertex 6.824414825441822 25.261242828367987 1.999999999999999
  endloop
endfacet
facet normal 0.0 0.0 1.0
  outer loop
    vertex 6.824414825441822 25.261242828367987 1.999999999999999
    vertex 6.824414825442671 15.167495269774271 1.999999999999999
    vertex 7.699020369713222 24.247295852322814 1.999999999999999
  endloop
endfacet
facet normal 0.0 0.0 1.0
  outer loop
    vertex 7.699020369713222 24.247295852322814 1.999999999999999
    vertex 6.824414825442671 15.167495269774271 1.999999999999999
    vertex 10.291455078128232 15.167495269774728 1.999999999999999
  endloop
endfacet
facet normal 0.0 0.0 1.0
  outer loop
    vertex 7.699020369713222 24.247295852322814 1.999999999999999
    vertex 10.291455078128232 15.167495269774728 1.999999999999999
    vertex 8.656220586647354 23.137595288694808 1.999999999999999
  endloop
endfacet
facet normal 0.0 0.0 1.0
  outer loop
    vertex 8.656220586647354 23.137595288694808 1.999999999999999
    vertex 10.291455078128232 15.167495269774728 1.999999999999999
    vertex 10.159154796603035 21.39521484374928 1.999999999999999
  endloop
endfacet
facet normal 0.0 0.0 1.0
  outer loop
    vertex 10.159154796603035 21.39521484374928 1.999999999999999
    vertex 10.291455078128232 15.167495269774728 1.999999999999999
    vertex 10.29145507812803 17.627495269774712 1.999999999999999
  endloop
endfacet
facet normal 0.0 0.0 1.0
  outer loop
    vertex 6.824414825441822 25.261242828367987 1.999999999999999
    vertex 7.552820777891044 77.16218961715583 1.999999999999999
    vertex 6.824414825438087 69.3404860305774 1.999999999999999
  endloop
endfacet
facet normal 0.0 0.0 1.0
  outer loop
    vertex 7.552820777891044 77.16218961715583 1.999999999999999
    vertex 6.824414825441822 25.261242828367987 1.999999999999999
    vertex 10.159154796599687 61.19845195770187 1.999999999999999
  endloop
endfacet
facet normal 0.0 0.0 1.0
  outer loop
    vertex 7.552820777891044 77.16218961715583 1.999999999999999
    vertex 10.159154796599687 61.19845195770187 1.999999999999999
    vertex 10.159154796597884 82.52054188728273 1.999999999999999
  endloop
endfacet
facet normal 0.0 0.0 1.0
  outer loop
    vertex 10.159154796597884 82.52054188728273 1.999999999999999
    vertex 10.159154796599687 61.19845195770187 1.999999999999999
    vertex 11.40825452804372 76.14896282195987 1.999999999999999
  endloop
endfacet
facet normal 0.0 0.0 1.0
  outer loop
    vertex 10.159154796597884 82.52054188728273 1.999999999999999
    vertex 11.40825452804372 76.14896282195987 1.999999999999999
    vertex 15.10145606994366 84.26386260986322 1.999999999999999
  endloop
endfacet
facet normal 0.0 0.0 1.0
  outer loop
    vertex 15.10145606994366 84.26386260986322 1.999999999999999
    vertex 11.40825452804372 76.14896282195987 1.999999999999999
    vertex 12.430470180509454 77.16218961715657 1.999999999999999
  endloop
endfacet
facet normal 0.0 0.0 1.0
  outer loop
    vertex 15.10145606994366 84.26386260986322 1.999999999999999
    vertex 12.430470180509454 77.16218961715657 1.999999999999999
    vertex 13.233637142179482 75.87262838363614 1.999999999999999
  endloop
endfacet
facet normal 0.0 0.0 1.0
  outer loop
    vertex 1.4587686614220256e-12 36.02985504150181 1.999999999999999
    vertex 2.6199132919311756 53.01902984618945 1.999999999999999
    vertex 8.685496766247517e-13 43.01488533019822 1.999999999999999
  endloop
endfacet
facet normal 0.0 0.0 1.0
  outer loop
    vertex 2.6199132919311756 53.01902984618945 1.999999999999999
    vertex 1.4587686614220256e-12 36.02985504150181 1.999999999999999
    vertex 0.9217838287369082 34.86698928832819 1.999999999999999
  endloop
endfacet
facet normal 0.0 0.0 1.0
  outer loop
    vertex 2.6199132919311756 53.01902984618945 1.999999999999999
    vertex 0.9217838287369082 34.86698928832819 1.999999999999999
    vertex 5.104053688049744 48.193199844358894 1.999999999999999
  endloop
endfacet
facet normal 0.0 0.0 1.0
  outer loop
    vertex 2.6199132919311756 53.01902984618945 1.999999999999999
    vertex 5.104053688049744 48.193199844358894 1.999999999999999
    vertex 5.104053688048574 61.96977008819415 1.999999999999999
  endloop
endfacet
facet normal 0.0 0.0 1.0
  outer loop
    vertex 5.104053688048574 61.96977008819415 1.999999999999999
    vertex 5.104053688049744 48.193199844358894 1.999999999999999
    vertex 6.824414825438087 69.3404860305774 1.999999999999999
  endloop
endfacet
facet normal 0.0 0.0 1.0
  outer loop
    vertex 10.29145507812803 17.627495269774712 1.999999999999999
    vertex 15.10145606994908 20.167517089843706 1.999999999999999
    vertex 10.159154796603035 21.39521484374928 1.999999999999999
  endloop
endfacet
facet normal 0.0 0.0 1.0
  outer loop
    vertex 15.10145606994908 20.167517089843706 1.999999999999999
    vertex 10.29145507812803 17.627495269774712 1.999999999999999
    vertex 11.85145483017269 17.627495269774958 1.999999999999999
  endloop
endfacet
facet normal 0.0 0.0 1.0
  outer loop
    vertex 15.10145606994908 20.167517089843706 1.999999999999999
    vertex 11.85145483017269 17.627495269774958 1.999999999999999
    vertex 16.791455078128212 15.167495269775614 1.999999999999999
  endloop
endfacet
facet normal 0.0 0.0 1.0
  outer loop
    vertex 15.10145606994908 20.167517089843706 1.999999999999999
    vertex 16.791455078128212 15.167495269775614 1.999999999999999
    vertex 16.791455078128006 17.627495269775586 1.999999999999999
  endloop
endfacet
facet normal 0.0 0.0 1.0
  outer loop
    vertex 10.159154796599687 61.19845195770187 1.999999999999999
    vertex 12.506297397612013 71.0597774505611 1.999999999999999
    vertex 11.40825452804372 76.14896282195987 1.999999999999999
  endloop
endfacet
facet normal 0.0 0.0 1.0
  outer loop
    vertex 12.506297397612013 71.0597774505611 1.999999999999999
    vertex 10.159154796599687 61.19845195770187 1.999999999999999
    vertex 15.10145606994534 64.34125091552718 1.999999999999999
  endloop
endfacet
facet normal 0.0 0.0 1.0
  outer loop
    vertex 11.40825452804372 76.14896282195987 1.999999999999999
    vertex 12.506297397612013 71.0597774505611 1.999999999999999
    vertex 12.21142272949035 74.8593992424005 1.999999999999999
  endloop
endfacet
facet normal 0.0 0.0 1.0
  outer loop
    vertex 12.506297397612013 71.0597774505611 1.999999999999999
    vertex 15.10145606994534 64.34125091552718 1.999999999999999
    vertex 15.101456069944943 69.02565387725818 1.999999999999999
  endloop
endfacet
facet normal 0.0 0.0 1.0
  outer loop
    vertex 15.101456069944943 69.02565387725818 1.999999999999999
    vertex 15.10145606994534 64.34125091552718 1.999999999999999
    vertex 17.696614742277568 71.05977745056167 1.999999999999999
  endloop
endfacet
facet normal 0.0 0.0 1.0
  outer loop
    vertex 17.696614742277568 71.05977745056167 1.999999999999999
    vertex 15.10145606994534 64.34125091552718 1.999999999999999
    vertex 20.043757343291556 61.19845195770313 1.999999999999999
  endloop
endfacet
facet normal 0.0 0.0 1.0
  outer loop
    vertex 17.696614742277568 71.05977745056167 1.999999999999999
    vertex 20.043757343291556 61.19845195770313 1.999999999999999
    vertex 17.991489410398586 74.85939924240142 1.999999999999999
  endloop
endfacet
facet normal 0.0 0.0 1.0
  outer loop
    vertex 17.991489410398586 74.85939924240142 1.999999999999999
    vertex 20.043757343291556 61.19845195770313 1.999999999999999
    vertex 18.79465761184501 76.14896282196094 1.999999999999999
  endloop
endfacet
facet normal 0.0 0.0 1.0
  outer loop
    vertex 18.79465761184501 76.14896282196094 1.999999999999999
    vertex 20.043757343291556 61.19845195770313 1.999999999999999
    vertex 20.043757343289762 82.52054188728385 1.999999999999999
  endloop
endfacet
facet normal 0.0 0.0 1.0
  outer loop
    vertex 20.043757343289762 82.52054188728385 1.999999999999999
    vertex 20.043757343291556 61.19845195770313 1.999999999999999
    vertex 22.650090742109168 77.16218961715796 1.999999999999999
  endloop
endfacet
facet normal 0.0 0.0 1.0
  outer loop
    vertex 22.650090742109168 77.16218961715796 1.999999999999999
    vertex 20.043757343291556 61.19845195770313 1.999999999999999
    vertex 22.206521943422086 37.891165976663096 1.999999999999999
  endloop
endfacet
facet normal 0.0 0.0 1.0
  outer loop
    vertex 22.650090742109168 77.16218961715796 1.999999999999999
    vertex 22.206521943422086 37.891165976663096 1.999999999999999
    vertex 22.36344739373062 36.20004048486256 1.999999999999998
  endloop
endfacet
facet normal 0.0 0.0 1.0
  outer loop
    vertex 22.650090742109168 77.16218961715796 1.999999999999999
    vertex 22.36344739373062 36.20004048486256 1.999999999999998
    vertex 23.378496694567158 25.261242828370253 1.999999999999999
  endloop
endfacet
facet normal 0.0 0.0 1.0
  outer loop
    vertex 22.650090742109168 77.16218961715796 1.999999999999999
    vertex 23.378496694567158 25.261242828370253 1.999999999999999
    vertex 23.378496694563434 69.34048603057963 1.999999999999999
  endloop
endfacet
facet normal 0.0 0.0 1.0
  outer loop
    vertex 23.378496694563434 69.34048603057963 1.999999999999999
    vertex 23.378496694567158 25.261242828370253 1.999999999999999
    vertex 25.098857831954177 61.96977008819692 1.999999999999999
  endloop
endfacet
facet normal 0.0 0.0 1.0
  outer loop
    vertex 25.098857831954177 61.96977008819692 1.999999999999999
    vertex 23.378496694567158 25.261242828370253 1.999999999999999
    vertex 23.378496694568025 15.167495269776511 1.999999999999999
  endloop
endfacet
facet normal 0.0 0.0 1.0
  outer loop
    vertex 25.098857831954177 61.96977008819692 1.999999999999999
    vertex 23.378496694568025 15.167495269776511 1.999999999999999
    vertex 25.09885783195538 48.19319984436151 1.999999999999999
  endloop
endfacet
facet normal 0.0 0.0 1.0
  outer loop
    vertex 25.09885783195538 48.19319984436151 1.999999999999999
    vertex 23.378496694568025 15.167495269776511 1.999999999999999
    vertex 25.999559569361715 18.87986083984518 1.999999999999999
  endloop
endfacet
facet normal 0.0 0.0 1.0
  outer loop
    vertex 25.09885783195538 48.19319984436151 1.999999999999999
    vertex 25.999559569361715 18.87986083984518 1.999999999999999
    vertex 27.58299791813131 25.261242828370772 1.999999999999999
  endloop
endfacet
facet normal 0.0 0.0 1.0
  outer loop
    vertex 25.09885783195538 48.19319984436151 1.999999999999999
    vertex 27.582997918128953 53.01902984619298 1.999999999999999
    vertex 25.098857831954177 61.96977008819692 1.999999999999999
  endloop
endfacet
facet normal 0.0 0.0 1.0
  outer loop
    vertex 27.582997918128953 53.01902984619298 1.999999999999999
    vertex 25.09885783195538 48.19319984436151 1.999999999999999
    vertex 29.00653135180618 35.7419522857685 1.999999999999999
  endloop
endfacet
facet normal 0.0 0.0 1.0
  outer loop
    vertex 27.582997918128953 53.01902984619298 1.999999999999999
    vertex 29.00653135180618 35.7419522857685 1.999999999999999
    vertex 30.20291213989341 43.0148853302022 1.999999999999999
  endloop
endfacet
facet normal 0.0 0.0 1.0
  outer loop
    vertex 30.20291213989341 43.0148853302022 1.999999999999999
    vertex 29.00653135180618 35.7419522857685 1.999999999999999
    vertex 30.2029121398941 35.08881195068561 1.999999999999999
  endloop
endfacet
facet normal 0.0 0.0 1.0
  outer loop
    vertex 16.791455078128006 17.627495269775586 1.999999999999999
    vertex 20.043757343294924 21.395214843750598 1.999999999999999
    vertex 15.10145606994908 20.167517089843706 1.999999999999999
  endloop
endfacet
facet normal 0.0 0.0 1.0
  outer loop
    vertex 20.043757343294924 21.395214843750598 1.999999999999999
    vertex 16.791455078128006 17.627495269775586 1.999999999999999
    vertex 18.351456069949318 17.627495269775817 1.999999999999999
  endloop
endfacet
facet normal 0.0 0.0 1.0
  outer loop
    vertex 20.043757343294924 21.395214843750598 1.999999999999999
    vertex 18.351456069949318 17.627495269775817 1.999999999999999
    vertex 18.35145606994951 15.167495269775848 1.999999999999999
  endloop
endfacet
facet normal 0.0 0.0 1.0
  outer loop
    vertex 20.043757343294924 21.395214843750598 1.999999999999999
    vertex 18.35145606994951 15.167495269775848 1.999999999999999
    vertex 23.378496694568025 15.167495269776511 1.999999999999999
  endloop
endfacet
facet normal 0.0 0.0 1.0
  outer loop
    vertex 20.043757343294924 21.395214843750598 1.999999999999999
    vertex 23.378496694568025 15.167495269776511 1.999999999999999
    vertex 23.378496694567158 25.261242828370253 1.999999999999999
  endloop
endfacet
facet normal 0.0 0.0 1.0
  outer loop
    vertex 12.506297397612013 71.0597774505611 1.999999999999999
    vertex 13.233637142179482 75.87262838363614 1.999999999999999
    vertex 12.21142272949035 74.8593992424005 1.999999999999999
  endloop
endfacet
facet normal 0.0 0.0 1.0
  outer loop
    vertex 13.233637142179482 75.87262838363614 1.999999999999999
    vertex 12.506297397612013 71.0597774505611 1.999999999999999
    vertex 15.101456069944598 73.09390102386463 1.999999999999999
  endloop
endfacet
facet normal 0.0 0.0 1.0
  outer loop
    vertex 13.233637142179482 75.87262838363614 1.999999999999999
    vertex 15.101456069944598 73.09390102386463 1.999999999999999
    vertex 15.10145606994366 84.26386260986322 1.999999999999999
  endloop
endfacet
facet normal 0.0 0.0 1.0
  outer loop
    vertex 15.10145606994366 84.26386260986322 1.999999999999999
    vertex 15.101456069944598 73.09390102386463 1.999999999999999
    vertex 20.043757343289762 82.52054188728385 1.999999999999999
  endloop
endfacet
facet normal 0.0 0.0 1.0
  outer loop
    vertex 20.043757343289762 82.52054188728385 1.999999999999999
    vertex 15.101456069944598 73.09390102386463 1.999999999999999
    vertex 16.969274997709274 75.87262838363668 1.999999999999999
  endloop
endfacet
facet normal 0.0 0.0 1.0
  outer loop
    vertex 20.043757343289762 82.52054188728385 1.999999999999999
    vertex 16.969274997709274 75.87262838363668 1.999999999999999
    vertex 17.772441959379105 77.1621896171573 1.999999999999999
  endloop
endfacet
facet normal 0.0 0.0 1.0
  outer loop
    vertex 20.043757343289762 82.52054188728385 1.999999999999999
    vertex 17.772441959379105 77.1621896171573 1.999999999999999
    vertex 18.79465761184501 76.14896282196094 1.999999999999999
  endloop
endfacet
facet normal 0.0 0.0 1.0
  outer loop
    vertex 17.696614742277568 71.05977745056167 1.999999999999999
    vertex 16.969274997709274 75.87262838363668 1.999999999999999
    vertex 15.101456069944598 73.09390102386463 1.999999999999999
  endloop
endfacet
facet normal 0.0 0.0 1.0
  outer loop
    vertex 16.969274997709274 75.87262838363668 1.999999999999999
    vertex 17.696614742277568 71.05977745056167 1.999999999999999
    vertex 17.991489410398586 74.85939924240142 1.999999999999999
  endloop
endfacet
facet normal 0.0 0.0 -1.0
  outer loop
    vertex 15.10145606994534 64.34125091552718 7.049916206369744e-16
    vertex 10.159154796599687 61.19845195770187 7.049916206369744e-16
    vertex 12.21142272949035 74.8593992424005 7.049916206369744e-16
  endloop
endfacet
facet normal -1.699358570657778e-16 -1.4334681719561805e-29 -1.0
  outer loop
    vertex 5.104053688049744 48.193199844358894 -3.524958103184872e-16
    vertex 1.4587686614220256e-12 36.02985504150181 7.049916206369744e-16
    vertex 8.685496766247517e-13 43.01488533019822 7.049916206369744e-16
  endloop
endfacet
facet normal -0.9541158469691846 -0.29943772401331753 0.0
  outer loop
    vertex 25.09885783195538 48.19319984436151 1.999999999999999
    vertex 29.00653135180618 35.7419522857685 -3.524958103184872e-16
    vertex 29.00653135180618 35.7419522857685 1.999999999999999
  endloop
endfacet
facet normal -0.848828202564028 -0.5286687833908124 0.0
  outer loop
    vertex 12.430470180509454 77.16218961715657 7.049916206369744e-16
    vertex 13.233637142179482 75.87262838363614 7.049916206369744e-16
    vertex 12.430470180509454 77.16218961715657 1.999999999999999
  endloop
endfacet
facet normal -1.3758473838153887e-16 -1.1610196020276177e-29 -1.0
  outer loop
    vertex 25.09885783195538 48.19319984436151 -3.524958103184872e-16
    vertex 18.79465761184501 76.14896282196094 7.049916206369744e-16
    vertex 25.098857831954177 61.96977008819692 -3.524958103184872e-16
  endloop
endfacet
facet normal 0.7039784665662501 0.710221316640828 -6.226538850131911e-17
  outer loop
    vertex 17.991489410398586 74.85939924240142 1.999999999999999
    vertex 17.991489410398586 74.85939924240142 7.049916206369744e-16
    vertex 16.969274997709274 75.87262838363668 7.049916206369744e-16
  endloop
endfacet
facet normal 1.2226585881954538e-16 -7.61498529821267e-17 -1.0
  outer loop
    vertex 17.772441959379105 77.1621896171573 7.049916206369744e-16
    vertex 16.969274997709274 75.87262838363668 7.049916206369744e-16
    vertex 15.10145606994366 84.26386260986322 -3.524958103184872e-16
  endloop
endfacet
facet normal -0.5649312283460297 0.7207458758922248 0.4017189186779677
  outer loop
    vertex 15.101456069944783 71.05977745056127 5.6495323181152335
    vertex 15.101456069944598 73.09390102386463 1.999999999999999
    vertex 12.506297397612013 71.0597774505611 1.999999999999999
  endloop
endfacet
facet normal -1.116347578204016e-16 -5.746501874441725e-17 -1.0
  outer loop
    vertex 5.104053688049744 48.193199844358894 -3.524958103184872e-16
    vertex 8.685496766247517e-13 43.01488533019822 7.049916206369744e-16
    vertex 2.6199132919311756 53.01902984618945 -3.524958103184872e-16
  endloop
endfacet
facet normal 0.9635783123866324 0.2674263186339919 1.7791664221181987e-16
  outer loop
    vertex 25.098857831954177 61.96977008819692 1.999999999999999
    vertex 27.582997918128953 53.01902984619298 1.999999999999999
    vertex 25.098857831954177 61.96977008819692 -3.524958103184872e-16
  endloop
endfacet
facet normal 0.0 0.0 -1.0
  outer loop
    vertex 20.043757343291556 61.19845195770313 7.049916206369744e-16
    vertex 13.233637142179482 75.87262838363614 7.049916206369744e-16
    vertex 17.991489410398586 74.85939924240142 7.049916206369744e-16
  endloop
endfacet
facet normal -0.479173821152113 -0.8777200288944551 0.0
  outer loop
    vertex 29.00653135180618 35.7419522857685 1.999999999999999
    vertex 30.2029121398941 35.08881195068561 7.049916206369744e-16
    vertex 30.2029121398941 35.08881195068561 1.999999999999999
  endloop
endfacet
facet normal -0.8488282679575467 0.5286686783952607 0.0
  outer loop
    vertex 18.79465761184501 76.14896282196094 7.049916206369744e-16
    vertex 17.991489410398586 74.85939924240142 7.049916206369744e-16
    vertex 18.79465761184501 76.14896282196094 1.999999999999999
  endloop
endfacet
facet normal 0.0 0.0 -1.0
  outer loop
    vertex 16.791455078128006 17.627495269775586 7.049916206369744e-16
    vertex 11.85145483017269 17.627495269774958 7.049916206369744e-16
    vertex 10.159154796603035 21.39521484374928 7.049916206369744e-16
  endloop
endfacet
facet normal 1.3455376577608117e-13 -1.0 0.0
  outer loop
    vertex 18.351456069949318 17.627495269775817 1.999999999999999
    vertex 16.791455078128006 17.627495269775586 7.049916206369744e-16
    vertex 18.351456069949318 17.627495269775817 7.049916206369744e-16
  endloop
endfacet
facet normal 0.8169088140475035 -0.5767668415672849 -2.1920960658105737e-16
  outer loop
    vertex 25.999559569361715 18.87986083984518 7.049916206369744e-16
    vertex 23.378496694568025 15.167495269776511 1.999999999999999
    vertex 23.378496694568025 15.167495269776511 7.049916206369744e-16
  endloop
endfacet
facet normal -2.8963155581265897e-16 -6.760142117497708e-17 -1.0
  outer loop
    vertex 25.098857831954177 61.96977008819692 -3.524958103184872e-16
    vertex 18.79465761184501 76.14896282196094 7.049916206369744e-16
    vertex 23.378496694563434 69.34048603057963 -3.524958103184872e-16
  endloop
endfacet
facet normal 1.3455376577608117e-13 -1.0 0.0
  outer loop
    vertex 11.851454830172901 15.167495269774937 1.999999999999999
    vertex 11.851454830172901 15.167495269774937 7.049916206369744e-16
    vertex 16.791455078128212 15.167495269775614 1.999999999999999
  endloop
endfacet
facet normal 1.0 8.454635044674942e-14 0.0
  outer loop
    vertex 10.29145507812803 17.627495269774712 1.999999999999999
    vertex 10.291455078128232 15.167495269774728 1.999999999999999
    vertex 10.291455078128232 15.167495269774728 7.049916206369744e-16
  endloop
endfacet
facet normal 1.3455376577608117e-13 -1.0 0.0
  outer loop
    vertex 16.791455078128006 17.627495269775586 1.999999999999999
    vertex 16.791455078128006 17.627495269775586 7.049916206369744e-16
    vertex 18.351456069949318 17.627495269775817 1.999999999999999
  endloop
endfacet
facet normal 1.0 8.454635044674942e-14 0.0
  outer loop
    vertex 16.791455078128006 17.627495269775586 1.999999999999999
    vertex 16.791455078128212 15.167495269775614 7.049916206369744e-16
    vertex 16.791455078128006 17.627495269775586 7.049916206369744e-16
  endloop
endfacet
facet normal -0.8992636040463418 0.43740709920803134 0.0
  outer loop
    vertex 10.159154796597884 82.52054188728273 -3.524958103184872e-16
    vertex 7.552820777891044 77.16218961715583 7.049916206369744e-16
    vertex 10.159154796597884 82.52054188728273 1.999999999999999
  endloop
endfacet
facet normal -6.740794528274419e-16 2.1155167603640085e-16 -1.0
  outer loop
    vertex 5.104053688049744 48.193199844358894 -3.524958103184872e-16
    vertex 0.9217838287369082 34.86698928832819 -3.524958103184872e-16
    vertex 1.4587686614220256e-12 36.02985504150181 7.049916206369744e-16
  endloop
endfacet
facet normal 0.0 0.0 -1.0
  outer loop
    vertex 11.85145483017269 17.627495269774958 7.049916206369744e-16
    vertex 10.29145507812803 17.627495269774712 7.049916206369744e-16
    vertex 10.159154796603035 21.39521484374928 7.049916206369744e-16
  endloop
endfacet
facet normal 1.3758472485291385e-16 1.1632286363534049e-29 -1.0
  outer loop
    vertex 11.40825452804372 76.14896282195987 7.049916206369744e-16
    vertex 5.104053688049744 48.193199844358894 -3.524958103184872e-16
    vertex 5.104053688048574 61.96977008819415 -3.524958103184872e-16
  endloop
endfacet
facet normal -1.0 -8.454635044674942e-14 0.0
  outer loop
    vertex 8.685496766247517e-13 43.01488533019822 7.049916206369744e-16
    vertex 1.4587686614220256e-12 36.02985504150181 7.049916206369744e-16
    vertex 8.685496766247517e-13 43.01488533019822 1.999999999999999
  endloop
endfacet
facet normal -1.0 -8.454635044674942e-14 0.0
  outer loop
    vertex 18.351456069949318 17.627495269775817 7.049916206369744e-16
    vertex 18.35145606994951 15.167495269775848 7.049916206369744e-16
    vertex 18.35145606994951 15.167495269775848 1.999999999999999
  endloop
endfacet
facet normal -0.9635783037885758 0.2674263496141155 -1.7791664062424745e-16
  outer loop
    vertex 5.104053688048574 61.96977008819415 1.999999999999999
    vertex 2.6199132919311756 53.01902984618945 -3.524958103184872e-16
    vertex 2.6199132919311756 53.01902984618945 1.999999999999999
  endloop
endfacet
facet normal 0.0 0.0 -1.0
  outer loop
    vertex 18.351456069949318 17.627495269775817 7.049916206369744e-16
    vertex 16.791455078128006 17.627495269775586 7.049916206369744e-16
    vertex 10.159154796603035 21.39521484374928 7.049916206369744e-16
  endloop
endfacet
facet normal 0.0 0.0 -1.0
  outer loop
    vertex 7.699020369713222 24.247295852322814 7.049916206369744e-16
    vertex 10.29145507812803 17.627495269774712 7.049916206369744e-16
    vertex 6.824414825441822 25.261242828367987 7.049916206369744e-16
  endloop
endfacet
facet normal 0.0 0.0 -1.0
  outer loop
    vertex 10.29145507812803 17.627495269774712 7.049916206369744e-16
    vertex 7.699020369713222 24.247295852322814 7.049916206369744e-16
    vertex 8.656220586647354 23.1375952886948 7.049916206369744e-16
  endloop
endfacet
facet normal 0.0 0.0 -1.0
  outer loop
    vertex 10.29145507812803 17.627495269774712 7.049916206369744e-16
    vertex 8.656220586647354 23.1375952886948 7.049916206369744e-16
    vertex 10.159154796603035 21.39521484374928 7.049916206369744e-16
  endloop
endfacet
facet normal 0.0 0.0 -1.0
  outer loop
    vertex 10.29145507812803 17.627495269774712 7.049916206369744e-16
    vertex 6.824414825442671 15.167495269774271 7.049916206369744e-16
    vertex 4.2033535003691185 18.87986083984225 7.049916206369744e-16
  endloop
endfacet
facet normal 1.0 8.454635044674942e-14 0.0
  outer loop
    vertex 30.20291213989341 43.0148853302022 1.999999999999999
    vertex 30.2029121398941 35.08881195068561 1.999999999999999
    vertex 30.20291213989341 43.0148853302022 7.049916206369744e-16
  endloop
endfacet
facet normal 2.0629359534675006e-16 9.369293305139621e-17 -1.0
  outer loop
    vertex 10.29145507812803 17.627495269774712 7.049916206369744e-16
    vertex 2.619913291933523 25.261242828367415 -3.524958103184872e-16
    vertex 6.824414825441822 25.261242828367987 7.049916206369744e-16
  endloop
endfacet
facet normal 0.0 0.0 -1.0
  outer loop
    vertex 12.21142272949035 74.8593992424005 7.049916206369744e-16
    vertex 10.159154796599687 61.19845195770187 7.049916206369744e-16
    vertex 11.40825452804372 76.14896282195987 7.049916206369744e-16
  endloop
endfacet
facet normal 2.177794583143378e-29 -1.6187098090285774e-16 -1.0
  outer loop
    vertex 12.430470180509454 77.16218961715657 7.049916206369744e-16
    vertex 7.552820777891044 77.16218961715583 7.049916206369744e-16
    vertex 10.159154796597884 82.52054188728273 -3.524958103184872e-16
  endloop
endfacet
facet normal 0.0 0.0 -1.0
  outer loop
    vertex 12.430470180509454 77.16218961715657 7.049916206369744e-16
    vertex 11.40825452804372 76.14896282195987 7.049916206369744e-16
    vertex 7.552820777891044 77.16218961715583 7.049916206369744e-16
  endloop
endfacet
facet normal 0.0 0.0 -1.0
  outer loop
    vertex 11.40825452804372 76.14896282195987 7.049916206369744e-16
    vertex 6.824414825438087 69.3404860305774 7.049916206369744e-16
    vertex 7.552820777891044 77.16218961715583 7.049916206369744e-16
  endloop
endfacet
facet normal 1.3455376577608117e-13 -1.0 0.0
  outer loop
    vertex 10.29145507812803 17.627495269774712 1.999999999999999
    vertex 10.29145507812803 17.627495269774712 7.049916206369744e-16
    vertex 11.85145483017269 17.627495269774958 1.999999999999999
  endloop
endfacet
facet normal 0.0 0.0 -1.0
  outer loop
    vertex 20.043757343291556 61.19845195770313 7.049916206369744e-16
    vertex 15.10145606994534 64.34125091552718 7.049916206369744e-16
    vertex 13.233637142179482 75.87262838363614 7.049916206369744e-16
  endloop
endfacet
facet normal 2.3142344602314943e-16 6.06058395614587e-17 -1.0
  outer loop
    vertex 30.20291213989341 43.0148853302022 7.049916206369744e-16
    vertex 25.09885783195538 48.19319984436151 -3.524958103184872e-16
    vertex 27.582997918128953 53.01902984619298 7.049916206369744e-16
  endloop
endfacet
facet normal 0.0 0.0 -1.0
  outer loop
    vertex 5.104053688049744 48.193199844358894 -3.524958103184872e-16
    vertex 2.6199132919311756 53.01902984618945 -3.524958103184872e-16
    vertex 5.104053688048574 61.96977008819415 -3.524958103184872e-16
  endloop
endfacet
facet normal 0.0 0.0 -1.0
  outer loop
    vertex 25.999559569361715 18.87986083984518 7.049916206369744e-16
    vertex 18.35145606994951 15.167495269775848 7.049916206369744e-16
    vertex 18.351456069949318 17.627495269775817 7.049916206369744e-16
  endloop
endfacet
facet normal -0.9956917527256199 0.09272504275643602 3.009398358787066e-17
  outer loop
    vertex 7.552820777891044 77.16218961715583 7.049916206369744e-16
    vertex 6.824414825438087 69.3404860305774 7.049916206369744e-16
    vertex 7.552820777891044 77.16218961715583 1.999999999999999
  endloop
endfacet
facet normal 0.9956917527256044 0.09272504275660501 -3.009398358787092e-17
  outer loop
    vertex 22.650090742109168 77.16218961715796 7.049916206369744e-16
    vertex 23.378496694563434 69.34048603057963 1.999999999999999
    vertex 23.378496694563434 69.34048603057963 -3.524958103184872e-16
  endloop
endfacet
facet normal -0.9956917527256199 0.09272504275643602 3.009398358787065e-17
  outer loop
    vertex 7.552820777891044 77.16218961715583 1.999999999999999
    vertex 6.824414825438087 69.3404860305774 7.049916206369744e-16
    vertex 6.824414825438087 69.3404860305774 1.999999999999999
  endloop
endfacet
facet normal 0.9541158514616505 -0.29943770969871136 0.0
  outer loop
    vertex 5.104053688049744 48.193199844358894 1.999999999999999
    vertex 0.9217838287369082 34.86698928832819 1.999999999999999
    vertex 5.104053688049744 48.193199844358894 -3.524958103184872e-16
  endloop
endfacet
facet normal -0.8169089747230737 -0.5767666139929535 0.0
  outer loop
    vertex 4.2033535003691185 18.87986083984225 7.049916206369744e-16
    vertex 6.824414825442671 15.167495269774271 7.049916206369744e-16
    vertex 4.2033535003691185 18.87986083984225 1.999999999999999
  endloop
endfacet
facet normal 0.9673774102751634 0.2533395865026197 1.4298269964341492e-16
  outer loop
    vertex 27.582997918128953 53.01902984619298 1.999999999999999
    vertex 30.20291213989341 43.0148853302022 1.999999999999999
    vertex 27.582997918128953 53.01902984619298 7.049916206369744e-16
  endloop
endfacet
facet normal -0.8992636040463421 0.43740709920803067 -1.1582757562090327e-16
  outer loop
    vertex 10.159154796597884 82.52054188728273 1.999999999999999
    vertex 7.552820777891044 77.16218961715583 7.049916206369744e-16
    vertex 7.552820777891044 77.16218961715583 1.999999999999999
  endloop
endfacet
facet normal 0.0 0.0 -1.0
  outer loop
    vertex 25.999559569361715 18.87986083984518 7.049916206369744e-16
    vertex 23.378496694568025 15.167495269776511 7.049916206369744e-16
    vertex 18.35145606994951 15.167495269775848 7.049916206369744e-16
  endloop
endfacet
facet normal 0.0 0.0 -1.0
  outer loop
    vertex 20.043757343294924 21.395214843750598 7.049916206369744e-16
    vertex 18.351456069949318 17.627495269775817 7.049916206369744e-16
    vertex 15.10145606994908 20.167517089843706 7.049916206369744e-16
  endloop
endfacet
facet normal -0.7039784665664056 0.7102213166406738 -3.1132694250658063e-17
  outer loop
    vertex 13.233637142179482 75.87262838363614 1.999999999999999
    vertex 12.21142272949035 74.8593992424005 7.049916206369744e-16
    vertex 12.21142272949035 74.8593992424005 1.999999999999999
  endloop
endfacet
facet normal -0.9941838148074608 0.10769652907538194 1.1186440223792458e-16
  outer loop
    vertex 5.104053688049744 48.193199844358894 -3.524958103184872e-16
    vertex 2.619913291933523 25.261242828367415 -3.524958103184872e-16
    vertex 5.104053688049744 48.193199844358894 1.999999999999999
  endloop
endfacet
facet normal 0.848828267957443 0.5286686783954271 2.9494552757695164e-17
  outer loop
    vertex 11.40825452804372 76.14896282195987 1.999999999999999
    vertex 12.21142272949035 74.8593992424005 1.999999999999999
    vertex 11.40825452804372 76.14896282195987 7.049916206369744e-16
  endloop
endfacet
facet normal -0.9941838148074608 0.10769652907538203 -3.355932067137739e-16
  outer loop
    vertex 5.104053688049744 48.193199844358894 1.999999999999999
    vertex 2.619913291933523 25.261242828367415 -3.524958103184872e-16
    vertex 2.619913291933523 25.261242828367415 1.999999999999999
  endloop
endfacet
facet normal -0.2410794512151371 0.9705053828814183 -5.823666532146137e-17
  outer loop
    vertex 20.043757343294924 21.395214843750598 1.999999999999999
    vertex 15.10145606994908 20.167517089843706 7.049916206369744e-16
    vertex 15.10145606994908 20.167517089843706 1.999999999999999
  endloop
endfacet
facet normal -2.2538842285699914e-16 -2.091458021456922e-17 -1.0
  outer loop
    vertex 25.09885783195538 48.19319984436151 -3.524958103184872e-16
    vertex 22.206521943422086 37.891165976663125 7.049916206369744e-16
    vertex 20.043757343291556 61.19845195770313 7.049916206369744e-16
  endloop
endfacet
facet normal -2.2538842285699914e-16 -2.091458021456922e-17 -1.0
  outer loop
    vertex 22.206521943422086 37.891165976663125 7.049916206369744e-16
    vertex 25.09885783195538 48.19319984436151 -3.524958103184872e-16
    vertex 22.36344739373062 36.20004048486256 7.049916206369744e-16
  endloop
endfacet
facet normal -2.2538842285699914e-16 -2.091458021456922e-17 -1.0
  outer loop
    vertex 22.36344739373062 36.20004048486256 7.049916206369744e-16
    vertex 25.09885783195538 48.19319984436151 -3.524958103184872e-16
    vertex 23.378496694567158 25.261242828370253 7.049916206369744e-16
  endloop
endfacet
facet normal -3.1350734755946876e-17 -1.1034362869659723e-16 -1.0
  outer loop
    vertex 16.969274997709274 75.87262838363668 7.049916206369744e-16
    vertex 12.430470180509454 77.16218961715657 7.049916206369744e-16
    vertex 15.10145606994366 84.26386260986322 -3.524958103184872e-16
  endloop
endfacet
facet normal 0.994183816246166 0.10769651579419603 2.237288047996193e-16
  outer loop
    vertex 25.09885783195538 48.19319984436151 -3.524958103184872e-16
    vertex 27.58299791813131 25.261242828370772 1.999999999999999
    vertex 27.58299791813131 25.261242828370772 7.049916206369744e-16
  endloop
endfacet
facet normal 0.899263644966862 0.4374070150796783 2.3165516178318363e-16
  outer loop
    vertex 20.043757343289762 82.52054188728385 7.049916206369744e-16
    vertex 22.650090742109168 77.16218961715796 1.999999999999999
    vertex 22.650090742109168 77.16218961715796 7.049916206369744e-16
  endloop
endfacet
facet normal -0.7039772136969127 -0.7102225584952448 0.0
  outer loop
    vertex 17.772441959379105 77.1621896171573 1.999999999999999
    vertex 18.79465761184501 76.14896282196094 7.049916206369744e-16
    vertex 18.79465761184501 76.14896282196094 1.999999999999999
  endloop
endfacet
facet normal 0.0 0.0 -1.0
  outer loop
    vertex 15.10145606994534 64.34125091552718 7.049916206369744e-16
    vertex 12.21142272949035 74.8593992424005 7.049916206369744e-16
    vertex 13.233637142179482 75.87262838363614 7.049916206369744e-16
  endloop
endfacet
facet normal 0.0 0.0 -1.0
  outer loop
    vertex 20.043757343289762 82.52054188728385 7.049916206369744e-16
    vertex 18.79465761184501 76.14896282196094 7.049916206369744e-16
    vertex 17.772441959379105 77.1621896171573 7.049916206369744e-16
  endloop
endfacet
facet normal -1.0 -8.454635044674942e-14 0.0
  outer loop
    vertex 11.85145483017269 17.627495269774958 7.049916206369744e-16
    vertex 11.851454830172901 15.167495269774937 7.049916206369744e-16
    vertex 11.851454830172901 15.167495269774937 1.999999999999999
  endloop
endfacet
facet normal 0.5365957291366502 -0.8438394536120642 -1.0127176358187557e-16
  outer loop
    vertex 10.159154796599687 61.19845195770187 1.999999999999999
    vertex 10.159154796599687 61.19845195770187 7.049916206369744e-16
    vertex 15.10145606994534 64.34125091552718 7.049916206369744e-16
  endloop
endfacet
facet normal -0.9673774323105411 0.2533395023604974 0.0
  outer loop
    vertex 2.6199132919311756 53.01902984618945 1.999999999999999
    vertex 8.685496766247517e-13 43.01488533019822 7.049916206369744e-16
    vertex 8.685496766247517e-13 43.01488533019822 1.999999999999999
  endloop
endfacet
facet normal 2.062935953467654e-16 -1.9142707930404967e-17 -1.0
  outer loop
    vertex 10.159154796599687 61.19845195770187 7.049916206369744e-16
    vertex 6.824414825441822 25.261242828367987 7.049916206369744e-16
    vertex 2.619913291933523 25.261242828367415 -3.524958103184872e-16
  endloop
endfacet
facet normal -0.5649312283458594 -0.7207458758923493 0.401718918677984
  outer loop
    vertex 15.101456069944783 71.05977745056127 5.6495323181152335
    vertex 12.506297397612013 71.0597774505611 1.999999999999999
    vertex 15.101456069944943 69.02565387725818 1.999999999999999
  endloop
endfacet
facet normal 0.994183816246166 0.10769651579419603 -1.1186440239980952e-16
  outer loop
    vertex 25.09885783195538 48.19319984436151 1.999999999999999
    vertex 27.58299791813131 25.261242828370772 1.999999999999999
    vertex 25.09885783195538 48.19319984436151 -3.524958103184872e-16
  endloop
endfacet
facet normal -0.536595729136448 -0.8438394536121926 2.0254352716376028e-16
  outer loop
    vertex 15.10145606994534 64.34125091552718 1.999999999999999
    vertex 20.043757343291556 61.19845195770313 7.049916206369744e-16
    vertex 20.043757343291556 61.19845195770313 1.999999999999999
  endloop
endfacet
facet normal -3.657338089754055e-17 2.277869584865942e-17 -1.0
  outer loop
    vertex 25.09885783195538 48.19319984436151 -3.524958103184872e-16
    vertex 17.991489410398586 74.85939924240142 7.049916206369744e-16
    vertex 18.79465761184501 76.14896282196094 7.049916206369744e-16
  endloop
endfacet
facet normal 0.0 0.0 -1.0
  outer loop
    vertex 10.291455078128232 15.167495269774728 7.049916206369744e-16
    vertex 6.824414825442671 15.167495269774271 7.049916206369744e-16
    vertex 10.29145507812803 17.627495269774712 7.049916206369744e-16
  endloop
endfacet
facet normal 0.9705671206186152 -0.24083077954051235 8.814213453389732e-17
  outer loop
    vertex 27.58299791813131 25.261242828370772 7.049916206369744e-16
    vertex 25.999559569361715 18.87986083984518 1.999999999999999
    vertex 25.999559569361715 18.87986083984518 7.049916206369744e-16
  endloop
endfacet
facet normal 0.0 0.0 -1.0
  outer loop
    vertex 16.969274997709274 75.87262838363668 7.049916206369744e-16
    vertex 13.233637142179482 75.87262838363614 7.049916206369744e-16
    vertex 12.430470180509454 77.16218961715657 7.049916206369744e-16
  endloop
endfacet
facet normal 0.0 0.0 -1.0
  outer loop
    vertex 27.58299791813131 25.261242828370772 7.049916206369744e-16
    vertex 18.351456069949318 17.627495269775817 7.049916206369744e-16
    vertex 20.043757343294924 21.395214843750598 7.049916206369744e-16
  endloop
endfacet
facet normal -0.8169089747230737 -0.5767666139929535 0.0
  outer loop
    vertex 4.2033535003691185 18.87986083984225 1.999999999999999
    vertex 6.824414825442671 15.167495269774271 7.049916206369744e-16
    vertex 6.824414825442671 15.167495269774271 1.999999999999999
  endloop
endfacet
facet normal 1.5267051377010767e-16 -6.471446241577488e-17 -1.0
  outer loop
    vertex 20.043757343289762 82.52054188728385 7.049916206369744e-16
    vertex 17.772441959379105 77.1621896171573 7.049916206369744e-16
    vertex 15.10145606994366 84.26386260986322 -3.524958103184872e-16
  endloop
endfacet
facet normal 0.7039784665662495 0.7102213166408284 3.113269425065955e-17
  outer loop
    vertex 17.991489410398586 74.85939924240142 1.999999999999999
    vertex 16.969274997709274 75.87262838363668 7.049916206369744e-16
    vertex 16.969274997709274 75.87262838363668 1.999999999999999
  endloop
endfacet
facet normal 0.7572203454259225 0.6531595122732629 1.304224043364461e-16
  outer loop
    vertex 8.656220586647354 23.1375952886948 7.049916206369744e-16
    vertex 10.159154796603035 21.39521484374928 1.999999999999999
    vertex 10.159154796603035 21.39521484374928 7.049916206369744e-16
  endloop
endfacet
facet normal 0.7572203454259225 0.6531595122732629 1.304224043364461e-16
  outer loop
    vertex 10.159154796603035 21.39521484374928 1.999999999999999
    vertex 8.656220586647354 23.1375952886948 7.049916206369744e-16
    vertex 6.824414825441822 25.261242828367987 7.049916206369744e-16
  endloop
endfacet
facet normal 0.7572203454259225 0.6531595122732629 1.304224043364461e-16
  outer loop
    vertex 6.824414825441822 25.261242828367987 7.049916206369744e-16
    vertex 8.656220586647354 23.1375952886948 7.049916206369744e-16
    vertex 7.699020369713222 24.247295852322814 7.049916206369744e-16
  endloop
endfacet
facet normal -0.9635783037885758 0.2674263496141155 0.0
  outer loop
    vertex 5.104053688048574 61.96977008819415 -3.524958103184872e-16
    vertex 2.6199132919311756 53.01902984618945 -3.524958103184872e-16
    vertex 5.104053688048574 61.96977008819415 1.999999999999999
  endloop
endfacet
facet normal 0.0 0.0 -1.0
  outer loop
    vertex 27.58299791813131 25.261242828370772 7.049916206369744e-16
    vertex 20.043757343294924 21.395214843750598 7.049916206369744e-16
    vertex 23.378496694567158 25.261242828370253 7.049916206369744e-16
  endloop
endfacet
facet normal 0.5649312283458594 0.7207458758923493 0.401718918677984
  outer loop
    vertex 15.101456069944783 71.05977745056127 5.6495323181152335
    vertex 17.696614742277568 71.05977745056167 1.999999999999999
    vertex 15.101456069944598 73.09390102386463 1.999999999999999
  endloop
endfacet
facet normal 0.703977213697069 -0.71022255849509 0.0
  outer loop
    vertex 11.40825452804372 76.14896282195987 1.999999999999999
    vertex 11.40825452804372 76.14896282195987 7.049916206369744e-16
    vertex 12.430470180509454 77.16218961715657 7.049916206369744e-16
  endloop
endfacet
facet normal -2.8446670400871e-17 1.0824253368456794e-16 -1.0
  outer loop
    vertex 23.378496694563434 69.34048603057963 -3.524958103184872e-16
    vertex 18.79465761184501 76.14896282196094 7.049916206369744e-16
    vertex 22.650090742109168 77.16218961715796 7.049916206369744e-16
  endloop
endfacet
facet normal 0.9738257876826649 0.22729570001264338 6.62902100541822e-17
  outer loop
    vertex 23.378496694563434 69.34048603057963 -3.524958103184872e-16
    vertex 25.098857831954177 61.96977008819692 1.999999999999999
    vertex 25.098857831954177 61.96977008819692 -3.524958103184872e-16
  endloop
endfacet
facet normal -0.9705670545061145 -0.24083104597897095 -8.814212852989072e-17
  outer loop
    vertex 2.619913291933523 25.261242828367415 1.999999999999999
    vertex 4.2033535003691185 18.87986083984225 7.049916206369744e-16
    vertex 4.2033535003691185 18.87986083984225 1.999999999999999
  endloop
endfacet
facet normal -2.6753836846168603e-16 1.8012149162015435e-16 -1.0
  outer loop
    vertex 11.40825452804372 76.14896282195987 7.049916206369744e-16
    vertex 5.104053688048574 61.96977008819415 -3.524958103184872e-16
    vertex 6.824414825438087 69.3404860305774 7.049916206369744e-16
  endloop
endfacet
facet normal 0.0 0.0 -1.0
  outer loop
    vertex 16.791455078128006 17.627495269775586 7.049916206369744e-16
    vertex 11.851454830172901 15.167495269774937 7.049916206369744e-16
    vertex 11.85145483017269 17.627495269774958 7.049916206369744e-16
  endloop
endfacet
facet normal 2.1856018981214307e-16 -1.8260477978138798e-17 -1.0
  outer loop
    vertex 11.40825452804372 76.14896282195987 7.049916206369744e-16
    vertex 10.159154796599687 61.19845195770187 7.049916206369744e-16
    vertex 5.104053688049744 48.193199844358894 -3.524958103184872e-16
  endloop
endfacet
facet normal 0.0 0.0 1.0
  outer loop
    vertex 16.791455078128212 15.167495269775614 1.999999999999999
    vertex 11.85145483017269 17.627495269774958 1.999999999999999
    vertex 11.851454830172901 15.167495269774937 1.999999999999999
  endloop
endfacet
facet normal -0.9673774323105411 0.2533395023604974 0.0
  outer loop
    vertex 2.6199132919311756 53.01902984618945 -3.524958103184872e-16
    vertex 8.685496766247517e-13 43.01488533019822 7.049916206369744e-16
    vertex 2.6199132919311756 53.01902984618945 1.999999999999999
  endloop
endfacet
facet normal -2.796735007451658e-16 -4.201501881953208e-17 -1.0
  outer loop
    vertex 25.09885783195538 48.19319984436151 -3.524958103184872e-16
    vertex 20.043757343291556 61.19845195770313 7.049916206369744e-16
    vertex 17.991489410398586 74.85939924240142 7.049916206369744e-16
  endloop
endfacet
facet normal -0.7572204054759581 0.6531594426560989 1.721798790274537e-16
  outer loop
    vertex 23.378496694567158 25.261242828370253 1.999999999999999
    vertex 20.043757343294924 21.395214843750598 7.049916206369744e-16
    vertex 20.043757343294924 21.395214843750598 1.999999999999999
  endloop
endfacet
facet normal 0.0 0.0 -1.0
  outer loop
    vertex 27.58299791813131 25.261242828370772 7.049916206369744e-16
    vertex 25.999559569361715 18.87986083984518 7.049916206369744e-16
    vertex 18.351456069949318 17.627495269775817 7.049916206369744e-16
  endloop
endfacet
facet normal 0.9957222873772961 -0.09239657147386657 0.0
  outer loop
    vertex 10.159154796599687 61.19845195770187 1.999999999999999
    vertex 6.824414825441822 25.261242828367987 1.999999999999999
    vertex 10.159154796599687 61.19845195770187 7.049916206369744e-16
  endloop
endfacet
facet normal -1.0 -8.454635044674942e-14 0.0
  outer loop
    vertex 18.351456069949318 17.627495269775817 7.049916206369744e-16
    vertex 18.35145606994951 15.167495269775848 1.999999999999999
    vertex 18.351456069949318 17.627495269775817 1.999999999999999
  endloop
endfacet
facet normal 0.8488282025641323 -0.5286687833906449 2.94946578016718e-17
  outer loop
    vertex 17.772441959379105 77.1621896171573 1.999999999999999
    vertex 16.969274997709274 75.87262838363668 1.999999999999999
    vertex 17.772441959379105 77.1621896171573 7.049916206369744e-16
  endloop
endfacet
facet normal 0.9957222873772961 -0.09239657147386657 3.649614362333916e-16
  outer loop
    vertex 10.159154796599687 61.19845195770187 7.049916206369744e-16
    vertex 6.824414825441822 25.261242828367987 1.999999999999999
    vertex 6.824414825441822 25.261242828367987 7.049916206369744e-16
  endloop
endfacet
facet normal 1.3455376577608117e-13 -1.0 0.0
  outer loop
    vertex 6.824414825442671 15.167495269774271 1.999999999999999
    vertex 6.824414825442671 15.167495269774271 7.049916206369744e-16
    vertex 10.291455078128232 15.167495269774728 1.999999999999999
  endloop
endfacet
facet normal 1.3455376577608117e-13 -1.0 0.0
  outer loop
    vertex 10.291455078128232 15.167495269774728 1.999999999999999
    vertex 6.824414825442671 15.167495269774271 7.049916206369744e-16
    vertex 10.291455078128232 15.167495269774728 7.049916206369744e-16
  endloop
endfacet
facet normal -0.9738257876827044 0.22729570001247393 -6.629021005418078e-17
  outer loop
    vertex 6.824414825438087 69.3404860305774 7.049916206369744e-16
    vertex 5.104053688048574 61.96977008819415 -3.524958103184872e-16
    vertex 6.824414825438087 69.3404860305774 1.999999999999999
  endloop
endfacet
facet normal -2.9463762965332626e-17 -1.4323164584146298e-16 -1.0
  outer loop
    vertex 10.29145507812803 17.627495269774712 7.049916206369744e-16
    vertex 4.2033535003691185 18.87986083984225 7.049916206369744e-16
    vertex 2.619913291933523 25.261242828367415 -3.524958103184872e-16
  endloop
endfacet
facet normal 0.9635783123866324 0.2674263186339919 8.895832110590993e-17
  outer loop
    vertex 25.098857831954177 61.96977008819692 -3.524958103184872e-16
    vertex 27.582997918128953 53.01902984619298 1.999999999999999
    vertex 27.582997918128953 53.01902984619298 7.049916206369744e-16
  endloop
endfacet
facet normal 0.9738257876826649 0.22729570001264338 0.0
  outer loop
    vertex 23.378496694563434 69.34048603057963 1.999999999999999
    vertex 25.098857831954177 61.96977008819692 1.999999999999999
    vertex 23.378496694563434 69.34048603057963 -3.524958103184872e-16
  endloop
endfacet
facet normal -0.7039784665664056 0.7102213166406738 -3.1132694250658063e-17
  outer loop
    vertex 13.233637142179482 75.87262838363614 1.999999999999999
    vertex 13.233637142179482 75.87262838363614 7.049916206369744e-16
    vertex 12.21142272949035 74.8593992424005 7.049916206369744e-16
  endloop
endfacet
facet normal -0.9705670545061145 -0.24083104597897095 1.762842570597814e-16
  outer loop
    vertex 2.619913291933523 25.261242828367415 -3.524958103184872e-16
    vertex 4.2033535003691185 18.87986083984225 7.049916206369744e-16
    vertex 2.619913291933523 25.261242828367415 1.999999999999999
  endloop
endfacet
facet normal -0.7572204054759581 0.6531594426560989 0.0
  outer loop
    vertex 23.378496694567158 25.261242828370253 7.049916206369744e-16
    vertex 20.043757343294924 21.395214843750598 7.049916206369744e-16
    vertex 23.378496694567158 25.261242828370253 1.999999999999999
  endloop
endfacet
facet normal -0.9541158469691846 -0.29943772401331753 1.820760542817224e-16
  outer loop
    vertex 25.09885783195538 48.19319984436151 -3.524958103184872e-16
    vertex 29.00653135180618 35.7419522857685 -3.524958103184872e-16
    vertex 25.09885783195538 48.19319984436151 1.999999999999999
  endloop
endfacet
facet normal 1.3455376577608117e-13 -1.0 0.0
  outer loop
    vertex 16.791455078128212 15.167495269775614 1.999999999999999
    vertex 11.851454830172901 15.167495269774937 7.049916206369744e-16
    vertex 16.791455078128212 15.167495269775614 7.049916206369744e-16
  endloop
endfacet
facet normal 1.3455376577608117e-13 -1.0 0.0
  outer loop
    vertex 18.35145606994951 15.167495269775848 1.999999999999999
    vertex 18.35145606994951 15.167495269775848 7.049916206369744e-16
    vertex 23.378496694568025 15.167495269776511 1.999999999999999
  endloop
endfacet
facet normal 1.3455376577608117e-13 -1.0 0.0
  outer loop
    vertex 23.378496694568025 15.167495269776511 1.999999999999999
    vertex 18.35145606994951 15.167495269775848 7.049916206369744e-16
    vertex 23.378496694568025 15.167495269776511 7.049916206369744e-16
  endloop
endfacet
facet normal 0.5649312283460297 -0.7207458758922248 0.4017189186779677
  outer loop
    vertex 15.101456069944783 71.05977745056127 5.6495323181152335
    vertex 15.101456069944943 69.02565387725818 1.999999999999999
    vertex 17.696614742277568 71.05977745056167 1.999999999999999
  endloop
endfacet
facet normal 1.0 8.454635044674942e-14 0.0
  outer loop
    vertex 16.791455078128006 17.627495269775586 1.999999999999999
    vertex 16.791455078128212 15.167495269775614 1.999999999999999
    vertex 16.791455078128212 15.167495269775614 7.049916206369744e-16
  endloop
endfacet
facet normal -0.7836580957023297 -0.621192392934909 3.348690133048308e-17
  outer loop
    vertex 1.4587686614220256e-12 36.02985504150181 7.049916206369744e-16
    vertex 0.9217838287369082 34.86698928832819 -3.524958103184872e-16
    vertex 1.4587686614220256e-12 36.02985504150181 1.999999999999999
  endloop
endfacet
facet normal 0.848828267957443 0.5286686783954271 0.0
  outer loop
    vertex 11.40825452804372 76.14896282195987 7.049916206369744e-16
    vertex 12.21142272949035 74.8593992424005 1.999999999999999
    vertex 12.21142272949035 74.8593992424005 7.049916206369744e-16
  endloop
endfacet
facet normal 0.9705671206186152 -0.24083077954051227 0.0
  outer loop
    vertex 27.58299791813131 25.261242828370772 1.999999999999999
    vertex 25.999559569361715 18.87986083984518 1.999999999999999
    vertex 27.58299791813131 25.261242828370772 7.049916206369744e-16
  endloop
endfacet
facet normal -0.848828202564028 -0.5286687833908124 2.9494657801673105e-17
  outer loop
    vertex 12.430470180509454 77.16218961715657 1.999999999999999
    vertex 13.233637142179482 75.87262838363614 7.049916206369744e-16
    vertex 13.233637142179482 75.87262838363614 1.999999999999999
  endloop
endfacet
facet normal 2.493204791857345e-16 7.824621829145359e-17 -1.0
  outer loop
    vertex 30.20291213989341 43.0148853302022 7.049916206369744e-16
    vertex 29.00653135180618 35.7419522857685 -3.524958103184872e-16
    vertex 25.09885783195538 48.19319984436151 -3.524958103184872e-16
  endloop
endfacet
facet normal 7.249880193869488e-16 6.129509115678385e-29 -1.0
  outer loop
    vertex 30.2029121398941 35.08881195068561 7.049916206369744e-16
    vertex 29.00653135180618 35.7419522857685 -3.524958103184872e-16
    vertex 30.20291213989341 43.0148853302022 7.049916206369744e-16
  endloop
endfacet
facet normal 4.967080493499686e-17 -1.4081636230133963e-16 -1.0
  outer loop
    vertex 15.10145606994366 84.26386260986322 -3.524958103184872e-16
    vertex 12.430470180509454 77.16218961715657 7.049916206369744e-16
    vertex 10.159154796597884 82.52054188728273 -3.524958103184872e-16
  endloop
endfacet
endsolid penguin-default
